# Blender 4.4.1
# www.blender.org
mtllib frame.mtl
o Cube
v -1.042866 -1.042866 -0.916667
v -0.980281 -1.042866 -0.938835
v -1.042866 -0.986146 -0.944451
v -1.042866 -1.042866 0.916667
v -0.980281 -1.042866 0.938835
v -1.042866 -0.986146 0.944451
v 0.916667 -1.042866 -1.042866
v 0.938835 -1.042866 -0.980281
v 0.947192 -0.989008 -1.042866
v -0.916667 -1.042866 -1.042866
v -0.938835 -1.042866 -0.980281
v -0.947192 -0.989008 -1.042866
v 1.042866 0.944745 -0.986453
v 0.989008 0.947192 -1.042866
v 1.042866 0.916667 -1.042866
v 1.042866 -0.944745 -0.986453
v 0.989008 -0.947192 -1.042866
v 1.042866 -0.916667 -1.042866
v -0.984082 -0.942475 1.042866
v -1.042866 -0.916667 1.042866
v -1.042866 -0.944451 0.986146
v -0.984082 0.942475 1.042866
v -1.042866 0.916667 1.042866
v -1.042866 0.944451 0.986146
v 1.042866 0.916667 1.042866
v 0.984082 0.942475 1.042866
v 1.042866 0.944745 0.986453
v 1.042866 -0.916667 1.042866
v 0.984082 -0.942475 1.042866
v 1.042866 -0.944745 0.986453
v -1.042866 0.944451 -0.986146
v -1.042866 0.916667 -1.042866
v -0.989008 0.947192 -1.042866
v -1.042866 -0.944451 -0.986146
v -1.042866 -0.916667 -1.042866
v -0.989008 -0.947192 -1.042866
v 0.942475 0.984082 1.042866
v 0.916667 1.042866 1.042866
v 0.948192 1.042866 0.990051
v -0.942475 0.984082 1.042866
v -0.916667 1.042866 1.042866
v -0.948192 1.042866 0.990051
v 1.042866 0.986453 -0.944745
v 1.042866 1.042866 -0.916667
v 0.990051 1.042866 -0.948192
v 1.042866 0.986453 0.944745
v 1.042866 1.042866 0.916667
v 0.990051 1.042866 0.948192
v -0.916667 -1.042866 1.042866
v -0.938835 -1.042866 0.980281
v -0.942475 -0.984082 1.042866
v 0.916667 -1.042866 1.042866
v 0.938835 -1.042866 0.980281
v 0.942475 -0.984082 1.042866
v -1.042866 0.986146 0.944451
v -1.042866 1.042866 0.916667
v -0.990051 1.042866 0.948192
v -1.042866 0.986146 -0.944451
v -1.042866 1.042866 -0.916667
v -0.990051 1.042866 -0.948192
v -0.947192 0.989008 -1.042866
v -0.916667 1.042866 -1.042866
v -0.948192 1.042866 -0.990051
v 0.947192 0.989008 -1.042866
v 0.916667 1.042866 -1.042866
v 0.948192 1.042866 -0.990051
v 1.042866 -1.042866 0.916667
v 0.980281 -1.042866 0.938835
v 1.042866 -0.986453 0.944745
v 1.042866 -1.042866 -0.916667
v 0.980281 -1.042866 -0.938835
v 1.042866 -0.986453 -0.944745
vn -0.6782 -0.5197 0.5197
vn -0.0000 1.0000 -0.0000
vn 0.6764 0.5208 -0.5208
vn -0.5119 0.5119 0.6898
vn 0.5451 0.6370 0.5451
vn -0.4980 -0.7099 -0.4980
vn -0.0000 -0.0000 -1.0000
vn -0.0000 -0.0000 1.0000
vn -1.0000 -0.0000 -0.0000
vn -0.0000 -1.0000 -0.0000
vn 1.0000 -0.0000 -0.0000
vn 0.6764 -0.5208 0.5208
vn -0.5305 0.5305 -0.6611
vn 0.6764 -0.5208 -0.5208
s 0
usemtl Material
f 21//1 6//1 4//1 49//1 20//1
f 48//2 39//2 38//2
f 13//3 15//3 65//3 44//3 43//3
f 40//4 41//4 56//4 23//4 22//4
f 38//5 25//5 47//5 48//5
f 1//6 35//6 10//6 11//6 2//6
f 14//7 64//7 65//7 15//7
f 7//7 9//7 17//7 18//7
f 37//8 26//8 25//8 38//8
f 3//9 34//9 35//9 1//9
f 10//7 35//7 36//7 12//7
f 56//2 41//2 42//2 57//2
f 55//9 24//9 23//9 56//9
f 71//10 8//10 7//10 70//10
f 66//2 45//2 44//2 65//2
f 52//10 53//10 68//10 67//10
f 50//10 49//10 4//10 5//10
f 19//8 20//8 49//8 51//8
f 29//8 54//8 52//8 28//8
f 59//2 60//2 63//2 62//2
f 31//9 58//9 59//9 32//9
f 25//11 27//11 46//11 47//11
f 59//9 58//9 55//9 56//9
f 65//7 64//7 61//7 62//7
f 43//11 44//11 47//11 46//11
f 37//8 38//8 41//8 40//8
f 39//2 42//2 41//2 38//2
f 60//2 59//2 56//2 57//2
f 66//2 65//2 62//2 63//2
f 44//2 45//2 48//2 47//2
f 24//9 21//9 20//9 23//9
f 22//8 23//8 20//8 19//8
f 25//8 26//8 29//8 28//8
f 25//11 28//11 30//11 27//11
f 13//11 16//11 18//11 15//11
f 15//7 18//7 17//7 14//7
f 33//7 36//7 35//7 32//7
f 31//9 32//9 35//9 34//9
f 3//9 1//9 4//9 6//9
f 52//8 54//8 51//8 49//8
f 70//11 72//11 69//11 67//11
f 7//7 10//7 12//7 9//7
f 1//10 2//10 5//10 4//10
f 53//10 52//10 49//10 50//10
f 71//10 70//10 67//10 68//10
f 7//10 8//10 11//10 10//10
f 28//12 52//12 67//12 69//12 30//12
f 32//13 59//13 62//13 61//13 33//13
f 70//14 7//14 18//14 16//14 72//14
l 18 70
l 15 44
l 28 67
l 32 62
l 1 10
l 23 41
l 4 20
