{
	"asset":{
		"generator":"Khronos glTF Blender I/O v4.4.56",
		"version":"2.0"
	},
	"scene":0,
	"scenes":[
		{
			"name":"Scene",
			"nodes":[
				7
			]
		}
	],
	"nodes":[
		{
			"name":"\u30dc\u30fc\u30f3.005",
			"rotation":[
				-0.24011190235614777,
				4.424472166419946e-08,
				-0.6735791563987732,
				0.6990260481834412
			],
			"scale":[
				0.9999999403953552,
				0.9999999403953552,
				1
			],
			"translation":[
				-1.862645149230957e-09,
				1.3478432893753052,
				9.313225746154785e-10
			]
		},
		{
			"children":[
				0
			],
			"name":"\u30dc\u30fc\u30f3.001",
			"rotation":[
				0.17848923802375793,
				0,
				0.6842087507247925,
				0.7071068286895752
			],
			"translation":[
				0,
				1,
				-2.798838849571439e-08
			]
		},
		{
			"name":"\u30dc\u30fc\u30f3.002",
			"rotation":[
				0.5843899846076965,
				-6.303059763013152e-08,
				0.3943025767803192,
				0.7092347145080566
			],
			"scale":[
				0.9999999403953552,
				0.9999999403953552,
				0.9999999403953552
			],
			"translation":[
				0,
				1,
				-2.798838849571439e-08
			]
		},
		{
			"name":"\u30dc\u30fc\u30f3.003",
			"rotation":[
				0.7071067690849304,
				0.6842087507247925,
				-1.000987666088804e-07,
				0.17848928272724152
			],
			"scale":[
				1,
				1.000000238418579,
				0.9999999403953552
			],
			"translation":[
				0.0008100289851427078,
				1,
				-2.798838849571439e-08
			]
		},
		{
			"name":"\u30dc\u30fc\u30f3.004",
			"rotation":[
				0.7049666047096252,
				0.3942922055721283,
				-0.00286716315895319,
				0.589531660079956
			],
			"scale":[
				0.9999998807907104,
				0.9999998211860657,
				0.9999998807907104
			],
			"translation":[
				0.0008100289851427078,
				1,
				-2.798838849571439e-08
			]
		},
		{
			"children":[
				1,
				2,
				3,
				4
			],
			"name":"\u30dc\u30fc\u30f3",
			"translation":[
				0,
				-0.7541444897651672,
				-0.4521106779575348
			]
		},
		{
			"mesh":0,
			"name":"Spear",
			"skin":0
		},
		{
			"children":[
				6,
				5
			],
			"name":"\u30a2\u30fc\u30de\u30c1\u30e5\u30a2",
			"rotation":[
				0.7071068286895752,
				0,
				0,
				0.7071068286895752
			],
			"translation":[
				0,
				0.03682816028594971,
				-0.22182919085025787
			]
		}
	],
	"animations":[
		{
			"channels":[
				{
					"sampler":0,
					"target":{
						"node":5,
						"path":"translation"
					}
				},
				{
					"sampler":1,
					"target":{
						"node":5,
						"path":"rotation"
					}
				},
				{
					"sampler":2,
					"target":{
						"node":5,
						"path":"scale"
					}
				},
				{
					"sampler":3,
					"target":{
						"node":1,
						"path":"translation"
					}
				},
				{
					"sampler":4,
					"target":{
						"node":1,
						"path":"rotation"
					}
				},
				{
					"sampler":5,
					"target":{
						"node":1,
						"path":"scale"
					}
				},
				{
					"sampler":6,
					"target":{
						"node":0,
						"path":"translation"
					}
				},
				{
					"sampler":7,
					"target":{
						"node":0,
						"path":"rotation"
					}
				},
				{
					"sampler":8,
					"target":{
						"node":0,
						"path":"scale"
					}
				},
				{
					"sampler":9,
					"target":{
						"node":2,
						"path":"translation"
					}
				},
				{
					"sampler":10,
					"target":{
						"node":2,
						"path":"rotation"
					}
				},
				{
					"sampler":11,
					"target":{
						"node":2,
						"path":"scale"
					}
				},
				{
					"sampler":12,
					"target":{
						"node":3,
						"path":"translation"
					}
				},
				{
					"sampler":13,
					"target":{
						"node":3,
						"path":"rotation"
					}
				},
				{
					"sampler":14,
					"target":{
						"node":3,
						"path":"scale"
					}
				},
				{
					"sampler":15,
					"target":{
						"node":4,
						"path":"translation"
					}
				},
				{
					"sampler":16,
					"target":{
						"node":4,
						"path":"rotation"
					}
				},
				{
					"sampler":17,
					"target":{
						"node":4,
						"path":"scale"
					}
				}
			],
			"name":"\u7a81\u9032_Prepare",
			"samplers":[
				{
					"input":7,
					"interpolation":"STEP",
					"output":8
				},
				{
					"input":9,
					"interpolation":"LINEAR",
					"output":10
				},
				{
					"input":7,
					"interpolation":"STEP",
					"output":11
				},
				{
					"input":7,
					"interpolation":"STEP",
					"output":12
				},
				{
					"input":9,
					"interpolation":"LINEAR",
					"output":13
				},
				{
					"input":9,
					"interpolation":"LINEAR",
					"output":14
				},
				{
					"input":7,
					"interpolation":"STEP",
					"output":15
				},
				{
					"input":9,
					"interpolation":"LINEAR",
					"output":16
				},
				{
					"input":9,
					"interpolation":"LINEAR",
					"output":17
				},
				{
					"input":7,
					"interpolation":"STEP",
					"output":18
				},
				{
					"input":9,
					"interpolation":"LINEAR",
					"output":19
				},
				{
					"input":7,
					"interpolation":"STEP",
					"output":20
				},
				{
					"input":7,
					"interpolation":"STEP",
					"output":21
				},
				{
					"input":9,
					"interpolation":"LINEAR",
					"output":22
				},
				{
					"input":7,
					"interpolation":"STEP",
					"output":23
				},
				{
					"input":7,
					"interpolation":"STEP",
					"output":24
				},
				{
					"input":9,
					"interpolation":"LINEAR",
					"output":25
				},
				{
					"input":7,
					"interpolation":"STEP",
					"output":26
				}
			]
		},
		{
			"channels":[
				{
					"sampler":0,
					"target":{
						"node":5,
						"path":"translation"
					}
				},
				{
					"sampler":1,
					"target":{
						"node":5,
						"path":"rotation"
					}
				},
				{
					"sampler":2,
					"target":{
						"node":5,
						"path":"scale"
					}
				},
				{
					"sampler":3,
					"target":{
						"node":1,
						"path":"translation"
					}
				},
				{
					"sampler":4,
					"target":{
						"node":1,
						"path":"rotation"
					}
				},
				{
					"sampler":5,
					"target":{
						"node":1,
						"path":"scale"
					}
				},
				{
					"sampler":6,
					"target":{
						"node":0,
						"path":"translation"
					}
				},
				{
					"sampler":7,
					"target":{
						"node":0,
						"path":"rotation"
					}
				},
				{
					"sampler":8,
					"target":{
						"node":0,
						"path":"scale"
					}
				},
				{
					"sampler":9,
					"target":{
						"node":2,
						"path":"translation"
					}
				},
				{
					"sampler":10,
					"target":{
						"node":2,
						"path":"rotation"
					}
				},
				{
					"sampler":11,
					"target":{
						"node":2,
						"path":"scale"
					}
				},
				{
					"sampler":12,
					"target":{
						"node":3,
						"path":"translation"
					}
				},
				{
					"sampler":13,
					"target":{
						"node":3,
						"path":"rotation"
					}
				},
				{
					"sampler":14,
					"target":{
						"node":3,
						"path":"scale"
					}
				},
				{
					"sampler":15,
					"target":{
						"node":4,
						"path":"translation"
					}
				},
				{
					"sampler":16,
					"target":{
						"node":4,
						"path":"rotation"
					}
				},
				{
					"sampler":17,
					"target":{
						"node":4,
						"path":"scale"
					}
				}
			],
			"name":"\u7a81\u9032_Main",
			"samplers":[
				{
					"input":27,
					"interpolation":"STEP",
					"output":28
				},
				{
					"input":29,
					"interpolation":"LINEAR",
					"output":30
				},
				{
					"input":27,
					"interpolation":"STEP",
					"output":31
				},
				{
					"input":27,
					"interpolation":"STEP",
					"output":32
				},
				{
					"input":29,
					"interpolation":"LINEAR",
					"output":33
				},
				{
					"input":27,
					"interpolation":"STEP",
					"output":34
				},
				{
					"input":27,
					"interpolation":"STEP",
					"output":35
				},
				{
					"input":29,
					"interpolation":"LINEAR",
					"output":36
				},
				{
					"input":27,
					"interpolation":"STEP",
					"output":37
				},
				{
					"input":27,
					"interpolation":"STEP",
					"output":38
				},
				{
					"input":29,
					"interpolation":"LINEAR",
					"output":39
				},
				{
					"input":27,
					"interpolation":"STEP",
					"output":40
				},
				{
					"input":27,
					"interpolation":"STEP",
					"output":41
				},
				{
					"input":29,
					"interpolation":"LINEAR",
					"output":42
				},
				{
					"input":27,
					"interpolation":"STEP",
					"output":43
				},
				{
					"input":27,
					"interpolation":"STEP",
					"output":44
				},
				{
					"input":29,
					"interpolation":"LINEAR",
					"output":45
				},
				{
					"input":27,
					"interpolation":"STEP",
					"output":46
				}
			]
		},
		{
			"channels":[
				{
					"sampler":0,
					"target":{
						"node":5,
						"path":"translation"
					}
				},
				{
					"sampler":1,
					"target":{
						"node":5,
						"path":"rotation"
					}
				},
				{
					"sampler":2,
					"target":{
						"node":5,
						"path":"scale"
					}
				},
				{
					"sampler":3,
					"target":{
						"node":1,
						"path":"translation"
					}
				},
				{
					"sampler":4,
					"target":{
						"node":1,
						"path":"rotation"
					}
				},
				{
					"sampler":5,
					"target":{
						"node":1,
						"path":"scale"
					}
				},
				{
					"sampler":6,
					"target":{
						"node":0,
						"path":"translation"
					}
				},
				{
					"sampler":7,
					"target":{
						"node":0,
						"path":"rotation"
					}
				},
				{
					"sampler":8,
					"target":{
						"node":0,
						"path":"scale"
					}
				},
				{
					"sampler":9,
					"target":{
						"node":2,
						"path":"translation"
					}
				},
				{
					"sampler":10,
					"target":{
						"node":2,
						"path":"rotation"
					}
				},
				{
					"sampler":11,
					"target":{
						"node":2,
						"path":"scale"
					}
				},
				{
					"sampler":12,
					"target":{
						"node":3,
						"path":"translation"
					}
				},
				{
					"sampler":13,
					"target":{
						"node":3,
						"path":"rotation"
					}
				},
				{
					"sampler":14,
					"target":{
						"node":3,
						"path":"scale"
					}
				},
				{
					"sampler":15,
					"target":{
						"node":4,
						"path":"translation"
					}
				},
				{
					"sampler":16,
					"target":{
						"node":4,
						"path":"rotation"
					}
				},
				{
					"sampler":17,
					"target":{
						"node":4,
						"path":"scale"
					}
				}
			],
			"name":"\u7a81\u9032_End",
			"samplers":[
				{
					"input":47,
					"interpolation":"STEP",
					"output":48
				},
				{
					"input":49,
					"interpolation":"LINEAR",
					"output":50
				},
				{
					"input":47,
					"interpolation":"STEP",
					"output":51
				},
				{
					"input":47,
					"interpolation":"STEP",
					"output":52
				},
				{
					"input":49,
					"interpolation":"LINEAR",
					"output":53
				},
				{
					"input":49,
					"interpolation":"LINEAR",
					"output":54
				},
				{
					"input":47,
					"interpolation":"STEP",
					"output":55
				},
				{
					"input":49,
					"interpolation":"LINEAR",
					"output":56
				},
				{
					"input":49,
					"interpolation":"LINEAR",
					"output":57
				},
				{
					"input":47,
					"interpolation":"STEP",
					"output":58
				},
				{
					"input":49,
					"interpolation":"LINEAR",
					"output":59
				},
				{
					"input":47,
					"interpolation":"STEP",
					"output":60
				},
				{
					"input":47,
					"interpolation":"STEP",
					"output":61
				},
				{
					"input":49,
					"interpolation":"LINEAR",
					"output":62
				},
				{
					"input":47,
					"interpolation":"STEP",
					"output":63
				},
				{
					"input":47,
					"interpolation":"STEP",
					"output":64
				},
				{
					"input":49,
					"interpolation":"LINEAR",
					"output":65
				},
				{
					"input":47,
					"interpolation":"STEP",
					"output":66
				}
			]
		}
	],
	"materials":[
		{
			"doubleSided":true,
			"name":"\u30de\u30c6\u30ea\u30a2\u30eb.002",
			"pbrMetallicRoughness":{
				"baseColorTexture":{
					"index":0
				},
				"metallicFactor":0,
				"roughnessFactor":0.5
			}
		}
	],
	"meshes":[
		{
			"name":"\u7403.006",
			"primitives":[
				{
					"attributes":{
						"POSITION":0,
						"NORMAL":1,
						"TEXCOORD_0":2,
						"JOINTS_0":3,
						"WEIGHTS_0":4
					},
					"indices":5,
					"material":0
				}
			]
		}
	],
	"textures":[
		{
			"sampler":0,
			"source":0
		}
	],
	"images":[
		{
			"mimeType":"image/png",
			"name":"Player_SpearTex01",
			"uri":"Player_SpearTex01.png"
		}
	],
	"skins":[
		{
			"inverseBindMatrices":6,
			"joints":[
				5,
				1,
				0,
				2,
				3,
				4
			],
			"name":"\u30a2\u30fc\u30de\u30c1\u30e5\u30a2"
		}
	],
	"accessors":[
		{
			"bufferView":0,
			"componentType":5126,
			"count":1734,
			"max":[
				1.6143946647644043,
				1.355721354484558,
				3.5181429386138916
			],
			"min":[
				-1.6003186702728271,
				-0.7179783582687378,
				-1.8349246978759766
			],
			"type":"VEC3"
		},
		{
			"bufferView":1,
			"componentType":5126,
			"count":1734,
			"type":"VEC3"
		},
		{
			"bufferView":2,
			"componentType":5126,
			"count":1734,
			"type":"VEC2"
		},
		{
			"bufferView":3,
			"componentType":5121,
			"count":1734,
			"type":"VEC4"
		},
		{
			"bufferView":4,
			"componentType":5126,
			"count":1734,
			"type":"VEC4"
		},
		{
			"bufferView":5,
			"componentType":5123,
			"count":6942,
			"type":"SCALAR"
		},
		{
			"bufferView":6,
			"componentType":5126,
			"count":6,
			"type":"MAT4"
		},
		{
			"bufferView":7,
			"componentType":5126,
			"count":2,
			"max":[
				0.875
			],
			"min":[
				0
			],
			"type":"SCALAR"
		},
		{
			"bufferView":8,
			"componentType":5126,
			"count":2,
			"type":"VEC3"
		},
		{
			"bufferView":9,
			"componentType":5126,
			"count":22,
			"max":[
				0.875
			],
			"min":[
				0
			],
			"type":"SCALAR"
		},
		{
			"bufferView":10,
			"componentType":5126,
			"count":22,
			"type":"VEC4"
		},
		{
			"bufferView":11,
			"componentType":5126,
			"count":2,
			"type":"VEC3"
		},
		{
			"bufferView":12,
			"componentType":5126,
			"count":2,
			"type":"VEC3"
		},
		{
			"bufferView":13,
			"componentType":5126,
			"count":22,
			"type":"VEC4"
		},
		{
			"bufferView":14,
			"componentType":5126,
			"count":22,
			"type":"VEC3"
		},
		{
			"bufferView":15,
			"componentType":5126,
			"count":2,
			"type":"VEC3"
		},
		{
			"bufferView":16,
			"componentType":5126,
			"count":22,
			"type":"VEC4"
		},
		{
			"bufferView":17,
			"componentType":5126,
			"count":22,
			"type":"VEC3"
		},
		{
			"bufferView":18,
			"componentType":5126,
			"count":2,
			"type":"VEC3"
		},
		{
			"bufferView":19,
			"componentType":5126,
			"count":22,
			"type":"VEC4"
		},
		{
			"bufferView":20,
			"componentType":5126,
			"count":2,
			"type":"VEC3"
		},
		{
			"bufferView":21,
			"componentType":5126,
			"count":2,
			"type":"VEC3"
		},
		{
			"bufferView":22,
			"componentType":5126,
			"count":22,
			"type":"VEC4"
		},
		{
			"bufferView":23,
			"componentType":5126,
			"count":2,
			"type":"VEC3"
		},
		{
			"bufferView":24,
			"componentType":5126,
			"count":2,
			"type":"VEC3"
		},
		{
			"bufferView":25,
			"componentType":5126,
			"count":22,
			"type":"VEC4"
		},
		{
			"bufferView":26,
			"componentType":5126,
			"count":2,
			"type":"VEC3"
		},
		{
			"bufferView":27,
			"componentType":5126,
			"count":2,
			"max":[
				1.7083333333333333
			],
			"min":[
				0.875
			],
			"type":"SCALAR"
		},
		{
			"bufferView":28,
			"componentType":5126,
			"count":2,
			"type":"VEC3"
		},
		{
			"bufferView":29,
			"componentType":5126,
			"count":21,
			"max":[
				1.7083333333333333
			],
			"min":[
				0.875
			],
			"type":"SCALAR"
		},
		{
			"bufferView":30,
			"componentType":5126,
			"count":21,
			"type":"VEC4"
		},
		{
			"bufferView":31,
			"componentType":5126,
			"count":2,
			"type":"VEC3"
		},
		{
			"bufferView":32,
			"componentType":5126,
			"count":2,
			"type":"VEC3"
		},
		{
			"bufferView":33,
			"componentType":5126,
			"count":21,
			"type":"VEC4"
		},
		{
			"bufferView":34,
			"componentType":5126,
			"count":2,
			"type":"VEC3"
		},
		{
			"bufferView":35,
			"componentType":5126,
			"count":2,
			"type":"VEC3"
		},
		{
			"bufferView":36,
			"componentType":5126,
			"count":21,
			"type":"VEC4"
		},
		{
			"bufferView":37,
			"componentType":5126,
			"count":2,
			"type":"VEC3"
		},
		{
			"bufferView":38,
			"componentType":5126,
			"count":2,
			"type":"VEC3"
		},
		{
			"bufferView":39,
			"componentType":5126,
			"count":21,
			"type":"VEC4"
		},
		{
			"bufferView":40,
			"componentType":5126,
			"count":2,
			"type":"VEC3"
		},
		{
			"bufferView":41,
			"componentType":5126,
			"count":2,
			"type":"VEC3"
		},
		{
			"bufferView":42,
			"componentType":5126,
			"count":21,
			"type":"VEC4"
		},
		{
			"bufferView":43,
			"componentType":5126,
			"count":2,
			"type":"VEC3"
		},
		{
			"bufferView":44,
			"componentType":5126,
			"count":2,
			"type":"VEC3"
		},
		{
			"bufferView":45,
			"componentType":5126,
			"count":21,
			"type":"VEC4"
		},
		{
			"bufferView":46,
			"componentType":5126,
			"count":2,
			"type":"VEC3"
		},
		{
			"bufferView":47,
			"componentType":5126,
			"count":2,
			"max":[
				2.2916666666666665
			],
			"min":[
				1.7083333333333333
			],
			"type":"SCALAR"
		},
		{
			"bufferView":48,
			"componentType":5126,
			"count":2,
			"type":"VEC3"
		},
		{
			"bufferView":49,
			"componentType":5126,
			"count":15,
			"max":[
				2.2916666666666665
			],
			"min":[
				1.7083333333333333
			],
			"type":"SCALAR"
		},
		{
			"bufferView":50,
			"componentType":5126,
			"count":15,
			"type":"VEC4"
		},
		{
			"bufferView":51,
			"componentType":5126,
			"count":2,
			"type":"VEC3"
		},
		{
			"bufferView":52,
			"componentType":5126,
			"count":2,
			"type":"VEC3"
		},
		{
			"bufferView":53,
			"componentType":5126,
			"count":15,
			"type":"VEC4"
		},
		{
			"bufferView":54,
			"componentType":5126,
			"count":15,
			"type":"VEC3"
		},
		{
			"bufferView":55,
			"componentType":5126,
			"count":2,
			"type":"VEC3"
		},
		{
			"bufferView":56,
			"componentType":5126,
			"count":15,
			"type":"VEC4"
		},
		{
			"bufferView":57,
			"componentType":5126,
			"count":15,
			"type":"VEC3"
		},
		{
			"bufferView":58,
			"componentType":5126,
			"count":2,
			"type":"VEC3"
		},
		{
			"bufferView":59,
			"componentType":5126,
			"count":15,
			"type":"VEC4"
		},
		{
			"bufferView":60,
			"componentType":5126,
			"count":2,
			"type":"VEC3"
		},
		{
			"bufferView":61,
			"componentType":5126,
			"count":2,
			"type":"VEC3"
		},
		{
			"bufferView":62,
			"componentType":5126,
			"count":15,
			"type":"VEC4"
		},
		{
			"bufferView":63,
			"componentType":5126,
			"count":2,
			"type":"VEC3"
		},
		{
			"bufferView":64,
			"componentType":5126,
			"count":2,
			"type":"VEC3"
		},
		{
			"bufferView":65,
			"componentType":5126,
			"count":15,
			"type":"VEC4"
		},
		{
			"bufferView":66,
			"componentType":5126,
			"count":2,
			"type":"VEC3"
		}
	],
	"bufferViews":[
		{
			"buffer":0,
			"byteLength":20808,
			"byteOffset":0,
			"target":34962
		},
		{
			"buffer":0,
			"byteLength":20808,
			"byteOffset":20808,
			"target":34962
		},
		{
			"buffer":0,
			"byteLength":13872,
			"byteOffset":41616,
			"target":34962
		},
		{
			"buffer":0,
			"byteLength":6936,
			"byteOffset":55488,
			"target":34962
		},
		{
			"buffer":0,
			"byteLength":27744,
			"byteOffset":62424,
			"target":34962
		},
		{
			"buffer":0,
			"byteLength":13884,
			"byteOffset":90168,
			"target":34963
		},
		{
			"buffer":0,
			"byteLength":384,
			"byteOffset":104052
		},
		{
			"buffer":0,
			"byteLength":8,
			"byteOffset":104436
		},
		{
			"buffer":0,
			"byteLength":24,
			"byteOffset":104444
		},
		{
			"buffer":0,
			"byteLength":88,
			"byteOffset":104468
		},
		{
			"buffer":0,
			"byteLength":352,
			"byteOffset":104556
		},
		{
			"buffer":0,
			"byteLength":24,
			"byteOffset":104908
		},
		{
			"buffer":0,
			"byteLength":24,
			"byteOffset":104932
		},
		{
			"buffer":0,
			"byteLength":352,
			"byteOffset":104956
		},
		{
			"buffer":0,
			"byteLength":264,
			"byteOffset":105308
		},
		{
			"buffer":0,
			"byteLength":24,
			"byteOffset":105572
		},
		{
			"buffer":0,
			"byteLength":352,
			"byteOffset":105596
		},
		{
			"buffer":0,
			"byteLength":264,
			"byteOffset":105948
		},
		{
			"buffer":0,
			"byteLength":24,
			"byteOffset":106212
		},
		{
			"buffer":0,
			"byteLength":352,
			"byteOffset":106236
		},
		{
			"buffer":0,
			"byteLength":24,
			"byteOffset":106588
		},
		{
			"buffer":0,
			"byteLength":24,
			"byteOffset":106612
		},
		{
			"buffer":0,
			"byteLength":352,
			"byteOffset":106636
		},
		{
			"buffer":0,
			"byteLength":24,
			"byteOffset":106988
		},
		{
			"buffer":0,
			"byteLength":24,
			"byteOffset":107012
		},
		{
			"buffer":0,
			"byteLength":352,
			"byteOffset":107036
		},
		{
			"buffer":0,
			"byteLength":24,
			"byteOffset":107388
		},
		{
			"buffer":0,
			"byteLength":8,
			"byteOffset":107412
		},
		{
			"buffer":0,
			"byteLength":24,
			"byteOffset":107420
		},
		{
			"buffer":0,
			"byteLength":84,
			"byteOffset":107444
		},
		{
			"buffer":0,
			"byteLength":336,
			"byteOffset":107528
		},
		{
			"buffer":0,
			"byteLength":24,
			"byteOffset":107864
		},
		{
			"buffer":0,
			"byteLength":24,
			"byteOffset":107888
		},
		{
			"buffer":0,
			"byteLength":336,
			"byteOffset":107912
		},
		{
			"buffer":0,
			"byteLength":24,
			"byteOffset":108248
		},
		{
			"buffer":0,
			"byteLength":24,
			"byteOffset":108272
		},
		{
			"buffer":0,
			"byteLength":336,
			"byteOffset":108296
		},
		{
			"buffer":0,
			"byteLength":24,
			"byteOffset":108632
		},
		{
			"buffer":0,
			"byteLength":24,
			"byteOffset":108656
		},
		{
			"buffer":0,
			"byteLength":336,
			"byteOffset":108680
		},
		{
			"buffer":0,
			"byteLength":24,
			"byteOffset":109016
		},
		{
			"buffer":0,
			"byteLength":24,
			"byteOffset":109040
		},
		{
			"buffer":0,
			"byteLength":336,
			"byteOffset":109064
		},
		{
			"buffer":0,
			"byteLength":24,
			"byteOffset":109400
		},
		{
			"buffer":0,
			"byteLength":24,
			"byteOffset":109424
		},
		{
			"buffer":0,
			"byteLength":336,
			"byteOffset":109448
		},
		{
			"buffer":0,
			"byteLength":24,
			"byteOffset":109784
		},
		{
			"buffer":0,
			"byteLength":8,
			"byteOffset":109808
		},
		{
			"buffer":0,
			"byteLength":24,
			"byteOffset":109816
		},
		{
			"buffer":0,
			"byteLength":60,
			"byteOffset":109840
		},
		{
			"buffer":0,
			"byteLength":240,
			"byteOffset":109900
		},
		{
			"buffer":0,
			"byteLength":24,
			"byteOffset":110140
		},
		{
			"buffer":0,
			"byteLength":24,
			"byteOffset":110164
		},
		{
			"buffer":0,
			"byteLength":240,
			"byteOffset":110188
		},
		{
			"buffer":0,
			"byteLength":180,
			"byteOffset":110428
		},
		{
			"buffer":0,
			"byteLength":24,
			"byteOffset":110608
		},
		{
			"buffer":0,
			"byteLength":240,
			"byteOffset":110632
		},
		{
			"buffer":0,
			"byteLength":180,
			"byteOffset":110872
		},
		{
			"buffer":0,
			"byteLength":24,
			"byteOffset":111052
		},
		{
			"buffer":0,
			"byteLength":240,
			"byteOffset":111076
		},
		{
			"buffer":0,
			"byteLength":24,
			"byteOffset":111316
		},
		{
			"buffer":0,
			"byteLength":24,
			"byteOffset":111340
		},
		{
			"buffer":0,
			"byteLength":240,
			"byteOffset":111364
		},
		{
			"buffer":0,
			"byteLength":24,
			"byteOffset":111604
		},
		{
			"buffer":0,
			"byteLength":24,
			"byteOffset":111628
		},
		{
			"buffer":0,
			"byteLength":240,
			"byteOffset":111652
		},
		{
			"buffer":0,
			"byteLength":24,
			"byteOffset":111892
		}
	],
	"samplers":[
		{
			"magFilter":9729,
			"minFilter":9987
		}
	],
	"buffers":[
		{
			"byteLength":111916,
			"uri":"PlayerRush.bin"
		}
	]
}
