{
	"asset":{
		"generator":"Khronos glTF Blender I/O v4.4.56",
		"version":"2.0"
	},
	"scene":0,
	"scenes":[
		{
			"name":"Scene",
			"nodes":[
				7
			]
		}
	],
	"nodes":[
		{
			"name":"\u30dc\u30fc\u30f3.001",
			"rotation":[
				0.6905996799468994,
				0.002869158983230591,
				-0.12581570446491241,
				0.7122038006782532
			],
			"scale":[
				0.9999998807907104,
				1,
				0.9999998807907104
			],
			"translation":[
				2.2351741790771484e-08,
				0.8247817158699036,
				1.1213252548714081e-14
			]
		},
		{
			"name":"\u30dc\u30fc\u30f3.002",
			"rotation":[
				-0.7041409015655518,
				8.888118259164912e-07,
				-0.1331065595149994,
				0.6974727511405945
			],
			"scale":[
				0.9999999403953552,
				1,
				1
			],
			"translation":[
				2.2351741790771484e-08,
				0.8247817158699036,
				1.1213252548714081e-14
			]
		},
		{
			"name":"\u30dc\u30fc\u30f3.003",
			"rotation":[
				0.43065088987350464,
				-5.807606839880464e-07,
				-0.5644761323928833,
				0.7042063474655151
			],
			"scale":[
				0.9999998807907104,
				0.9999998807907104,
				1
			],
			"translation":[
				2.2351741790771484e-08,
				0.8247817158699036,
				1.1213252548714081e-14
			]
		},
		{
			"name":"\u30dc\u30fc\u30f3.004",
			"rotation":[
				-0.44042864441871643,
				2.5344663754367502e-06,
				-0.564423143863678,
				0.6981756091117859
			],
			"scale":[
				0.9999999403953552,
				1,
				1
			],
			"translation":[
				2.2351741790771484e-08,
				0.8247817158699036,
				1.1213252548714081e-14
			]
		},
		{
			"children":[
				0,
				1,
				2,
				3
			],
			"name":"\u30dc\u30fc\u30f3",
			"rotation":[
				0.5844133496284485,
				-0.3980717658996582,
				-0.5844130516052246,
				0.39807188510894775
			],
			"scale":[
				1,
				0.9999999403953552,
				0.9999995231628418
			],
			"translation":[
				2.3366341750374886e-08,
				0.7741292715072632,
				-0.5345596075057983
			]
		},
		{
			"mesh":0,
			"name":"RightHand.004",
			"skin":0
		},
		{
			"mesh":1,
			"name":"RightHand.007",
			"skin":0
		},
		{
			"children":[
				5,
				6,
				4
			],
			"name":"\u30a2\u30fc\u30de\u30c1\u30e5\u30a2"
		}
	],
	"animations":[
		{
			"channels":[
				{
					"sampler":0,
					"target":{
						"node":4,
						"path":"translation"
					}
				},
				{
					"sampler":1,
					"target":{
						"node":4,
						"path":"rotation"
					}
				},
				{
					"sampler":2,
					"target":{
						"node":4,
						"path":"scale"
					}
				},
				{
					"sampler":3,
					"target":{
						"node":0,
						"path":"translation"
					}
				},
				{
					"sampler":4,
					"target":{
						"node":0,
						"path":"rotation"
					}
				},
				{
					"sampler":5,
					"target":{
						"node":0,
						"path":"scale"
					}
				},
				{
					"sampler":6,
					"target":{
						"node":1,
						"path":"translation"
					}
				},
				{
					"sampler":7,
					"target":{
						"node":1,
						"path":"rotation"
					}
				},
				{
					"sampler":8,
					"target":{
						"node":1,
						"path":"scale"
					}
				},
				{
					"sampler":9,
					"target":{
						"node":2,
						"path":"translation"
					}
				},
				{
					"sampler":10,
					"target":{
						"node":2,
						"path":"rotation"
					}
				},
				{
					"sampler":11,
					"target":{
						"node":2,
						"path":"scale"
					}
				},
				{
					"sampler":12,
					"target":{
						"node":3,
						"path":"translation"
					}
				},
				{
					"sampler":13,
					"target":{
						"node":3,
						"path":"rotation"
					}
				},
				{
					"sampler":14,
					"target":{
						"node":3,
						"path":"scale"
					}
				}
			],
			"name":"\u7a81\u9032_Prepare",
			"samplers":[
				{
					"input":13,
					"interpolation":"STEP",
					"output":14
				},
				{
					"input":15,
					"interpolation":"LINEAR",
					"output":16
				},
				{
					"input":13,
					"interpolation":"STEP",
					"output":17
				},
				{
					"input":13,
					"interpolation":"STEP",
					"output":18
				},
				{
					"input":15,
					"interpolation":"LINEAR",
					"output":19
				},
				{
					"input":15,
					"interpolation":"LINEAR",
					"output":20
				},
				{
					"input":13,
					"interpolation":"STEP",
					"output":21
				},
				{
					"input":15,
					"interpolation":"LINEAR",
					"output":22
				},
				{
					"input":13,
					"interpolation":"STEP",
					"output":23
				},
				{
					"input":13,
					"interpolation":"STEP",
					"output":24
				},
				{
					"input":15,
					"interpolation":"LINEAR",
					"output":25
				},
				{
					"input":13,
					"interpolation":"STEP",
					"output":26
				},
				{
					"input":13,
					"interpolation":"STEP",
					"output":27
				},
				{
					"input":15,
					"interpolation":"LINEAR",
					"output":28
				},
				{
					"input":13,
					"interpolation":"STEP",
					"output":29
				}
			]
		},
		{
			"channels":[
				{
					"sampler":0,
					"target":{
						"node":4,
						"path":"translation"
					}
				},
				{
					"sampler":1,
					"target":{
						"node":4,
						"path":"rotation"
					}
				},
				{
					"sampler":2,
					"target":{
						"node":4,
						"path":"scale"
					}
				},
				{
					"sampler":3,
					"target":{
						"node":0,
						"path":"translation"
					}
				},
				{
					"sampler":4,
					"target":{
						"node":0,
						"path":"rotation"
					}
				},
				{
					"sampler":5,
					"target":{
						"node":0,
						"path":"scale"
					}
				},
				{
					"sampler":6,
					"target":{
						"node":1,
						"path":"translation"
					}
				},
				{
					"sampler":7,
					"target":{
						"node":1,
						"path":"rotation"
					}
				},
				{
					"sampler":8,
					"target":{
						"node":1,
						"path":"scale"
					}
				},
				{
					"sampler":9,
					"target":{
						"node":2,
						"path":"translation"
					}
				},
				{
					"sampler":10,
					"target":{
						"node":2,
						"path":"rotation"
					}
				},
				{
					"sampler":11,
					"target":{
						"node":2,
						"path":"scale"
					}
				},
				{
					"sampler":12,
					"target":{
						"node":3,
						"path":"translation"
					}
				},
				{
					"sampler":13,
					"target":{
						"node":3,
						"path":"rotation"
					}
				},
				{
					"sampler":14,
					"target":{
						"node":3,
						"path":"scale"
					}
				}
			],
			"name":"\u7a81\u9032_Main",
			"samplers":[
				{
					"input":30,
					"interpolation":"STEP",
					"output":31
				},
				{
					"input":30,
					"interpolation":"STEP",
					"output":32
				},
				{
					"input":30,
					"interpolation":"STEP",
					"output":33
				},
				{
					"input":30,
					"interpolation":"STEP",
					"output":34
				},
				{
					"input":30,
					"interpolation":"STEP",
					"output":35
				},
				{
					"input":30,
					"interpolation":"STEP",
					"output":36
				},
				{
					"input":30,
					"interpolation":"STEP",
					"output":37
				},
				{
					"input":30,
					"interpolation":"STEP",
					"output":38
				},
				{
					"input":30,
					"interpolation":"STEP",
					"output":39
				},
				{
					"input":30,
					"interpolation":"STEP",
					"output":40
				},
				{
					"input":30,
					"interpolation":"STEP",
					"output":41
				},
				{
					"input":30,
					"interpolation":"STEP",
					"output":42
				},
				{
					"input":30,
					"interpolation":"STEP",
					"output":43
				},
				{
					"input":30,
					"interpolation":"STEP",
					"output":44
				},
				{
					"input":30,
					"interpolation":"STEP",
					"output":45
				}
			]
		},
		{
			"channels":[
				{
					"sampler":0,
					"target":{
						"node":4,
						"path":"translation"
					}
				},
				{
					"sampler":1,
					"target":{
						"node":4,
						"path":"rotation"
					}
				},
				{
					"sampler":2,
					"target":{
						"node":4,
						"path":"scale"
					}
				},
				{
					"sampler":3,
					"target":{
						"node":0,
						"path":"translation"
					}
				},
				{
					"sampler":4,
					"target":{
						"node":0,
						"path":"rotation"
					}
				},
				{
					"sampler":5,
					"target":{
						"node":0,
						"path":"scale"
					}
				},
				{
					"sampler":6,
					"target":{
						"node":1,
						"path":"translation"
					}
				},
				{
					"sampler":7,
					"target":{
						"node":1,
						"path":"rotation"
					}
				},
				{
					"sampler":8,
					"target":{
						"node":1,
						"path":"scale"
					}
				},
				{
					"sampler":9,
					"target":{
						"node":2,
						"path":"translation"
					}
				},
				{
					"sampler":10,
					"target":{
						"node":2,
						"path":"rotation"
					}
				},
				{
					"sampler":11,
					"target":{
						"node":2,
						"path":"scale"
					}
				},
				{
					"sampler":12,
					"target":{
						"node":3,
						"path":"translation"
					}
				},
				{
					"sampler":13,
					"target":{
						"node":3,
						"path":"rotation"
					}
				},
				{
					"sampler":14,
					"target":{
						"node":3,
						"path":"scale"
					}
				}
			],
			"name":"\u7a81\u9032_End",
			"samplers":[
				{
					"input":46,
					"interpolation":"STEP",
					"output":47
				},
				{
					"input":48,
					"interpolation":"LINEAR",
					"output":49
				},
				{
					"input":46,
					"interpolation":"STEP",
					"output":50
				},
				{
					"input":46,
					"interpolation":"STEP",
					"output":51
				},
				{
					"input":48,
					"interpolation":"LINEAR",
					"output":52
				},
				{
					"input":48,
					"interpolation":"LINEAR",
					"output":53
				},
				{
					"input":46,
					"interpolation":"STEP",
					"output":54
				},
				{
					"input":48,
					"interpolation":"LINEAR",
					"output":55
				},
				{
					"input":46,
					"interpolation":"STEP",
					"output":56
				},
				{
					"input":46,
					"interpolation":"STEP",
					"output":57
				},
				{
					"input":48,
					"interpolation":"LINEAR",
					"output":58
				},
				{
					"input":46,
					"interpolation":"STEP",
					"output":59
				},
				{
					"input":46,
					"interpolation":"STEP",
					"output":60
				},
				{
					"input":48,
					"interpolation":"LINEAR",
					"output":61
				},
				{
					"input":46,
					"interpolation":"STEP",
					"output":62
				}
			]
		}
	],
	"materials":[
		{
			"doubleSided":true,
			"name":"\u30de\u30c6\u30ea\u30a2\u30eb.001",
			"pbrMetallicRoughness":{
				"baseColorTexture":{
					"index":0
				},
				"metallicFactor":0,
				"roughnessFactor":0.5
			}
		},
		{
			"doubleSided":true,
			"name":"\u30de\u30c6\u30ea\u30a2\u30eb",
			"pbrMetallicRoughness":{
				"baseColorTexture":{
					"index":1
				},
				"metallicFactor":0,
				"roughnessFactor":0.5
			}
		}
	],
	"meshes":[
		{
			"name":"\u7403.003",
			"primitives":[
				{
					"attributes":{
						"POSITION":0,
						"NORMAL":1,
						"TEXCOORD_0":2,
						"JOINTS_0":3,
						"WEIGHTS_0":4
					},
					"indices":5,
					"material":0
				}
			]
		},
		{
			"name":"\u7403.006",
			"primitives":[
				{
					"attributes":{
						"POSITION":7,
						"NORMAL":8,
						"TEXCOORD_0":9,
						"JOINTS_0":10,
						"WEIGHTS_0":11
					},
					"indices":12,
					"material":1
				}
			]
		}
	],
	"textures":[
		{
			"sampler":0,
			"source":0
		},
		{
			"sampler":0,
			"source":0
		}
	],
	"images":[
		{
			"mimeType":"image/png",
			"name":"Player_SpearTex01",
			"uri":"Player_SpearTex01.png"
		}
	],
	"skins":[
		{
			"inverseBindMatrices":6,
			"joints":[
				4,
				0,
				1,
				2,
				3
			],
			"name":"\u30a2\u30fc\u30de\u30c1\u30e5\u30a2"
		}
	],
	"accessors":[
		{
			"bufferView":0,
			"componentType":5126,
			"count":1437,
			"max":[
				1.6143946647644043,
				1.4446934461593628,
				1.1289422512054443
			],
			"min":[
				-1.6003185510635376,
				-0.8431960344314575,
				-0.9387372136116028
			],
			"type":"VEC3"
		},
		{
			"bufferView":1,
			"componentType":5126,
			"count":1437,
			"type":"VEC3"
		},
		{
			"bufferView":2,
			"componentType":5126,
			"count":1437,
			"type":"VEC2"
		},
		{
			"bufferView":3,
			"componentType":5121,
			"count":1437,
			"type":"VEC4"
		},
		{
			"bufferView":4,
			"componentType":5126,
			"count":1437,
			"type":"VEC4"
		},
		{
			"bufferView":5,
			"componentType":5123,
			"count":6138,
			"type":"SCALAR"
		},
		{
			"bufferView":6,
			"componentType":5126,
			"count":5,
			"type":"MAT4"
		},
		{
			"bufferView":7,
			"componentType":5126,
			"count":297,
			"max":[
				-0.04981716349720955,
				2.740757703781128,
				0.99946129322052
			],
			"min":[
				-2.263192892074585,
				-1.9910078048706055,
				-0.5265176296234131
			],
			"type":"VEC3"
		},
		{
			"bufferView":8,
			"componentType":5126,
			"count":297,
			"type":"VEC3"
		},
		{
			"bufferView":9,
			"componentType":5126,
			"count":297,
			"type":"VEC2"
		},
		{
			"bufferView":10,
			"componentType":5121,
			"count":297,
			"type":"VEC4"
		},
		{
			"bufferView":11,
			"componentType":5126,
			"count":297,
			"type":"VEC4"
		},
		{
			"bufferView":12,
			"componentType":5123,
			"count":804,
			"type":"SCALAR"
		},
		{
			"bufferView":13,
			"componentType":5126,
			"count":2,
			"max":[
				1
			],
			"min":[
				0
			],
			"type":"SCALAR"
		},
		{
			"bufferView":14,
			"componentType":5126,
			"count":2,
			"type":"VEC3"
		},
		{
			"bufferView":15,
			"componentType":5126,
			"count":25,
			"max":[
				1
			],
			"min":[
				0
			],
			"type":"SCALAR"
		},
		{
			"bufferView":16,
			"componentType":5126,
			"count":25,
			"type":"VEC4"
		},
		{
			"bufferView":17,
			"componentType":5126,
			"count":2,
			"type":"VEC3"
		},
		{
			"bufferView":18,
			"componentType":5126,
			"count":2,
			"type":"VEC3"
		},
		{
			"bufferView":19,
			"componentType":5126,
			"count":25,
			"type":"VEC4"
		},
		{
			"bufferView":20,
			"componentType":5126,
			"count":25,
			"type":"VEC3"
		},
		{
			"bufferView":21,
			"componentType":5126,
			"count":2,
			"type":"VEC3"
		},
		{
			"bufferView":22,
			"componentType":5126,
			"count":25,
			"type":"VEC4"
		},
		{
			"bufferView":23,
			"componentType":5126,
			"count":2,
			"type":"VEC3"
		},
		{
			"bufferView":24,
			"componentType":5126,
			"count":2,
			"type":"VEC3"
		},
		{
			"bufferView":25,
			"componentType":5126,
			"count":25,
			"type":"VEC4"
		},
		{
			"bufferView":26,
			"componentType":5126,
			"count":2,
			"type":"VEC3"
		},
		{
			"bufferView":27,
			"componentType":5126,
			"count":2,
			"type":"VEC3"
		},
		{
			"bufferView":28,
			"componentType":5126,
			"count":25,
			"type":"VEC4"
		},
		{
			"bufferView":29,
			"componentType":5126,
			"count":2,
			"type":"VEC3"
		},
		{
			"bufferView":30,
			"componentType":5126,
			"count":2,
			"max":[
				1.7916666666666667
			],
			"min":[
				1
			],
			"type":"SCALAR"
		},
		{
			"bufferView":31,
			"componentType":5126,
			"count":2,
			"type":"VEC3"
		},
		{
			"bufferView":32,
			"componentType":5126,
			"count":2,
			"type":"VEC4"
		},
		{
			"bufferView":33,
			"componentType":5126,
			"count":2,
			"type":"VEC3"
		},
		{
			"bufferView":34,
			"componentType":5126,
			"count":2,
			"type":"VEC3"
		},
		{
			"bufferView":35,
			"componentType":5126,
			"count":2,
			"type":"VEC4"
		},
		{
			"bufferView":36,
			"componentType":5126,
			"count":2,
			"type":"VEC3"
		},
		{
			"bufferView":37,
			"componentType":5126,
			"count":2,
			"type":"VEC3"
		},
		{
			"bufferView":38,
			"componentType":5126,
			"count":2,
			"type":"VEC4"
		},
		{
			"bufferView":39,
			"componentType":5126,
			"count":2,
			"type":"VEC3"
		},
		{
			"bufferView":40,
			"componentType":5126,
			"count":2,
			"type":"VEC3"
		},
		{
			"bufferView":41,
			"componentType":5126,
			"count":2,
			"type":"VEC4"
		},
		{
			"bufferView":42,
			"componentType":5126,
			"count":2,
			"type":"VEC3"
		},
		{
			"bufferView":43,
			"componentType":5126,
			"count":2,
			"type":"VEC3"
		},
		{
			"bufferView":44,
			"componentType":5126,
			"count":2,
			"type":"VEC4"
		},
		{
			"bufferView":45,
			"componentType":5126,
			"count":2,
			"type":"VEC3"
		},
		{
			"bufferView":46,
			"componentType":5126,
			"count":2,
			"max":[
				2.5833333333333335
			],
			"min":[
				1.7916666666666667
			],
			"type":"SCALAR"
		},
		{
			"bufferView":47,
			"componentType":5126,
			"count":2,
			"type":"VEC3"
		},
		{
			"bufferView":48,
			"componentType":5126,
			"count":20,
			"max":[
				2.5833333333333335
			],
			"min":[
				1.7916666666666667
			],
			"type":"SCALAR"
		},
		{
			"bufferView":49,
			"componentType":5126,
			"count":20,
			"type":"VEC4"
		},
		{
			"bufferView":50,
			"componentType":5126,
			"count":2,
			"type":"VEC3"
		},
		{
			"bufferView":51,
			"componentType":5126,
			"count":2,
			"type":"VEC3"
		},
		{
			"bufferView":52,
			"componentType":5126,
			"count":20,
			"type":"VEC4"
		},
		{
			"bufferView":53,
			"componentType":5126,
			"count":20,
			"type":"VEC3"
		},
		{
			"bufferView":54,
			"componentType":5126,
			"count":2,
			"type":"VEC3"
		},
		{
			"bufferView":55,
			"componentType":5126,
			"count":20,
			"type":"VEC4"
		},
		{
			"bufferView":56,
			"componentType":5126,
			"count":2,
			"type":"VEC3"
		},
		{
			"bufferView":57,
			"componentType":5126,
			"count":2,
			"type":"VEC3"
		},
		{
			"bufferView":58,
			"componentType":5126,
			"count":20,
			"type":"VEC4"
		},
		{
			"bufferView":59,
			"componentType":5126,
			"count":2,
			"type":"VEC3"
		},
		{
			"bufferView":60,
			"componentType":5126,
			"count":2,
			"type":"VEC3"
		},
		{
			"bufferView":61,
			"componentType":5126,
			"count":20,
			"type":"VEC4"
		},
		{
			"bufferView":62,
			"componentType":5126,
			"count":2,
			"type":"VEC3"
		}
	],
	"bufferViews":[
		{
			"buffer":0,
			"byteLength":17244,
			"byteOffset":0,
			"target":34962
		},
		{
			"buffer":0,
			"byteLength":17244,
			"byteOffset":17244,
			"target":34962
		},
		{
			"buffer":0,
			"byteLength":11496,
			"byteOffset":34488,
			"target":34962
		},
		{
			"buffer":0,
			"byteLength":5748,
			"byteOffset":45984,
			"target":34962
		},
		{
			"buffer":0,
			"byteLength":22992,
			"byteOffset":51732,
			"target":34962
		},
		{
			"buffer":0,
			"byteLength":12276,
			"byteOffset":74724,
			"target":34963
		},
		{
			"buffer":0,
			"byteLength":320,
			"byteOffset":87000
		},
		{
			"buffer":0,
			"byteLength":3564,
			"byteOffset":87320,
			"target":34962
		},
		{
			"buffer":0,
			"byteLength":3564,
			"byteOffset":90884,
			"target":34962
		},
		{
			"buffer":0,
			"byteLength":2376,
			"byteOffset":94448,
			"target":34962
		},
		{
			"buffer":0,
			"byteLength":1188,
			"byteOffset":96824,
			"target":34962
		},
		{
			"buffer":0,
			"byteLength":4752,
			"byteOffset":98012,
			"target":34962
		},
		{
			"buffer":0,
			"byteLength":1608,
			"byteOffset":102764,
			"target":34963
		},
		{
			"buffer":0,
			"byteLength":8,
			"byteOffset":104372
		},
		{
			"buffer":0,
			"byteLength":24,
			"byteOffset":104380
		},
		{
			"buffer":0,
			"byteLength":100,
			"byteOffset":104404
		},
		{
			"buffer":0,
			"byteLength":400,
			"byteOffset":104504
		},
		{
			"buffer":0,
			"byteLength":24,
			"byteOffset":104904
		},
		{
			"buffer":0,
			"byteLength":24,
			"byteOffset":104928
		},
		{
			"buffer":0,
			"byteLength":400,
			"byteOffset":104952
		},
		{
			"buffer":0,
			"byteLength":300,
			"byteOffset":105352
		},
		{
			"buffer":0,
			"byteLength":24,
			"byteOffset":105652
		},
		{
			"buffer":0,
			"byteLength":400,
			"byteOffset":105676
		},
		{
			"buffer":0,
			"byteLength":24,
			"byteOffset":106076
		},
		{
			"buffer":0,
			"byteLength":24,
			"byteOffset":106100
		},
		{
			"buffer":0,
			"byteLength":400,
			"byteOffset":106124
		},
		{
			"buffer":0,
			"byteLength":24,
			"byteOffset":106524
		},
		{
			"buffer":0,
			"byteLength":24,
			"byteOffset":106548
		},
		{
			"buffer":0,
			"byteLength":400,
			"byteOffset":106572
		},
		{
			"buffer":0,
			"byteLength":24,
			"byteOffset":106972
		},
		{
			"buffer":0,
			"byteLength":8,
			"byteOffset":106996
		},
		{
			"buffer":0,
			"byteLength":24,
			"byteOffset":107004
		},
		{
			"buffer":0,
			"byteLength":32,
			"byteOffset":107028
		},
		{
			"buffer":0,
			"byteLength":24,
			"byteOffset":107060
		},
		{
			"buffer":0,
			"byteLength":24,
			"byteOffset":107084
		},
		{
			"buffer":0,
			"byteLength":32,
			"byteOffset":107108
		},
		{
			"buffer":0,
			"byteLength":24,
			"byteOffset":107140
		},
		{
			"buffer":0,
			"byteLength":24,
			"byteOffset":107164
		},
		{
			"buffer":0,
			"byteLength":32,
			"byteOffset":107188
		},
		{
			"buffer":0,
			"byteLength":24,
			"byteOffset":107220
		},
		{
			"buffer":0,
			"byteLength":24,
			"byteOffset":107244
		},
		{
			"buffer":0,
			"byteLength":32,
			"byteOffset":107268
		},
		{
			"buffer":0,
			"byteLength":24,
			"byteOffset":107300
		},
		{
			"buffer":0,
			"byteLength":24,
			"byteOffset":107324
		},
		{
			"buffer":0,
			"byteLength":32,
			"byteOffset":107348
		},
		{
			"buffer":0,
			"byteLength":24,
			"byteOffset":107380
		},
		{
			"buffer":0,
			"byteLength":8,
			"byteOffset":107404
		},
		{
			"buffer":0,
			"byteLength":24,
			"byteOffset":107412
		},
		{
			"buffer":0,
			"byteLength":80,
			"byteOffset":107436
		},
		{
			"buffer":0,
			"byteLength":320,
			"byteOffset":107516
		},
		{
			"buffer":0,
			"byteLength":24,
			"byteOffset":107836
		},
		{
			"buffer":0,
			"byteLength":24,
			"byteOffset":107860
		},
		{
			"buffer":0,
			"byteLength":320,
			"byteOffset":107884
		},
		{
			"buffer":0,
			"byteLength":240,
			"byteOffset":108204
		},
		{
			"buffer":0,
			"byteLength":24,
			"byteOffset":108444
		},
		{
			"buffer":0,
			"byteLength":320,
			"byteOffset":108468
		},
		{
			"buffer":0,
			"byteLength":24,
			"byteOffset":108788
		},
		{
			"buffer":0,
			"byteLength":24,
			"byteOffset":108812
		},
		{
			"buffer":0,
			"byteLength":320,
			"byteOffset":108836
		},
		{
			"buffer":0,
			"byteLength":24,
			"byteOffset":109156
		},
		{
			"buffer":0,
			"byteLength":24,
			"byteOffset":109180
		},
		{
			"buffer":0,
			"byteLength":320,
			"byteOffset":109204
		},
		{
			"buffer":0,
			"byteLength":24,
			"byteOffset":109524
		}
	],
	"samplers":[
		{
			"magFilter":9729,
			"minFilter":9987
		}
	],
	"buffers":[
		{
			"byteLength":109548,
			"uri":"PlayerRush.bin"
		}
	]
}
