# Blender 4.4.1
# www.blender.org
mtllib neonFrame.mtl
o 立方体
v -1.540592 -0.583459 -0.381323
v -1.827456 -0.313134 -0.381323
v -1.827456 1.146217 -0.381323
v -1.540592 1.416541 -0.381323
v 1.540592 1.416541 -0.381323
v 1.827456 1.146217 -0.381323
v 1.827456 -0.313134 -0.381323
v 1.540592 -0.583459 -0.381323
v -1.612310 -0.110393 -0.381323
v -1.325446 -0.380717 -0.381323
v -1.325446 1.213800 -0.381323
v -1.612310 0.943476 -0.381323
v 1.612310 0.943476 -0.381323
v 1.325446 1.213800 -0.381323
v 1.325446 -0.380717 -0.381323
v 1.612310 -0.110393 -0.381323
v -1.827456 -0.313134 0.295907
v -1.540592 -0.583459 0.295907
v -1.325446 -0.380717 0.295907
v -1.612310 -0.110393 0.295907
v -1.612310 0.943476 0.295907
v -1.325446 1.213800 0.295907
v -1.540592 1.416541 0.295907
v -1.827456 1.146217 0.295907
v 1.827456 1.146217 0.295907
v 1.540592 1.416541 0.295907
v 1.325446 1.213800 0.295907
v 1.612310 0.943476 0.295907
v 1.612310 -0.110393 0.295907
v 1.325446 -0.380717 0.295907
v 1.540592 -0.583459 0.295907
v 1.827456 -0.313134 0.295907
vn -0.0000 -0.0000 -1.0000
vn -0.0000 -0.0000 1.0000
vn -0.6858 0.7278 -0.0000
vn -0.0000 -1.0000 -0.0000
vn -0.0000 1.0000 -0.0000
vn 0.6858 -0.7278 -0.0000
vn -1.0000 -0.0000 -0.0000
vn -0.6858 -0.7278 -0.0000
vn 0.6858 0.7278 -0.0000
vn 1.0000 -0.0000 -0.0000
vt 0.400343 0.793074
vt 0.375000 0.769622
vt 0.375000 0.980378
vt 0.400343 0.956926
vt 0.599657 0.956926
vt 0.625000 0.980378
vt 0.625000 0.769622
vt 0.599657 0.793074
vt 0.565867 0.775343
vt 0.591209 0.750000
vt 0.408791 0.750000
vt 0.434133 0.775343
vt 0.408791 1.000000
vt 0.434133 0.974657
vt 0.565867 0.974657
vt 0.591209 1.000000
s 1
usemtl マテリアル.001
f 15/1/1 8/2/1 1/3/1 10/4/1
f 11/5/1 4/6/1 5/7/1 14/8/1
f 13/9/1 6/10/1 7/11/1 16/12/1
f 1/3/1 2/13/1 9/14/1 10/4/1
f 11/5/1 12/15/1 3/16/1 4/6/1
f 5/7/1 6/10/1 13/9/1 14/8/1
f 15/1/1 16/12/1 7/11/1 8/2/1
f 9/14/1 2/13/1 3/16/1 12/15/1
f 30/1/2 19/4/2 18/3/2 31/2/2
f 22/5/2 27/8/2 26/7/2 23/6/2
f 28/9/2 29/12/2 32/11/2 25/10/2
f 18/3/2 19/4/2 20/14/2 17/13/2
f 22/5/2 23/6/2 24/16/2 21/15/2
f 26/7/2 27/8/2 28/9/2 25/10/2
f 30/1/2 31/2/2 32/11/2 29/12/2
f 20/14/2 21/15/2 24/16/2 17/13/2
f 16/12/3 15/1/3 30/1/3 29/12/3
f 11/5/4 14/8/4 27/8/4 22/5/4
f 4/6/3 3/16/3 24/16/3 23/6/3
f 5/7/5 4/6/5 23/6/5 26/7/5
f 8/2/6 7/11/6 32/11/6 31/2/6
f 13/9/7 16/12/7 29/12/7 28/9/7
f 2/13/8 1/3/8 18/3/8 17/13/8
f 6/10/9 5/7/9 26/7/9 25/10/9
f 7/11/10 6/10/10 25/10/10 32/11/10
f 9/14/10 12/15/10 21/15/10 20/14/10
f 10/4/9 9/14/9 20/14/9 19/4/9
f 3/16/7 2/13/7 17/13/7 24/16/7
f 14/8/8 13/9/8 28/9/8 27/8/8
f 15/1/5 10/4/5 19/4/5 30/1/5
f 12/15/6 11/5/6 22/5/6 21/15/6
f 1/3/4 8/2/4 31/2/4 18/3/4
