{
	"asset":{
		"generator":"Khronos glTF Blender I/O v4.4.56",
		"version":"2.0"
	},
	"scene":0,
	"scenes":[
		{
			"name":"Scene",
			"nodes":[
				7
			]
		}
	],
	"nodes":[
		{
			"name":"\u30dc\u30fc\u30f3.005",
			"rotation":[
				-0.24011190235614777,
				4.424472166419946e-08,
				-0.6735791563987732,
				0.6990260481834412
			],
			"scale":[
				0.9999999403953552,
				0.9999999403953552,
				1
			],
			"translation":[
				-1.862645149230957e-09,
				1.3478432893753052,
				9.313225746154785e-10
			]
		},
		{
			"children":[
				0
			],
			"name":"\u30dc\u30fc\u30f3.001",
			"rotation":[
				0.17848923802375793,
				0,
				0.6842087507247925,
				0.7071068286895752
			],
			"translation":[
				0,
				1,
				-2.798838849571439e-08
			]
		},
		{
			"name":"\u30dc\u30fc\u30f3.002",
			"rotation":[
				0.5843899846076965,
				-6.303059763013152e-08,
				0.3943025767803192,
				0.7092347145080566
			],
			"scale":[
				0.9999999403953552,
				0.9999999403953552,
				0.9999999403953552
			],
			"translation":[
				0,
				1,
				-2.798838849571439e-08
			]
		},
		{
			"name":"\u30dc\u30fc\u30f3.003",
			"rotation":[
				0.7071067690849304,
				0.6842087507247925,
				-1.000987666088804e-07,
				0.17848928272724152
			],
			"scale":[
				1,
				1.000000238418579,
				0.9999999403953552
			],
			"translation":[
				0.0008100289851427078,
				1,
				-2.798838849571439e-08
			]
		},
		{
			"name":"\u30dc\u30fc\u30f3.004",
			"rotation":[
				0.7049666047096252,
				0.3942922055721283,
				-0.00286716315895319,
				0.589531660079956
			],
			"scale":[
				0.9999998807907104,
				0.9999998211860657,
				0.9999998807907104
			],
			"translation":[
				0.0008100289851427078,
				1,
				-2.798838849571439e-08
			]
		},
		{
			"children":[
				1,
				2,
				3,
				4
			],
			"name":"\u30dc\u30fc\u30f3",
			"translation":[
				0,
				-0.7541444897651672,
				-0.4521106779575348
			]
		},
		{
			"mesh":0,
			"name":"Spear.001",
			"skin":0
		},
		{
			"children":[
				6,
				5
			],
			"name":"\u30a2\u30fc\u30de\u30c1\u30e5\u30a2",
			"rotation":[
				0.7071068286895752,
				0,
				0,
				0.7071068286895752
			],
			"translation":[
				0,
				0.03682816028594971,
				-0.22182919085025787
			]
		}
	],
	"animations":[
		{
			"channels":[
				{
					"sampler":0,
					"target":{
						"node":5,
						"path":"translation"
					}
				},
				{
					"sampler":1,
					"target":{
						"node":5,
						"path":"rotation"
					}
				},
				{
					"sampler":2,
					"target":{
						"node":5,
						"path":"scale"
					}
				},
				{
					"sampler":3,
					"target":{
						"node":1,
						"path":"translation"
					}
				},
				{
					"sampler":4,
					"target":{
						"node":1,
						"path":"rotation"
					}
				},
				{
					"sampler":5,
					"target":{
						"node":1,
						"path":"scale"
					}
				},
				{
					"sampler":6,
					"target":{
						"node":0,
						"path":"translation"
					}
				},
				{
					"sampler":7,
					"target":{
						"node":0,
						"path":"rotation"
					}
				},
				{
					"sampler":8,
					"target":{
						"node":0,
						"path":"scale"
					}
				},
				{
					"sampler":9,
					"target":{
						"node":2,
						"path":"translation"
					}
				},
				{
					"sampler":10,
					"target":{
						"node":2,
						"path":"rotation"
					}
				},
				{
					"sampler":11,
					"target":{
						"node":2,
						"path":"scale"
					}
				},
				{
					"sampler":12,
					"target":{
						"node":3,
						"path":"translation"
					}
				},
				{
					"sampler":13,
					"target":{
						"node":3,
						"path":"rotation"
					}
				},
				{
					"sampler":14,
					"target":{
						"node":3,
						"path":"scale"
					}
				},
				{
					"sampler":15,
					"target":{
						"node":4,
						"path":"translation"
					}
				},
				{
					"sampler":16,
					"target":{
						"node":4,
						"path":"rotation"
					}
				},
				{
					"sampler":17,
					"target":{
						"node":4,
						"path":"scale"
					}
				}
			],
			"name":"\u6b69\u304d",
			"samplers":[
				{
					"input":7,
					"interpolation":"STEP",
					"output":8
				},
				{
					"input":7,
					"interpolation":"STEP",
					"output":9
				},
				{
					"input":7,
					"interpolation":"STEP",
					"output":10
				},
				{
					"input":7,
					"interpolation":"STEP",
					"output":11
				},
				{
					"input":12,
					"interpolation":"LINEAR",
					"output":13
				},
				{
					"input":7,
					"interpolation":"STEP",
					"output":14
				},
				{
					"input":7,
					"interpolation":"STEP",
					"output":15
				},
				{
					"input":7,
					"interpolation":"STEP",
					"output":16
				},
				{
					"input":7,
					"interpolation":"STEP",
					"output":17
				},
				{
					"input":7,
					"interpolation":"STEP",
					"output":18
				},
				{
					"input":12,
					"interpolation":"LINEAR",
					"output":19
				},
				{
					"input":7,
					"interpolation":"STEP",
					"output":20
				},
				{
					"input":7,
					"interpolation":"STEP",
					"output":21
				},
				{
					"input":12,
					"interpolation":"LINEAR",
					"output":22
				},
				{
					"input":7,
					"interpolation":"STEP",
					"output":23
				},
				{
					"input":7,
					"interpolation":"STEP",
					"output":24
				},
				{
					"input":12,
					"interpolation":"LINEAR",
					"output":25
				},
				{
					"input":7,
					"interpolation":"STEP",
					"output":26
				}
			]
		}
	],
	"materials":[
		{
			"doubleSided":true,
			"name":"\u30de\u30c6\u30ea\u30a2\u30eb",
			"pbrMetallicRoughness":{
				"baseColorTexture":{
					"index":0
				},
				"metallicFactor":0,
				"roughnessFactor":0.5
			}
		}
	],
	"meshes":[
		{
			"name":"\u7403.001",
			"primitives":[
				{
					"attributes":{
						"POSITION":0,
						"NORMAL":1,
						"TEXCOORD_0":2,
						"JOINTS_0":3,
						"WEIGHTS_0":4
					},
					"indices":5,
					"material":0
				}
			]
		}
	],
	"textures":[
		{
			"sampler":0,
			"source":0
		}
	],
	"images":[
		{
			"mimeType":"image/png",
			"name":"Player_SpearTex01",
			"uri":"Player_SpearTex01.png"
		}
	],
	"skins":[
		{
			"inverseBindMatrices":6,
			"joints":[
				5,
				1,
				0,
				2,
				3,
				4
			],
			"name":"\u30a2\u30fc\u30de\u30c1\u30e5\u30a2"
		}
	],
	"accessors":[
		{
			"bufferView":0,
			"componentType":5126,
			"count":1734,
			"max":[
				1.6143956184387207,
				1.3557220697402954,
				3.0911171436309814
			],
			"min":[
				-1.6003186702728271,
				-0.7179783582687378,
				-2.261950969696045
			],
			"type":"VEC3"
		},
		{
			"bufferView":1,
			"componentType":5126,
			"count":1734,
			"type":"VEC3"
		},
		{
			"bufferView":2,
			"componentType":5126,
			"count":1734,
			"type":"VEC2"
		},
		{
			"bufferView":3,
			"componentType":5121,
			"count":1734,
			"type":"VEC4"
		},
		{
			"bufferView":4,
			"componentType":5126,
			"count":1734,
			"type":"VEC4"
		},
		{
			"bufferView":5,
			"componentType":5123,
			"count":6939,
			"type":"SCALAR"
		},
		{
			"bufferView":6,
			"componentType":5126,
			"count":6,
			"type":"MAT4"
		},
		{
			"bufferView":7,
			"componentType":5126,
			"count":2,
			"max":[
				1.125
			],
			"min":[
				0
			],
			"type":"SCALAR"
		},
		{
			"bufferView":8,
			"componentType":5126,
			"count":2,
			"type":"VEC3"
		},
		{
			"bufferView":9,
			"componentType":5126,
			"count":2,
			"type":"VEC4"
		},
		{
			"bufferView":10,
			"componentType":5126,
			"count":2,
			"type":"VEC3"
		},
		{
			"bufferView":11,
			"componentType":5126,
			"count":2,
			"type":"VEC3"
		},
		{
			"bufferView":12,
			"componentType":5126,
			"count":28,
			"max":[
				1.125
			],
			"min":[
				0
			],
			"type":"SCALAR"
		},
		{
			"bufferView":13,
			"componentType":5126,
			"count":28,
			"type":"VEC4"
		},
		{
			"bufferView":14,
			"componentType":5126,
			"count":2,
			"type":"VEC3"
		},
		{
			"bufferView":15,
			"componentType":5126,
			"count":2,
			"type":"VEC3"
		},
		{
			"bufferView":16,
			"componentType":5126,
			"count":2,
			"type":"VEC4"
		},
		{
			"bufferView":17,
			"componentType":5126,
			"count":2,
			"type":"VEC3"
		},
		{
			"bufferView":18,
			"componentType":5126,
			"count":2,
			"type":"VEC3"
		},
		{
			"bufferView":19,
			"componentType":5126,
			"count":28,
			"type":"VEC4"
		},
		{
			"bufferView":20,
			"componentType":5126,
			"count":2,
			"type":"VEC3"
		},
		{
			"bufferView":21,
			"componentType":5126,
			"count":2,
			"type":"VEC3"
		},
		{
			"bufferView":22,
			"componentType":5126,
			"count":28,
			"type":"VEC4"
		},
		{
			"bufferView":23,
			"componentType":5126,
			"count":2,
			"type":"VEC3"
		},
		{
			"bufferView":24,
			"componentType":5126,
			"count":2,
			"type":"VEC3"
		},
		{
			"bufferView":25,
			"componentType":5126,
			"count":28,
			"type":"VEC4"
		},
		{
			"bufferView":26,
			"componentType":5126,
			"count":2,
			"type":"VEC3"
		}
	],
	"bufferViews":[
		{
			"buffer":0,
			"byteLength":20808,
			"byteOffset":0,
			"target":34962
		},
		{
			"buffer":0,
			"byteLength":20808,
			"byteOffset":20808,
			"target":34962
		},
		{
			"buffer":0,
			"byteLength":13872,
			"byteOffset":41616,
			"target":34962
		},
		{
			"buffer":0,
			"byteLength":6936,
			"byteOffset":55488,
			"target":34962
		},
		{
			"buffer":0,
			"byteLength":27744,
			"byteOffset":62424,
			"target":34962
		},
		{
			"buffer":0,
			"byteLength":13878,
			"byteOffset":90168,
			"target":34963
		},
		{
			"buffer":0,
			"byteLength":384,
			"byteOffset":104048
		},
		{
			"buffer":0,
			"byteLength":8,
			"byteOffset":104432
		},
		{
			"buffer":0,
			"byteLength":24,
			"byteOffset":104440
		},
		{
			"buffer":0,
			"byteLength":32,
			"byteOffset":104464
		},
		{
			"buffer":0,
			"byteLength":24,
			"byteOffset":104496
		},
		{
			"buffer":0,
			"byteLength":24,
			"byteOffset":104520
		},
		{
			"buffer":0,
			"byteLength":112,
			"byteOffset":104544
		},
		{
			"buffer":0,
			"byteLength":448,
			"byteOffset":104656
		},
		{
			"buffer":0,
			"byteLength":24,
			"byteOffset":105104
		},
		{
			"buffer":0,
			"byteLength":24,
			"byteOffset":105128
		},
		{
			"buffer":0,
			"byteLength":32,
			"byteOffset":105152
		},
		{
			"buffer":0,
			"byteLength":24,
			"byteOffset":105184
		},
		{
			"buffer":0,
			"byteLength":24,
			"byteOffset":105208
		},
		{
			"buffer":0,
			"byteLength":448,
			"byteOffset":105232
		},
		{
			"buffer":0,
			"byteLength":24,
			"byteOffset":105680
		},
		{
			"buffer":0,
			"byteLength":24,
			"byteOffset":105704
		},
		{
			"buffer":0,
			"byteLength":448,
			"byteOffset":105728
		},
		{
			"buffer":0,
			"byteLength":24,
			"byteOffset":106176
		},
		{
			"buffer":0,
			"byteLength":24,
			"byteOffset":106200
		},
		{
			"buffer":0,
			"byteLength":448,
			"byteOffset":106224
		},
		{
			"buffer":0,
			"byteLength":24,
			"byteOffset":106672
		}
	],
	"samplers":[
		{
			"magFilter":9729,
			"minFilter":9987
		}
	],
	"buffers":[
		{
			"byteLength":106696,
			"uri":"PlayerWalk.bin"
		}
	]
}
