{
	"asset":{
		"generator":"Khronos glTF Blender I/O v4.4.56",
		"version":"2.0"
	},
	"scene":0,
	"scenes":[
		{
			"name":"Scene",
			"nodes":[
				7
			]
		}
	],
	"nodes":[
		{
			"name":"\u30dc\u30fc\u30f3.001",
			"rotation":[
				0.6905996799468994,
				0.0028692008927464485,
				-0.12581582367420197,
				0.7122038006782532
			],
			"scale":[
				0.9999998807907104,
				1,
				0.9999999403953552
			],
			"translation":[
				3.172065055068174e-09,
				0.824781596660614,
				7.473319177581962e-15
			]
		},
		{
			"name":"\u30dc\u30fc\u30f3.002",
			"rotation":[
				-0.7041409015655518,
				9.628795396565692e-07,
				-0.133106529712677,
				0.6974727511405945
			],
			"scale":[
				0.9999999403953552,
				1.0000001192092896,
				1
			],
			"translation":[
				3.172065055068174e-09,
				0.824781596660614,
				7.473319177581962e-15
			]
		},
		{
			"name":"\u30dc\u30fc\u30f3.003",
			"rotation":[
				0.43065088987350464,
				-3.6957490578970464e-07,
				-0.5644762516021729,
				0.7042062282562256
			],
			"scale":[
				1,
				0.9999999403953552,
				1
			],
			"translation":[
				3.172065055068174e-09,
				0.824781596660614,
				7.473319177581962e-15
			]
		},
		{
			"name":"\u30dc\u30fc\u30f3.004",
			"rotation":[
				-0.440428763628006,
				2.455264620948583e-06,
				-0.5644230842590332,
				0.6981756687164307
			],
			"translation":[
				3.172065055068174e-09,
				0.824781596660614,
				7.473319177581962e-15
			]
		},
		{
			"children":[
				0,
				1,
				2,
				3
			],
			"name":"\u30dc\u30fc\u30f3",
			"rotation":[
				4.1004614814710294e-08,
				4.100461836742397e-08,
				-0.7071067094802856,
				0.7071068286895752
			],
			"scale":[
				0.9999998807907104,
				0.9999997615814209,
				0.9999999403953552
			],
			"translation":[
				-0.7808879017829895,
				0.5246371030807495,
				0
			]
		},
		{
			"mesh":0,
			"name":"RightHand.004",
			"skin":0
		},
		{
			"mesh":1,
			"name":"RightHand.007",
			"skin":0
		},
		{
			"children":[
				5,
				6,
				4
			],
			"name":"\u30a2\u30fc\u30de\u30c1\u30e5\u30a2"
		}
	],
	"animations":[
		{
			"channels":[
				{
					"sampler":0,
					"target":{
						"node":4,
						"path":"translation"
					}
				},
				{
					"sampler":1,
					"target":{
						"node":4,
						"path":"rotation"
					}
				},
				{
					"sampler":2,
					"target":{
						"node":4,
						"path":"scale"
					}
				},
				{
					"sampler":3,
					"target":{
						"node":0,
						"path":"translation"
					}
				},
				{
					"sampler":4,
					"target":{
						"node":0,
						"path":"rotation"
					}
				},
				{
					"sampler":5,
					"target":{
						"node":0,
						"path":"scale"
					}
				},
				{
					"sampler":6,
					"target":{
						"node":1,
						"path":"translation"
					}
				},
				{
					"sampler":7,
					"target":{
						"node":1,
						"path":"rotation"
					}
				},
				{
					"sampler":8,
					"target":{
						"node":1,
						"path":"scale"
					}
				},
				{
					"sampler":9,
					"target":{
						"node":2,
						"path":"translation"
					}
				},
				{
					"sampler":10,
					"target":{
						"node":2,
						"path":"rotation"
					}
				},
				{
					"sampler":11,
					"target":{
						"node":2,
						"path":"scale"
					}
				},
				{
					"sampler":12,
					"target":{
						"node":3,
						"path":"translation"
					}
				},
				{
					"sampler":13,
					"target":{
						"node":3,
						"path":"rotation"
					}
				},
				{
					"sampler":14,
					"target":{
						"node":3,
						"path":"scale"
					}
				}
			],
			"name":"\u6b69\u304d",
			"samplers":[
				{
					"input":13,
					"interpolation":"STEP",
					"output":14
				},
				{
					"input":13,
					"interpolation":"STEP",
					"output":15
				},
				{
					"input":13,
					"interpolation":"STEP",
					"output":16
				},
				{
					"input":13,
					"interpolation":"STEP",
					"output":17
				},
				{
					"input":18,
					"interpolation":"LINEAR",
					"output":19
				},
				{
					"input":13,
					"interpolation":"STEP",
					"output":20
				},
				{
					"input":13,
					"interpolation":"STEP",
					"output":21
				},
				{
					"input":18,
					"interpolation":"LINEAR",
					"output":22
				},
				{
					"input":13,
					"interpolation":"STEP",
					"output":23
				},
				{
					"input":13,
					"interpolation":"STEP",
					"output":24
				},
				{
					"input":18,
					"interpolation":"LINEAR",
					"output":25
				},
				{
					"input":13,
					"interpolation":"STEP",
					"output":26
				},
				{
					"input":13,
					"interpolation":"STEP",
					"output":27
				},
				{
					"input":18,
					"interpolation":"LINEAR",
					"output":28
				},
				{
					"input":13,
					"interpolation":"STEP",
					"output":29
				}
			]
		},
		{
			"channels":[
				{
					"sampler":0,
					"target":{
						"node":4,
						"path":"translation"
					}
				},
				{
					"sampler":1,
					"target":{
						"node":4,
						"path":"rotation"
					}
				},
				{
					"sampler":2,
					"target":{
						"node":4,
						"path":"scale"
					}
				},
				{
					"sampler":3,
					"target":{
						"node":0,
						"path":"translation"
					}
				},
				{
					"sampler":4,
					"target":{
						"node":0,
						"path":"rotation"
					}
				},
				{
					"sampler":5,
					"target":{
						"node":0,
						"path":"scale"
					}
				},
				{
					"sampler":6,
					"target":{
						"node":1,
						"path":"translation"
					}
				},
				{
					"sampler":7,
					"target":{
						"node":1,
						"path":"rotation"
					}
				},
				{
					"sampler":8,
					"target":{
						"node":1,
						"path":"scale"
					}
				},
				{
					"sampler":9,
					"target":{
						"node":2,
						"path":"translation"
					}
				},
				{
					"sampler":10,
					"target":{
						"node":2,
						"path":"rotation"
					}
				},
				{
					"sampler":11,
					"target":{
						"node":2,
						"path":"scale"
					}
				},
				{
					"sampler":12,
					"target":{
						"node":3,
						"path":"translation"
					}
				},
				{
					"sampler":13,
					"target":{
						"node":3,
						"path":"rotation"
					}
				},
				{
					"sampler":14,
					"target":{
						"node":3,
						"path":"scale"
					}
				}
			],
			"name":"\u7a7a\u4e2d",
			"samplers":[
				{
					"input":30,
					"interpolation":"LINEAR",
					"output":31
				},
				{
					"input":30,
					"interpolation":"LINEAR",
					"output":32
				},
				{
					"input":30,
					"interpolation":"LINEAR",
					"output":33
				},
				{
					"input":30,
					"interpolation":"LINEAR",
					"output":34
				},
				{
					"input":30,
					"interpolation":"LINEAR",
					"output":35
				},
				{
					"input":30,
					"interpolation":"LINEAR",
					"output":36
				},
				{
					"input":30,
					"interpolation":"LINEAR",
					"output":37
				},
				{
					"input":30,
					"interpolation":"LINEAR",
					"output":38
				},
				{
					"input":30,
					"interpolation":"LINEAR",
					"output":39
				},
				{
					"input":30,
					"interpolation":"LINEAR",
					"output":40
				},
				{
					"input":30,
					"interpolation":"LINEAR",
					"output":41
				},
				{
					"input":30,
					"interpolation":"LINEAR",
					"output":42
				},
				{
					"input":30,
					"interpolation":"LINEAR",
					"output":43
				},
				{
					"input":30,
					"interpolation":"LINEAR",
					"output":44
				},
				{
					"input":30,
					"interpolation":"LINEAR",
					"output":45
				}
			]
		},
		{
			"channels":[
				{
					"sampler":0,
					"target":{
						"node":4,
						"path":"translation"
					}
				},
				{
					"sampler":1,
					"target":{
						"node":4,
						"path":"rotation"
					}
				},
				{
					"sampler":2,
					"target":{
						"node":4,
						"path":"scale"
					}
				},
				{
					"sampler":3,
					"target":{
						"node":0,
						"path":"translation"
					}
				},
				{
					"sampler":4,
					"target":{
						"node":0,
						"path":"rotation"
					}
				},
				{
					"sampler":5,
					"target":{
						"node":0,
						"path":"scale"
					}
				},
				{
					"sampler":6,
					"target":{
						"node":1,
						"path":"translation"
					}
				},
				{
					"sampler":7,
					"target":{
						"node":1,
						"path":"rotation"
					}
				},
				{
					"sampler":8,
					"target":{
						"node":1,
						"path":"scale"
					}
				},
				{
					"sampler":9,
					"target":{
						"node":2,
						"path":"translation"
					}
				},
				{
					"sampler":10,
					"target":{
						"node":2,
						"path":"rotation"
					}
				},
				{
					"sampler":11,
					"target":{
						"node":2,
						"path":"scale"
					}
				},
				{
					"sampler":12,
					"target":{
						"node":3,
						"path":"translation"
					}
				},
				{
					"sampler":13,
					"target":{
						"node":3,
						"path":"rotation"
					}
				},
				{
					"sampler":14,
					"target":{
						"node":3,
						"path":"scale"
					}
				}
			],
			"name":"\u7a81\u9032",
			"samplers":[
				{
					"input":46,
					"interpolation":"STEP",
					"output":47
				},
				{
					"input":48,
					"interpolation":"LINEAR",
					"output":49
				},
				{
					"input":46,
					"interpolation":"STEP",
					"output":50
				},
				{
					"input":46,
					"interpolation":"LINEAR",
					"output":51
				},
				{
					"input":48,
					"interpolation":"LINEAR",
					"output":52
				},
				{
					"input":48,
					"interpolation":"LINEAR",
					"output":53
				},
				{
					"input":46,
					"interpolation":"LINEAR",
					"output":54
				},
				{
					"input":48,
					"interpolation":"LINEAR",
					"output":55
				},
				{
					"input":46,
					"interpolation":"LINEAR",
					"output":56
				},
				{
					"input":46,
					"interpolation":"LINEAR",
					"output":57
				},
				{
					"input":48,
					"interpolation":"LINEAR",
					"output":58
				},
				{
					"input":46,
					"interpolation":"STEP",
					"output":59
				},
				{
					"input":46,
					"interpolation":"LINEAR",
					"output":60
				},
				{
					"input":48,
					"interpolation":"LINEAR",
					"output":61
				},
				{
					"input":46,
					"interpolation":"LINEAR",
					"output":62
				}
			]
		}
	],
	"meshes":[
		{
			"name":"\u7403.003",
			"primitives":[
				{
					"attributes":{
						"POSITION":0,
						"NORMAL":1,
						"TEXCOORD_0":2,
						"JOINTS_0":3,
						"WEIGHTS_0":4
					},
					"indices":5
				}
			]
		},
		{
			"name":"\u7403.006",
			"primitives":[
				{
					"attributes":{
						"POSITION":7,
						"NORMAL":8,
						"TEXCOORD_0":9,
						"JOINTS_0":10,
						"WEIGHTS_0":11
					},
					"indices":12
				}
			]
		}
	],
	"skins":[
		{
			"inverseBindMatrices":6,
			"joints":[
				4,
				0,
				1,
				2,
				3
			],
			"name":"\u30a2\u30fc\u30de\u30c1\u30e5\u30a2"
		}
	],
	"accessors":[
		{
			"bufferView":0,
			"componentType":5126,
			"count":1437,
			"max":[
				0.9879006743431091,
				1.481763482093811,
				1.6003185510635376
			],
			"min":[
				-0.9882190823554993,
				-0.5813757181167603,
				-1.6143946647644043
			],
			"type":"VEC3"
		},
		{
			"bufferView":1,
			"componentType":5126,
			"count":1437,
			"type":"VEC3"
		},
		{
			"bufferView":2,
			"componentType":5126,
			"count":1437,
			"type":"VEC2"
		},
		{
			"bufferView":3,
			"componentType":5121,
			"count":1437,
			"type":"VEC4"
		},
		{
			"bufferView":4,
			"componentType":5126,
			"count":1437,
			"type":"VEC4"
		},
		{
			"bufferView":5,
			"componentType":5123,
			"count":6138,
			"type":"SCALAR"
		},
		{
			"bufferView":6,
			"componentType":5126,
			"count":5,
			"type":"MAT4"
		},
		{
			"bufferView":7,
			"componentType":5126,
			"count":297,
			"max":[
				0.32542720437049866,
				2.8886537551879883,
				2.263192892074585
			],
			"min":[
				-0.19354933500289917,
				-2.0455269813537598,
				0.04981723427772522
			],
			"type":"VEC3"
		},
		{
			"bufferView":8,
			"componentType":5126,
			"count":297,
			"type":"VEC3"
		},
		{
			"bufferView":9,
			"componentType":5126,
			"count":297,
			"type":"VEC2"
		},
		{
			"bufferView":10,
			"componentType":5121,
			"count":297,
			"type":"VEC4"
		},
		{
			"bufferView":11,
			"componentType":5126,
			"count":297,
			"type":"VEC4"
		},
		{
			"bufferView":12,
			"componentType":5123,
			"count":804,
			"type":"SCALAR"
		},
		{
			"bufferView":13,
			"componentType":5126,
			"count":2,
			"max":[
				1.25
			],
			"min":[
				0.041666666666666664
			],
			"type":"SCALAR"
		},
		{
			"bufferView":14,
			"componentType":5126,
			"count":2,
			"type":"VEC3"
		},
		{
			"bufferView":15,
			"componentType":5126,
			"count":2,
			"type":"VEC4"
		},
		{
			"bufferView":16,
			"componentType":5126,
			"count":2,
			"type":"VEC3"
		},
		{
			"bufferView":17,
			"componentType":5126,
			"count":2,
			"type":"VEC3"
		},
		{
			"bufferView":18,
			"componentType":5126,
			"count":30,
			"max":[
				1.25
			],
			"min":[
				0.041666666666666664
			],
			"type":"SCALAR"
		},
		{
			"bufferView":19,
			"componentType":5126,
			"count":30,
			"type":"VEC4"
		},
		{
			"bufferView":20,
			"componentType":5126,
			"count":2,
			"type":"VEC3"
		},
		{
			"bufferView":21,
			"componentType":5126,
			"count":2,
			"type":"VEC3"
		},
		{
			"bufferView":22,
			"componentType":5126,
			"count":30,
			"type":"VEC4"
		},
		{
			"bufferView":23,
			"componentType":5126,
			"count":2,
			"type":"VEC3"
		},
		{
			"bufferView":24,
			"componentType":5126,
			"count":2,
			"type":"VEC3"
		},
		{
			"bufferView":25,
			"componentType":5126,
			"count":30,
			"type":"VEC4"
		},
		{
			"bufferView":26,
			"componentType":5126,
			"count":2,
			"type":"VEC3"
		},
		{
			"bufferView":27,
			"componentType":5126,
			"count":2,
			"type":"VEC3"
		},
		{
			"bufferView":28,
			"componentType":5126,
			"count":30,
			"type":"VEC4"
		},
		{
			"bufferView":29,
			"componentType":5126,
			"count":2,
			"type":"VEC3"
		},
		{
			"bufferView":30,
			"componentType":5126,
			"count":1,
			"max":[
				0.041666666666666664
			],
			"min":[
				0.041666666666666664
			],
			"type":"SCALAR"
		},
		{
			"bufferView":31,
			"componentType":5126,
			"count":1,
			"type":"VEC3"
		},
		{
			"bufferView":32,
			"componentType":5126,
			"count":1,
			"type":"VEC4"
		},
		{
			"bufferView":33,
			"componentType":5126,
			"count":1,
			"type":"VEC3"
		},
		{
			"bufferView":34,
			"componentType":5126,
			"count":1,
			"type":"VEC3"
		},
		{
			"bufferView":35,
			"componentType":5126,
			"count":1,
			"type":"VEC4"
		},
		{
			"bufferView":36,
			"componentType":5126,
			"count":1,
			"type":"VEC3"
		},
		{
			"bufferView":37,
			"componentType":5126,
			"count":1,
			"type":"VEC3"
		},
		{
			"bufferView":38,
			"componentType":5126,
			"count":1,
			"type":"VEC4"
		},
		{
			"bufferView":39,
			"componentType":5126,
			"count":1,
			"type":"VEC3"
		},
		{
			"bufferView":40,
			"componentType":5126,
			"count":1,
			"type":"VEC3"
		},
		{
			"bufferView":41,
			"componentType":5126,
			"count":1,
			"type":"VEC4"
		},
		{
			"bufferView":42,
			"componentType":5126,
			"count":1,
			"type":"VEC3"
		},
		{
			"bufferView":43,
			"componentType":5126,
			"count":1,
			"type":"VEC3"
		},
		{
			"bufferView":44,
			"componentType":5126,
			"count":1,
			"type":"VEC4"
		},
		{
			"bufferView":45,
			"componentType":5126,
			"count":1,
			"type":"VEC3"
		},
		{
			"bufferView":46,
			"componentType":5126,
			"count":2,
			"max":[
				1.0416666666666667
			],
			"min":[
				0.041666666666666664
			],
			"type":"SCALAR"
		},
		{
			"bufferView":47,
			"componentType":5126,
			"count":2,
			"type":"VEC3"
		},
		{
			"bufferView":48,
			"componentType":5126,
			"count":25,
			"max":[
				1.0416666666666667
			],
			"min":[
				0.041666666666666664
			],
			"type":"SCALAR"
		},
		{
			"bufferView":49,
			"componentType":5126,
			"count":25,
			"type":"VEC4"
		},
		{
			"bufferView":50,
			"componentType":5126,
			"count":2,
			"type":"VEC3"
		},
		{
			"bufferView":51,
			"componentType":5126,
			"count":2,
			"type":"VEC3"
		},
		{
			"bufferView":52,
			"componentType":5126,
			"count":25,
			"type":"VEC4"
		},
		{
			"bufferView":53,
			"componentType":5126,
			"count":25,
			"type":"VEC3"
		},
		{
			"bufferView":54,
			"componentType":5126,
			"count":2,
			"type":"VEC3"
		},
		{
			"bufferView":55,
			"componentType":5126,
			"count":25,
			"type":"VEC4"
		},
		{
			"bufferView":56,
			"componentType":5126,
			"count":2,
			"type":"VEC3"
		},
		{
			"bufferView":57,
			"componentType":5126,
			"count":2,
			"type":"VEC3"
		},
		{
			"bufferView":58,
			"componentType":5126,
			"count":25,
			"type":"VEC4"
		},
		{
			"bufferView":59,
			"componentType":5126,
			"count":2,
			"type":"VEC3"
		},
		{
			"bufferView":60,
			"componentType":5126,
			"count":2,
			"type":"VEC3"
		},
		{
			"bufferView":61,
			"componentType":5126,
			"count":25,
			"type":"VEC4"
		},
		{
			"bufferView":62,
			"componentType":5126,
			"count":2,
			"type":"VEC3"
		}
	],
	"bufferViews":[
		{
			"buffer":0,
			"byteLength":17244,
			"byteOffset":0,
			"target":34962
		},
		{
			"buffer":0,
			"byteLength":17244,
			"byteOffset":17244,
			"target":34962
		},
		{
			"buffer":0,
			"byteLength":11496,
			"byteOffset":34488,
			"target":34962
		},
		{
			"buffer":0,
			"byteLength":5748,
			"byteOffset":45984,
			"target":34962
		},
		{
			"buffer":0,
			"byteLength":22992,
			"byteOffset":51732,
			"target":34962
		},
		{
			"buffer":0,
			"byteLength":12276,
			"byteOffset":74724,
			"target":34963
		},
		{
			"buffer":0,
			"byteLength":320,
			"byteOffset":87000
		},
		{
			"buffer":0,
			"byteLength":3564,
			"byteOffset":87320,
			"target":34962
		},
		{
			"buffer":0,
			"byteLength":3564,
			"byteOffset":90884,
			"target":34962
		},
		{
			"buffer":0,
			"byteLength":2376,
			"byteOffset":94448,
			"target":34962
		},
		{
			"buffer":0,
			"byteLength":1188,
			"byteOffset":96824,
			"target":34962
		},
		{
			"buffer":0,
			"byteLength":4752,
			"byteOffset":98012,
			"target":34962
		},
		{
			"buffer":0,
			"byteLength":1608,
			"byteOffset":102764,
			"target":34963
		},
		{
			"buffer":0,
			"byteLength":8,
			"byteOffset":104372
		},
		{
			"buffer":0,
			"byteLength":24,
			"byteOffset":104380
		},
		{
			"buffer":0,
			"byteLength":32,
			"byteOffset":104404
		},
		{
			"buffer":0,
			"byteLength":24,
			"byteOffset":104436
		},
		{
			"buffer":0,
			"byteLength":24,
			"byteOffset":104460
		},
		{
			"buffer":0,
			"byteLength":120,
			"byteOffset":104484
		},
		{
			"buffer":0,
			"byteLength":480,
			"byteOffset":104604
		},
		{
			"buffer":0,
			"byteLength":24,
			"byteOffset":105084
		},
		{
			"buffer":0,
			"byteLength":24,
			"byteOffset":105108
		},
		{
			"buffer":0,
			"byteLength":480,
			"byteOffset":105132
		},
		{
			"buffer":0,
			"byteLength":24,
			"byteOffset":105612
		},
		{
			"buffer":0,
			"byteLength":24,
			"byteOffset":105636
		},
		{
			"buffer":0,
			"byteLength":480,
			"byteOffset":105660
		},
		{
			"buffer":0,
			"byteLength":24,
			"byteOffset":106140
		},
		{
			"buffer":0,
			"byteLength":24,
			"byteOffset":106164
		},
		{
			"buffer":0,
			"byteLength":480,
			"byteOffset":106188
		},
		{
			"buffer":0,
			"byteLength":24,
			"byteOffset":106668
		},
		{
			"buffer":0,
			"byteLength":4,
			"byteOffset":106692
		},
		{
			"buffer":0,
			"byteLength":12,
			"byteOffset":106696
		},
		{
			"buffer":0,
			"byteLength":16,
			"byteOffset":106708
		},
		{
			"buffer":0,
			"byteLength":12,
			"byteOffset":106724
		},
		{
			"buffer":0,
			"byteLength":12,
			"byteOffset":106736
		},
		{
			"buffer":0,
			"byteLength":16,
			"byteOffset":106748
		},
		{
			"buffer":0,
			"byteLength":12,
			"byteOffset":106764
		},
		{
			"buffer":0,
			"byteLength":12,
			"byteOffset":106776
		},
		{
			"buffer":0,
			"byteLength":16,
			"byteOffset":106788
		},
		{
			"buffer":0,
			"byteLength":12,
			"byteOffset":106804
		},
		{
			"buffer":0,
			"byteLength":12,
			"byteOffset":106816
		},
		{
			"buffer":0,
			"byteLength":16,
			"byteOffset":106828
		},
		{
			"buffer":0,
			"byteLength":12,
			"byteOffset":106844
		},
		{
			"buffer":0,
			"byteLength":12,
			"byteOffset":106856
		},
		{
			"buffer":0,
			"byteLength":16,
			"byteOffset":106868
		},
		{
			"buffer":0,
			"byteLength":12,
			"byteOffset":106884
		},
		{
			"buffer":0,
			"byteLength":8,
			"byteOffset":106896
		},
		{
			"buffer":0,
			"byteLength":24,
			"byteOffset":106904
		},
		{
			"buffer":0,
			"byteLength":100,
			"byteOffset":106928
		},
		{
			"buffer":0,
			"byteLength":400,
			"byteOffset":107028
		},
		{
			"buffer":0,
			"byteLength":24,
			"byteOffset":107428
		},
		{
			"buffer":0,
			"byteLength":24,
			"byteOffset":107452
		},
		{
			"buffer":0,
			"byteLength":400,
			"byteOffset":107476
		},
		{
			"buffer":0,
			"byteLength":300,
			"byteOffset":107876
		},
		{
			"buffer":0,
			"byteLength":24,
			"byteOffset":108176
		},
		{
			"buffer":0,
			"byteLength":400,
			"byteOffset":108200
		},
		{
			"buffer":0,
			"byteLength":24,
			"byteOffset":108600
		},
		{
			"buffer":0,
			"byteLength":24,
			"byteOffset":108624
		},
		{
			"buffer":0,
			"byteLength":400,
			"byteOffset":108648
		},
		{
			"buffer":0,
			"byteLength":24,
			"byteOffset":109048
		},
		{
			"buffer":0,
			"byteLength":24,
			"byteOffset":109072
		},
		{
			"buffer":0,
			"byteLength":400,
			"byteOffset":109096
		},
		{
			"buffer":0,
			"byteLength":24,
			"byteOffset":109496
		}
	],
	"buffers":[
		{
			"byteLength":109520,
			"uri":"PlayerWalk.bin"
		}
	]
}
