# Blender 4.4.1
# www.blender.org
mtllib BossEgg.mtl
o 球.004
v -0.087589 1.704677 -0.889325
v -0.007767 1.193142 -1.000241
v 0.105928 0.843367 -0.976834
v -0.058374 2.450691 -0.192431
v 0.052130 2.225536 -0.554053
v 0.111010 1.970179 -0.756652
v 0.284813 1.077845 -0.964135
v 0.049435 0.536162 -0.882245
v -0.114002 0.082629 -0.375815
v 0.077491 0.028703 -0.187080
v 0.394352 1.833910 -0.734022
v 0.253644 1.489054 -0.922976
v 0.268691 0.640752 -0.885757
v 0.126805 2.449531 -0.154512
v 0.154851 2.360909 -0.354722
v 0.312014 2.143007 -0.559592
v 0.476643 1.438250 -0.843450
v 0.496003 0.950205 -0.871473
v 0.439237 0.524998 -0.762121
v 0.215459 0.226381 -0.593439
v 0.443491 0.227939 -0.450279
v 0.352533 2.368756 -0.150027
v 0.679497 1.741634 -0.557649
v 0.775539 1.228357 -0.636468
v 0.762574 0.851808 -0.625828
v 0.689261 0.537799 -0.555742
v 0.499772 2.170131 -0.366452
v 0.881885 1.592067 -0.284498
v 0.690299 0.364894 -0.341137
v 0.269775 0.083074 -0.274317
v 0.747514 1.947817 -0.215894
v 0.957087 1.224585 -0.304630
v 0.916946 0.726176 -0.286423
v 0.549435 2.229505 -0.054114
v 0.961392 1.463867 0.095594
v 0.997785 1.098343 -0.108642
v 0.779216 0.380203 -0.072813
v 0.550344 0.178700 -0.095305
v 0.522017 2.224593 0.205694
v 0.825919 1.840319 0.088260
v 0.996034 0.956514 0.100609
v 0.924022 0.640791 0.074673
v 0.694833 2.054971 0.141658
v 0.937399 0.843367 0.294465
v 0.845518 0.533567 0.254062
v 0.200652 2.450648 0.025614
v 0.727901 1.833079 0.405642
v 0.857714 1.498551 0.420918
v 0.889986 1.098342 0.464007
v 0.728266 0.458973 0.405845
v 0.603586 0.242241 0.238631
v 0.119533 0.011257 0.011773
v 0.345238 2.362621 0.181470
v 0.755205 1.329603 0.633343
v 0.772277 0.956514 0.637020
v 0.726810 0.640791 0.575447
v 0.369178 0.079267 0.111989
v 0.454679 2.151566 0.445341
v 0.268245 2.054972 0.656433
v 0.580368 1.731506 0.665168
v 0.549079 1.215834 0.836188
v 0.615822 0.843367 0.765630
v 0.509415 0.362503 0.571560
v 0.384998 0.178700 0.404646
v 0.033790 2.451634 0.200651
v 0.409022 1.703218 0.793554
v 0.367270 1.206467 0.930415
v 0.442723 0.709498 0.847252
v 0.380056 0.458973 0.742050
v 0.143805 2.362407 0.357300
v 0.118786 1.739311 0.872124
v 0.149208 0.246183 0.637281
v 0.081929 1.207032 1.001640
v 0.097401 0.851481 0.980246
v 0.090274 0.544290 0.885179
v 0.060449 2.239064 0.548081
v -0.247692 1.840319 0.792831
v -0.081676 1.601835 0.919386
v -0.119531 0.180932 0.548459
v -0.116516 2.364322 0.368337
v -0.129141 2.060462 0.691926
v -0.368406 1.461985 0.888654
v -0.267336 1.181412 0.967463
v -0.293070 0.860271 0.942734
v -0.255341 0.544290 0.852345
v 0.028606 0.082068 0.388562
v -0.255332 0.301592 0.662579
v -0.000000 2.480576 0.000001
v -0.298329 2.228158 0.471461
v -0.560596 1.723834 0.686519
v -0.644642 1.196831 0.773025
v -0.603284 0.726176 0.747580
v -0.540123 0.458973 0.635096
v -0.000000 0.026608 0.202383
v -0.489224 2.053615 0.514191
v -0.842148 1.453907 0.476682
v -0.766122 0.527176 0.434767
v -0.541686 0.302657 0.453083
v -0.741679 1.833079 0.379866
v -0.885906 1.109285 0.473527
v -0.873845 0.860271 0.459382
v -0.424125 0.168295 0.348071
v -0.342843 2.364322 0.178064
v -0.679144 2.047649 0.206016
v -0.881885 1.592067 0.284499
v -1.000277 1.206967 0.098547
v -0.882261 0.640791 0.284620
v -0.616050 0.228243 0.149884
v -0.324723 0.082404 0.206951
v -0.528325 2.234822 0.176667
v -0.872309 1.746104 0.061441
v -0.981533 0.851885 0.079320
v -0.875955 0.527932 0.060674
v -0.753504 1.972233 -0.113539
v -0.964134 1.077845 -0.284813
v -0.589835 2.060462 -0.384099
v -0.924269 1.463869 -0.281315
v -0.921540 0.726175 -0.271276
v -0.793486 0.454298 -0.248325
v -0.693626 0.295837 -0.127953
v -0.199707 2.455205 0.033414
v -0.368159 2.365310 -0.107811
v -0.734021 1.833911 -0.394352
v -0.776685 1.088160 -0.637393
v -0.808457 0.735767 -0.517069
v -0.517201 0.178066 -0.209080
v -0.366965 0.085110 -0.114680
v -0.498229 2.231242 -0.260781
v -0.746258 1.463869 -0.613604
v -0.600850 0.385979 -0.507246
v -0.148052 2.368448 -0.357428
v -0.483407 1.966766 -0.594773
v -0.624900 0.734686 -0.733928
v -0.379865 1.833079 -0.741678
v -0.479313 1.498553 -0.826500
v -0.482208 1.098343 -0.880257
v -0.375833 0.357748 -0.663567
v -0.313878 0.178066 -0.461185
v -0.190032 0.023913 -0.057645
v -0.210422 2.235711 -0.508002
v -0.207697 2.048213 -0.677183
v -0.257712 1.242633 -0.965832
v -0.280077 0.860270 -0.946674
v -0.261229 0.544290 -0.850559
v -0.068507 0.235668 -0.635412
vn 0.1348 -0.3141 -0.9398
vn 0.0898 -0.6530 -0.7520
vn 0.1361 0.3595 -0.9232
vn 0.0415 0.2179 -0.9751
vn 0.0262 0.8889 -0.4573
vn 0.3021 -0.1798 -0.9362
vn 0.2244 0.7485 -0.6240
vn 0.2370 -0.5243 -0.8179
vn 0.1129 -0.8991 -0.4230
vn 0.0400 0.9855 -0.1652
vn 0.3820 0.3193 -0.8672
vn 0.4354 0.0688 -0.8976
vn 0.4327 -0.2783 -0.8575
vn 0.4027 -0.6600 -0.6342
vn 0.3223 0.8815 -0.3450
vn 0.5714 0.3270 -0.7527
vn 0.5787 -0.6337 -0.5134
vn 0.8216 -0.3000 -0.4847
vn 0.8115 -0.4532 -0.3690
vn 0.5952 -0.2738 -0.7555
vn 0.5568 -0.7833 -0.2763
vn 0.2146 -0.9680 -0.1303
vn 0.1559 0.9853 -0.0700
vn 0.3813 -0.9182 -0.1072
vn 0.6358 0.7334 -0.2405
vn 0.8369 -0.4872 -0.2495
vn 0.7996 0.5974 -0.0612
vn 0.9811 -0.1639 -0.1029
vn 0.9961 0.0686 0.0548
vn 0.4984 0.8665 0.0270
vn 0.8554 -0.5135 0.0674
vn 0.7574 -0.6367 0.1451
vn 0.8498 0.4511 0.2727
vn 0.9261 -0.3038 0.2237
vn 0.8703 -0.1501 0.4691
vn 0.7159 0.5860 0.3797
vn 0.6117 -0.6729 0.4161
vn 0.6585 0.4941 0.5677
vn 0.7635 0.3218 0.5600
vn 0.1848 -0.9635 0.1935
vn 0.8094 0.0428 0.5857
vn 0.1315 0.9841 0.1198
vn 0.5362 0.7535 0.3803
vn 0.6500 -0.5156 0.5583
vn 0.2785 0.9055 0.3202
vn 0.6045 -0.3435 0.7187
vn 0.2369 -0.9237 0.3010
vn 0.6900 0.0387 0.7228
vn 0.4748 0.4781 0.7390
vn 0.4422 0.2035 0.8735
vn 0.3198 0.7258 0.6090
vn 0.3389 -0.6851 0.6448
vn 0.2852 0.4450 0.8489
vn 0.0268 0.8766 0.4805
vn 0.0808 0.5718 0.8164
vn -0.0699 0.4465 0.8920
vn -0.1077 0.1598 0.9813
vn -0.2504 0.3120 0.9165
vn -0.1647 0.7258 0.6679
vn -0.4138 -0.2957 0.8610
vn -0.4603 -0.4347 0.7741
vn -0.3690 0.5812 0.7253
vn -0.2976 -0.8111 0.5035
vn -0.4146 0.3455 0.8418
vn -0.5487 0.2199 0.8066
vn -0.4536 0.0858 0.8871
vn -0.0983 0.9825 0.1583
vn -0.2631 0.9126 0.3130
vn -0.4336 -0.6818 0.5892
vn -0.6919 0.4463 0.5676
vn -0.1661 -0.9773 0.1315
vn -0.0515 -0.9975 0.0480
vn -0.5208 0.7414 0.4231
vn -0.8510 -0.3067 0.4262
vn -0.6791 0.6110 0.4067
vn -0.6814 -0.6544 0.3277
vn -0.8487 0.3303 0.4130
vn -0.8657 0.4422 0.2344
vn -0.9430 0.1453 0.2994
vn -0.8193 -0.5210 0.2395
vn -0.5009 0.8642 0.0473
vn -0.9402 -0.3140 0.1318
vn -0.7758 0.6301 0.0318
vn -0.7625 -0.6446 0.0561
vn -0.4552 -0.8888 0.0523
vn -0.5678 -0.8221 -0.0415
vn -0.9504 -0.3067 -0.0527
vn -0.6857 0.7259 -0.0531
vn -0.8919 -0.4315 -0.1352
vn -0.7577 0.5969 -0.2637
vn -0.8422 0.2952 -0.4512
vn -0.6707 -0.6678 -0.3228
vn -0.7550 -0.1499 -0.6383
vn -0.6901 0.4643 -0.5551
vn -0.4950 -0.7717 -0.3992
vn -0.1432 0.9836 -0.1093
vn -0.4319 0.7578 -0.4891
vn -0.5392 -0.4848 -0.6886
vn -0.3870 0.6146 -0.6874
vn -0.4748 -0.1618 -0.8651
vn -0.0788 -0.9768 -0.1991
vn -0.0222 -0.9963 -0.0827
vn -0.1845 -0.6370 -0.7485
vn -0.2380 0.4487 -0.8614
vn -0.2473 -0.7609 -0.5999
vn -0.3117 0.3195 -0.8949
vn -0.0826 0.7643 -0.6396
vn -0.0954 0.1967 -0.9758
vn 0.0255 0.8208 -0.5706
vn 0.0458 -0.8640 -0.5013
vn 0.1645 0.1106 -0.9802
vn 0.1106 -0.0305 -0.9934
vn 0.0862 0.9154 -0.3931
vn 0.3018 -0.1785 -0.9365
vn 0.1862 0.6367 -0.7483
vn 0.2200 -0.5995 -0.7695
vn 0.3172 0.5288 -0.7873
vn 0.2549 0.3826 -0.8881
vn 0.0972 -0.9266 -0.3633
vn 0.3576 0.1198 -0.9262
vn 0.4233 0.7924 -0.4392
vn 0.5644 0.5221 -0.6394
vn 0.5206 -0.6146 -0.5926
vn 0.8380 0.2326 -0.4936
vn 0.2774 -0.8579 -0.4325
vn 0.6589 0.2331 -0.7152
vn 0.6005 0.0696 -0.7966
vn 0.6682 -0.0440 -0.7427
vn 0.7320 0.5091 -0.4528
vn 0.8290 0.3904 -0.4005
vn 0.4537 -0.8539 -0.2550
vn 0.8762 -0.0437 -0.4799
vn 0.9382 0.3360 -0.0829
vn 0.3360 0.9309 -0.1435
vn 0.2935 -0.9522 -0.0849
vn 0.9628 -0.0869 -0.2559
vn 0.7248 0.6465 -0.2381
vn 0.6601 -0.7300 -0.1771
vn 0.8950 -0.4299 -0.1192
vn 0.8493 0.5268 -0.0327
vn 0.5681 0.8225 0.0277
vn 0.9695 0.2057 -0.1334
vn 0.9823 0.1557 -0.1037
vn 0.9738 -0.2163 -0.0702
vn 0.9603 -0.2318 0.1552
vn 0.8897 0.3582 0.2830
vn 0.7142 0.6943 0.0885
vn 0.6582 -0.7519 0.0381
vn 0.5425 -0.8369 0.0727
vn 0.7357 -0.6248 0.2613
vn 0.9505 0.1080 0.2914
vn 0.8497 -0.2162 0.4810
vn 0.9588 -0.0105 0.2839
vn 0.8517 0.1235 0.5092
vn 0.5651 -0.4356 0.7007
vn 0.8105 -0.3960 0.4315
vn 0.7224 0.5712 0.3896
vn 0.4496 -0.8529 0.2655
vn 0.5310 -0.7378 0.4167
vn 0.7566 0.2824 0.5897
vn 0.2801 0.9236 0.2618
vn 0.7123 -0.2318 0.6625
vn 0.6469 -0.0284 0.7620
vn 0.4037 0.7888 0.4635
vn 0.5589 0.2303 0.7966
vn 0.5129 0.5135 0.6879
vn 0.4723 -0.0753 0.8782
vn 0.1969 -0.9475 0.2520
vn 0.3450 -0.7482 0.5667
vn 0.2122 -0.8598 0.4645
vn 0.2418 -0.0478 0.9691
vn 0.3201 0.7222 0.6132
vn 0.2810 0.2329 0.9310
vn 0.2367 -0.2922 0.9266
vn 0.2941 -0.4317 0.8527
vn 0.2042 -0.6017 0.7722
vn -0.0980 -0.2845 0.9537
vn 0.0247 -0.8399 0.5422
vn 0.0702 0.2313 0.9704
vn 0.0295 0.8335 0.5518
vn 0.0825 0.5353 0.8406
vn -0.0746 -0.6142 0.7856
vn -0.0969 -0.0687 0.9929
vn -0.0550 -0.7181 0.6938
vn -0.0783 0.4243 0.9022
vn -0.3790 0.5464 0.7468
vn -0.1993 0.1978 0.9598
vn -0.1659 0.7194 0.6745
vn -0.3844 -0.5686 0.7272
vn -0.2194 -0.8944 0.3898
vn -0.4589 -0.0316 0.8879
vn -0.1572 -0.9396 0.3040
vn -0.7661 -0.0734 0.6386
vn -0.2028 0.9311 0.3030
vn -0.3672 0.8212 0.4368
vn -0.3896 -0.7541 0.5287
vn -0.6701 -0.4169 0.6141
vn -0.5485 0.7086 0.4439
vn -0.6289 -0.5871 0.5096
vn -0.7502 0.3431 0.5652
vn -0.7108 0.2229 0.6671
vn -0.7886 0.0946 0.6076
vn -0.9591 -0.0655 0.2755
vn -0.7614 -0.2891 0.5803
vn -0.7129 0.5550 0.4286
vn -0.5711 -0.7538 0.3251
vn -0.7683 -0.5995 0.2244
vn -0.8769 0.4123 0.2471
vn -0.4693 -0.8615 0.1938
vn -0.9411 0.1166 0.3174
vn -0.9958 -0.0484 -0.0776
vn -0.9453 -0.1802 0.2718
vn -0.5719 0.8186 0.0535
vn -0.8561 0.5107 0.0787
vn -0.9637 0.2372 0.1224
vn -0.3371 -0.9408 0.0364
vn -0.8146 -0.5745 -0.0805
vn -0.9192 0.3608 -0.1578
vn -0.5158 -0.8564 -0.0223
vn -0.9728 0.2281 -0.0404
vn -0.9864 0.1030 -0.1277
vn -0.8770 0.1008 -0.4698
vn -0.7267 0.6847 -0.0556
vn -0.7952 0.5202 -0.3114
vn -0.8901 0.3814 -0.2496
vn -0.6236 -0.7124 -0.3218
vn -0.8791 -0.0811 -0.4697
vn -0.8187 -0.4188 -0.3930
vn -0.3245 0.9051 -0.2748
vn -0.3085 -0.9058 -0.2903
vn -0.4252 0.8284 -0.3645
vn -0.6914 -0.4267 -0.5831
vn -0.6922 0.3847 -0.6106
vn -0.6098 0.3603 -0.7059
vn -0.2499 -0.9398 -0.2331
vn -0.4482 -0.7322 -0.5129
vn -0.6284 0.1080 -0.7703
vn -0.4915 0.6760 -0.5490
vn -0.6338 -0.0616 -0.7711
vn -0.1039 0.6655 -0.7392
vn -0.4253 -0.2865 -0.8585
vn -0.4794 -0.4567 -0.7494
vn -0.3829 0.5327 -0.7547
vn -0.4219 0.1237 -0.8982
vn -0.1752 -0.8344 -0.5226
vn -0.2836 0.2574 -0.9238
vn -0.3408 -0.0272 -0.9398
vn -0.1442 -0.0411 -0.9887
vn -0.0962 -0.6090 -0.7873
vn -0.0925 0.4996 -0.8613
vn -0.0869 -0.2785 -0.9565
vn 0.6153 -0.3058 -0.7265
vn 0.4056 0.7641 -0.5016
vn 0.5787 0.5123 -0.6346
vn 0.8602 0.2017 -0.4683
vn 0.8940 -0.0881 -0.4392
vn 0.9231 0.3694 -0.1074
vn 0.6068 0.7910 0.0790
vn 0.9084 0.3319 0.2541
vn 0.9646 0.0684 0.2548
vn 0.8545 -0.3080 0.4184
vn 0.5678 -0.4531 0.6872
vn 0.6237 0.2117 0.7525
vn 0.4619 -0.0845 0.8829
vn 0.3178 -0.1094 0.9418
vn 0.2370 0.2142 0.9476
vn -0.0904 -0.2925 0.9520
vn -0.0404 -0.6436 0.7643
vn -0.0926 -0.0638 0.9937
vn -0.4383 0.4890 0.7542
vn -0.1954 -0.9048 0.3784
vn -0.5019 -0.0906 0.8601
vn -0.7484 -0.1012 0.6555
vn -0.9599 -0.0620 0.2734
vn -0.9845 -0.1240 -0.1240
vn -0.8801 0.0951 -0.4651
vn -0.8995 -0.1251 -0.4187
vn -0.7643 -0.4661 -0.4456
vn -0.3136 0.9250 -0.2147
vn -0.3632 -0.8845 -0.2929
vn -0.5958 0.3387 -0.7282
vn -0.6351 0.0999 -0.7659
vn -0.4911 0.6675 -0.5597
vn -0.0460 0.6143 -0.7877
vn -0.0816 -0.0929 -0.9923
vn -0.1046 -0.2951 -0.9497
vt 0.340165 0.258709
vt 0.437500 0.267197
vt 0.375000 0.296875
vt 0.214368 0.305425
vt 0.218962 0.233580
vt 0.653249 0.234376
vt 0.726810 0.272013
vt 0.600299 0.290700
vt 0.526129 0.250000
vt 0.875000 0.187402
vt 0.937500 0.203021
vt 0.875000 0.315442
vt 0.500000 0.295707
vt 0.461695 0.333123
vt 0.812500 0.264929
vt 0.782640 0.329026
vt 0.335911 0.333978
vt 0.125000 0.203119
vt 0.125000 0.373456
vt 1.000000 0.296875
vt 0.937500 0.359350
vt 0.687500 0.328465
vt 0.585676 0.333919
vt 0.216569 0.376489
vt 0.875000 0.436090
vt 0.660734 0.390727
vt 0.342061 0.391400
vt 0.276449 0.426872
vt 0.437500 0.390625
vt 0.402047 0.452214
vt 0.187500 0.472717
vt 0.036596 0.476752
vt 0.062500 0.312720
vt 1.000000 0.421876
vt 0.937500 0.520276
vt 0.125000 0.546849
vt 0.812500 0.484375
vt 0.788541 0.400858
vt 0.281588 0.484905
vt 0.750000 0.531907
vt 0.721693 0.453947
vt 0.500000 0.482730
vt 0.466887 0.514694
vt 0.595168 0.515882
vt 0.875000 0.576979
vt 0.375000 0.512820
vt 0.340524 0.545262
vt 0.225258 0.556326
vt 0.687500 0.516944
vt 0.687500 0.580927
vt 0.437500 0.548447
vt 0.500000 0.576480
vt 0.466887 0.608444
vt 0.812500 0.559814
vt 0.783240 0.625776
vt 0.312500 0.580928
vt 0.274443 0.632809
vt 0.661996 0.635323
vt 0.600772 0.571135
vt 0.062500 0.750371
vt 0.562500 0.611079
vt 1.000000 0.609375
vt 0.937500 0.723802
vt 0.375000 0.606570
vt 0.875000 0.689035
vt 0.437500 0.642197
vt 0.394559 0.674837
vt 0.187500 0.628967
vt 0.125000 0.738092
vt 0.531779 0.656250
vt 0.750000 0.688319
vt 0.650314 0.677297
vt 0.529449 0.687500
vt 0.812500 0.732600
vt 0.312500 0.674678
vt 0.225458 0.711326
vt 0.662607 0.728356
vt 0.875000 0.798775
vt 0.750000 0.779475
vt 0.687500 0.798194
vt 0.526711 0.735719
vt 0.625000 0.764101
vt 0.522203 0.791324
vt 0.593026 0.812500
vt 0.812500 0.839854
vt 0.437500 0.797979
vt 0.402047 0.858464
vt 0.343665 0.796882
vt 0.312500 0.862178
vt 0.750000 0.871007
vt 0.187500 0.784075
vt 0.250000 0.808520
vt 0.187500 0.890599
vt 0.658156 0.859545
vt 0.528259 0.860004
vt 1.000000 0.828125
vt 0.937500 0.950562
vt 0.875000 0.923732
vt 0.250000 0.889138
vt 0.687500 0.924677
vt 0.125000 0.909699
vt 0.062500 0.960718
vt 0.000000 0.890625
vt 0.812500 0.948800
vt 0.437500 0.922978
vt 0.375000 0.950320
vt 0.336962 0.917465
vt 0.750000 0.953125
vt 0.218905 0.967225
vt 0.625000 0.950321
vt 0.588059 0.916421
vt 0.666589 0.990810
vt 0.529669 0.983025
vt 0.334859 0.991176
vt 0.875000 1.000000
vt 0.437500 0.987182
vt 0.750000 1.000000
vt 0.250000 1.000000
vt 0.125000 1.000000
vt 0.250000 0.029107
vt 0.187500 0.061226
vt 0.187500 -0.000000
vt 0.437500 0.000000
vt 0.402047 0.045964
vt 0.334859 0.000000
vt 0.875000 0.045309
vt 0.812500 0.076699
vt 0.812500 -0.000000
vt 0.312500 0.048274
vt 0.750000 0.091891
vt 0.727456 0.022467
vt 0.687500 0.078465
vt 0.592670 0.109473
vt 0.592670 0.046973
vt 0.284938 0.110074
vt 0.500000 0.109373
vt 0.403521 0.139037
vt 0.403320 0.093750
vt 0.724460 0.143480
vt 0.187500 0.154976
vt 0.937500 0.051097
vt 1.000000 0.109375
vt 0.812500 0.187451
vt 0.272635 0.165268
vt 0.750000 0.202634
vt 0.500000 0.170230
vt 0.437500 0.204228
vt 0.062500 0.072068
vt -0.000000 0.203125
vt 0.343665 0.203132
vt 0.687500 0.174677
vt 0.602446 0.164445
vt 0.537540 0.210316
vt 0.625000 0.450321
vt 0.534624 0.390625
vt 0.535776 0.448051
vt 0.437500 0.734237
vt 0.343665 0.734382
vt 0.500000 0.921875
vt 0.500000 0.045707
vt 0.532640 0.000000
vt 0.666589 0.000000
vt 0.125000 0.048236
s 0
usemtl マテリアル.002
f 8/1/1 3/2/1 13/3/1
f 8/1/2 20/4/2 145/5/2
f 1/6/3 6/7/3 12/8/3
f 1/6/4 12/8/4 2/9/4
f 131/10/5 4/11/5 15/12/5
f 7/13/6 18/14/6 3/2/6
f 5/15/7 15/12/7 16/16/7
f 13/3/8 19/17/8 8/1/8
f 9/18/9 20/4/9 30/19/9
f 4/11/10 88/20/10 14/21/10
f 11/22/11 17/23/11 12/8/11
f 17/23/12 18/14/12 7/13/12
f 18/14/13 19/17/13 13/3/13
f 20/4/14 19/17/14 21/24/14
f 14/21/15 22/25/15 15/12/15
f 11/22/16 23/26/16 17/23/16
f 26/27/17 29/28/17 21/24/17
f 25/29/18 33/30/18 26/27/18
f 26/27/19 33/30/19 29/28/19
f 25/29/20 19/17/20 18/14/20
f 21/24/21 29/28/21 38/31/21
f 30/19/22 52/32/22 10/33/22
f 14/21/23 88/34/23 46/35/23
f 38/31/24 57/36/24 30/19/24
f 22/25/25 34/37/25 27/38/25
f 29/28/26 33/30/26 37/39/26
f 34/37/27 43/40/27 31/41/27
f 36/42/28 41/43/28 33/30/28
f 35/44/29 41/43/29 36/42/29
f 46/35/30 53/45/30 22/25/30
f 37/39/31 42/46/31 45/47/31
f 37/39/32 45/47/32 51/48/32
f 40/49/33 43/40/33 47/50/33
f 44/51/34 45/47/34 42/46/34
f 49/52/35 55/53/35 44/51/35
f 39/54/36 58/55/36 43/40/36
f 50/56/37 63/57/37 51/48/37
f 47/50/38 58/55/38 60/58/38
f 47/50/39 60/58/39 48/59/39
f 52/32/40 57/36/40 94/60/40
f 54/61/41 55/53/41 49/52/41
f 46/35/42 88/62/42 65/63/42
f 53/45/43 58/55/43 39/54/43
f 50/56/44 56/64/44 63/57/44
f 65/63/45 70/65/45 53/45/45
f 62/66/46 68/67/46 56/64/46
f 57/36/47 64/68/47 86/69/47
f 54/61/48 61/70/48 55/53/48
f 59/71/49 66/72/49 60/58/49
f 61/70/50 66/72/50 67/73/50
f 70/65/51 76/74/51 58/55/51
f 69/75/52 72/76/52 63/57/52
f 59/71/53 71/77/53 66/72/53
f 65/63/54 80/78/54 70/65/54
f 76/74/55 81/79/55 59/71/55
f 81/79/56 77/80/56 71/77/56
f 73/81/57 78/82/57 83/83/57
f 77/80/58 82/84/58 78/82/58
f 80/78/59 89/85/59 76/74/59
f 84/86/60 92/87/60 85/88/60
f 85/88/61 92/87/61 93/89/61
f 89/85/62 95/90/62 81/79/62
f 79/91/63 87/92/63 102/93/63
f 77/80/64 90/94/64 82/84/64
f 82/84/65 90/94/65 91/95/65
f 82/84/66 91/95/66 83/83/66
f 65/63/67 88/96/67 121/97/67
f 121/97/68 103/98/68 80/78/68
f 93/89/69 98/99/69 87/92/69
f 90/94/70 95/90/70 99/100/70
f 109/101/71 139/102/71 94/60/71
f 52/103/72 94/60/72 139/102/72
f 103/98/73 110/104/73 89/85/73
f 101/105/74 107/106/74 97/107/74
f 110/104/75 104/108/75 95/90/75
f 97/107/76 108/109/76 98/99/76
f 99/100/77 105/110/77 96/111/77
f 99/100/78 104/108/78 111/112/78
f 96/111/79 105/110/79 106/113/79
f 97/107/80 107/106/80 113/114/80
f 121/97/81 122/115/81 103/98/81
f 112/116/82 113/114/82 107/106/82
f 104/108/83 110/104/83 114/117/83
f 113/114/84 120/118/84 108/109/84
f 109/101/85 108/109/85 127/119/85
f 120/120/86 126/121/86 108/122/86
f 112/123/87 118/124/87 113/125/87
f 122/126/88 128/127/88 110/128/88
f 113/125/89 118/124/89 119/129/89
f 128/127/90 116/130/90 114/131/90
f 123/132/91 129/133/91 117/134/91
f 119/129/92 130/135/92 120/120/92
f 124/136/93 133/137/93 125/138/93
f 116/130/94 132/139/94 123/132/94
f 130/135/95 138/140/95 126/121/95
f 121/141/96 88/142/96 4/11/96
f 131/10/97 140/143/97 128/127/97
f 130/135/98 133/137/98 137/144/98
f 132/139/99 140/143/99 141/145/99
f 136/146/100 143/147/100 133/137/100
f 139/148/101 9/18/101 10/33/101
f 52/149/102 139/148/102 10/33/102
f 144/150/103 145/5/103 137/144/103
f 134/151/104 141/145/104 1/6/104
f 137/144/105 145/5/105 138/140/105
f 134/151/106 1/6/106 135/152/106
f 140/143/107 131/10/107 5/15/107
f 142/153/108 1/6/108 2/9/108
f 131/10/109 15/12/109 5/15/109
f 145/5/110 20/4/110 9/18/110
f 2/9/111 12/8/111 7/13/111
f 3/2/112 2/9/112 7/13/112
f 15/12/113 4/11/113 14/21/113
f 3/2/114 18/14/114 13/3/114
f 6/7/115 5/15/115 16/16/115
f 20/4/116 8/1/116 19/17/116
f 6/7/117 16/16/117 11/22/117
f 6/7/118 11/22/118 12/8/118
f 10/33/119 9/18/119 30/19/119
f 12/8/120 17/23/120 7/13/120
f 27/38/121 15/12/121 22/25/121
f 11/22/122 27/38/122 23/26/122
f 19/17/123 26/27/123 21/24/123
f 28/154/124 24/155/124 23/26/124
f 20/4/125 21/24/125 30/19/125
f 17/23/126 23/26/126 24/155/126
f 18/14/127 17/23/127 24/155/127
f 18/14/128 24/155/128 25/29/128
f 23/26/129 27/38/129 31/41/129
f 23/26/130 31/41/130 28/154/130
f 21/24/131 38/31/131 30/19/131
f 32/156/132 25/29/132 24/155/132
f 28/154/133 40/49/133 35/44/133
f 14/21/134 46/35/134 22/25/134
f 52/32/135 30/19/135 57/36/135
f 32/156/136 36/42/136 33/30/136
f 27/38/137 34/37/137 31/41/137
f 38/31/138 29/28/138 37/39/138
f 37/39/139 33/30/139 42/46/139
f 31/41/140 43/40/140 40/49/140
f 53/45/141 34/37/141 22/25/141
f 32/156/142 28/154/142 35/44/142
f 32/156/143 35/44/143 36/42/143
f 33/30/144 41/43/144 42/46/144
f 41/43/145 44/51/145 42/46/145
f 48/59/146 40/49/146 47/50/146
f 43/40/147 34/37/147 39/54/147
f 38/31/148 37/39/148 51/48/148
f 38/31/149 51/48/149 57/36/149
f 45/47/150 50/56/150 51/48/150
f 49/52/151 35/44/151 48/59/151
f 56/64/152 44/51/152 55/53/152
f 41/43/153 49/52/153 44/51/153
f 48/59/154 54/61/154 49/52/154
f 69/75/155 56/64/155 68/67/155
f 50/56/156 45/47/156 56/64/156
f 43/40/157 58/55/157 47/50/157
f 51/48/158 64/68/158 57/36/158
f 64/68/159 51/48/159 63/57/159
f 54/61/160 48/59/160 60/58/160
f 46/35/161 65/63/161 53/45/161
f 55/53/162 62/66/162 56/64/162
f 55/53/163 61/70/163 62/66/163
f 53/45/164 70/65/164 58/55/164
f 61/70/165 60/58/165 66/72/165
f 58/55/166 59/71/166 60/58/166
f 62/66/167 67/73/167 68/67/167
f 57/36/168 86/69/168 94/60/168
f 64/68/169 63/57/169 72/76/169
f 64/68/170 72/76/170 86/69/170
f 74/157/171 67/73/171 73/81/171
f 58/55/172 76/74/172 59/71/172
f 71/77/173 67/73/173 66/72/173
f 68/67/174 74/157/174 75/158/174
f 69/75/175 68/67/175 75/158/175
f 69/75/176 75/158/176 72/76/176
f 85/88/177 74/157/177 84/86/177
f 72/76/178 79/91/178 86/69/178
f 71/77/179 78/82/179 73/81/179
f 70/65/180 80/78/180 76/74/180
f 59/71/181 81/79/181 71/77/181
f 87/92/182 75/158/182 85/88/182
f 74/157/183 83/83/183 84/86/183
f 79/91/184 72/76/184 87/92/184
f 71/77/185 77/80/185 78/82/185
f 95/90/186 77/80/186 81/79/186
f 83/83/187 78/82/187 82/84/187
f 81/79/188 76/74/188 89/85/188
f 85/88/189 93/89/189 87/92/189
f 109/101/190 79/91/190 102/93/190
f 91/95/191 84/86/191 83/83/191
f 94/60/192 86/69/192 109/101/192
f 101/105/193 91/95/193 100/159/193
f 65/63/194 121/97/194 80/78/194
f 80/78/195 103/98/195 89/85/195
f 102/93/196 87/92/196 98/99/196
f 93/89/197 92/87/197 97/107/197
f 95/90/198 89/85/198 110/104/198
f 93/89/199 97/107/199 98/99/199
f 90/94/200 99/100/200 96/111/200
f 91/95/201 90/94/201 96/111/201
f 91/95/202 96/111/202 100/159/202
f 112/116/203 100/159/203 106/113/203
f 92/87/204 101/105/204 97/107/204
f 99/100/205 95/90/205 104/108/205
f 98/99/206 108/109/206 102/93/206
f 97/107/207 113/114/207 108/109/207
f 99/100/208 111/112/208 105/110/208
f 102/93/209 108/109/209 109/101/209
f 100/159/210 96/111/210 106/113/210
f 115/160/211 112/123/211 106/161/211
f 101/105/212 112/116/212 107/106/212
f 103/98/213 122/115/213 110/104/213
f 104/108/214 114/117/214 111/112/214
f 106/113/215 105/110/215 111/112/215
f 109/101/216 127/119/216 139/102/216
f 120/120/217 113/125/217 119/129/217
f 111/162/218 114/131/218 117/134/218
f 108/122/219 126/121/219 127/163/219
f 106/161/220 111/162/220 117/134/220
f 106/161/221 117/134/221 115/160/221
f 124/136/222 117/134/222 129/133/222
f 114/131/223 110/128/223 128/127/223
f 114/131/224 116/130/224 123/132/224
f 114/131/225 123/132/225 117/134/225
f 120/120/226 130/135/226 126/121/226
f 125/138/227 115/160/227 124/136/227
f 125/138/228 119/129/228 118/124/228
f 122/126/229 4/11/229 131/10/229
f 127/163/230 138/140/230 9/18/230
f 128/127/231 122/126/231 131/10/231
f 130/135/232 125/138/232 133/137/232
f 123/132/233 132/139/233 129/133/233
f 129/133/234 134/151/234 135/152/234
f 127/163/235 9/18/235 139/148/235
f 138/140/236 130/135/236 137/144/236
f 136/146/237 129/133/237 135/152/237
f 116/130/238 140/143/238 132/139/238
f 124/136/239 136/146/239 133/137/239
f 5/15/240 141/145/240 140/143/240
f 133/137/241 143/147/241 144/150/241
f 137/144/242 133/137/242 144/150/242
f 134/151/243 132/139/243 141/145/243
f 135/152/244 142/153/244 136/146/244
f 138/140/245 145/5/245 9/18/245
f 142/153/246 135/152/246 1/6/246
f 143/147/247 136/146/247 142/153/247
f 2/9/248 143/147/248 142/153/248
f 144/150/249 8/1/249 145/5/249
f 1/6/250 141/145/250 6/7/250
f 8/1/251 143/147/251 3/2/251
f 25/29/252 26/27/252 19/17/252
f 27/38/253 16/16/253 15/12/253
f 11/22/254 16/16/254 27/38/254
f 28/154/255 32/156/255 24/155/255
f 32/156/256 33/30/256 25/29/256
f 28/154/257 31/41/257 40/49/257
f 53/45/258 39/54/258 34/37/258
f 48/59/259 35/44/259 40/49/259
f 49/52/260 41/43/260 35/44/260
f 56/64/261 45/47/261 44/51/261
f 69/75/262 63/57/262 56/64/262
f 61/70/263 54/61/263 60/58/263
f 62/66/264 61/70/264 67/73/264
f 74/157/265 68/67/265 67/73/265
f 71/77/266 73/81/266 67/73/266
f 85/88/267 75/158/267 74/157/267
f 87/92/268 72/76/268 75/158/268
f 74/157/269 73/81/269 83/83/269
f 95/90/270 90/94/270 77/80/270
f 109/101/271 86/69/271 79/91/271
f 91/95/272 92/87/272 84/86/272
f 101/105/273 92/87/273 91/95/273
f 112/116/274 101/105/274 100/159/274
f 115/160/275 118/124/275 112/123/275
f 124/136/276 115/160/276 117/134/276
f 125/138/277 118/124/277 115/160/277
f 125/138/278 130/135/278 119/129/278
f 122/126/279 121/141/279 4/11/279
f 127/163/280 126/121/280 138/140/280
f 129/133/281 132/139/281 134/151/281
f 136/146/282 124/136/282 129/133/282
f 116/130/283 128/127/283 140/143/283
f 5/15/284 6/7/284 141/145/284
f 2/9/285 3/2/285 143/147/285
f 8/1/286 144/150/286 143/147/286
