# Blender 4.4.1
# www.blender.org
mtllib bossEye.mtl
o ICO球
v -0.440095 -0.287708 1.735635
v -0.269114 -0.045636 1.735635
v -0.387260 -0.045638 1.964336
v -0.578421 -0.045638 1.876979
v -0.301768 0.346048 1.876979
v -0.492930 0.346048 1.964336
v -0.611076 0.346046 1.735635
v -0.440095 0.588117 1.735635
v -0.602707 -0.080021 1.735635
v -0.521401 -0.222307 1.818714
v -0.339595 -0.222306 1.735635
v -0.409039 -0.222307 1.870061
v -0.308539 -0.080022 1.870061
v -0.490346 -0.080022 1.953141
v -0.621901 0.150205 1.818714
v -0.258288 0.150205 1.652555
v -0.327732 0.150205 1.953143
v -0.258288 0.150205 1.818714
v -0.552457 0.150205 1.953143
v -0.440095 0.150205 2.004489
v -0.277483 0.380431 1.735635
v -0.389844 0.380432 1.953141
v -0.571651 0.380431 1.870061
v -0.540595 0.522716 1.735635
v -0.358789 0.522717 1.652556
v -0.358789 0.522717 1.818714
v -0.471150 0.522717 1.870061
v 0.457594 -0.269536 1.735635
v 0.628574 -0.027465 1.735635
v 0.510428 -0.027466 1.964336
v 0.319267 -0.027466 1.876979
v 0.595920 0.364220 1.876979
v 0.404758 0.364220 1.964336
v 0.286613 0.364218 1.735635
v 0.457594 0.606289 1.735635
v 0.294982 -0.061850 1.735635
v 0.376288 -0.204135 1.818714
v 0.558093 -0.204134 1.735635
v 0.488649 -0.204136 1.870061
v 0.589149 -0.061850 1.870062
v 0.407343 -0.061850 1.953142
v 0.275787 0.168377 1.818714
v 0.639400 0.168377 1.652556
v 0.569956 0.168377 1.953143
v 0.639400 0.168377 1.818714
v 0.345231 0.168377 1.953143
v 0.457594 0.168377 2.004490
v 0.620205 0.398603 1.735635
v 0.507844 0.398604 1.953142
v 0.326038 0.398603 1.870062
v 0.357094 0.540888 1.735635
v 0.538899 0.540889 1.652556
v 0.538899 0.540889 1.818714
v 0.426538 0.540889 1.870061
vn 0.5250 -0.8067 0.2712
vn -0.2133 -0.8582 0.4668
vn 0.7214 -0.1811 0.6684
vn -0.6831 -0.1843 0.7067
vn 0.9985 -0.0552 -0.0000
vn 0.4145 -0.0741 0.9070
vn -0.8868 -0.0606 0.4581
vn 0.8965 0.3698 0.2440
vn -0.0635 0.4759 0.8772
vn -0.9145 0.3648 0.1749
vn -0.5250 0.8067 0.2712
vn -0.7525 0.5315 0.3888
vn -0.6094 0.4304 0.6658
vn 0.2133 0.8582 0.4668
vn 0.3295 0.6094 0.7211
vn 0.6821 0.4180 0.6000
vn 0.6268 0.7792 -0.0000
vn 0.8682 0.4961 -0.0000
vn -0.9580 0.1553 0.2412
vn -0.8848 0.0912 0.4571
vn -0.7214 0.1811 0.6684
vn 0.0360 0.2100 0.9770
vn 0.4130 0.1114 0.9039
vn 0.6831 0.1843 0.7067
vn 0.9669 0.1541 0.2036
vn 0.9965 0.0831 -0.0000
vn -0.4145 0.0741 0.9070
vn -0.4130 -0.1114 0.9039
vn -0.0360 -0.2100 0.9770
vn 0.8868 0.0606 0.4581
vn 0.8848 -0.0912 0.4571
vn 0.9580 -0.1553 0.2412
vn -0.9669 -0.1541 0.2036
vn -0.6821 -0.4180 0.6000
vn -0.3295 -0.6094 0.7211
vn 0.0635 -0.4759 0.8772
vn 0.6094 -0.4304 0.6658
vn 0.7525 -0.5315 0.3888
vn 0.9145 -0.3648 0.1749
vn -0.8965 -0.3698 0.2440
vt 0.727273 0.000000
vt 0.772727 0.078731
vt 0.681818 0.078731
vt 0.545455 0.000000
vt 0.590909 0.078731
vt 0.500000 0.078731
vt 0.636364 0.157461
vt 0.727273 0.157461
vt 0.681818 0.236191
vt 0.454546 0.157461
vt 0.545455 0.157461
vt 0.500000 0.236191
vt 0.818182 0.157461
vt 0.863636 0.236191
vt 0.772727 0.236191
vt 0.590909 0.236191
vt 0.409092 0.236191
vt 0.727273 0.314921
vt 0.818182 0.314921
vt 0.772727 0.393651
vt 0.545455 0.314921
vt 0.636364 0.314921
vt 0.590909 0.393651
vt 0.363637 0.314921
vt 0.454546 0.314921
vt 0.409092 0.393651
vt 0.500000 0.393651
vt 0.454546 0.472382
vt 0.681818 0.393651
vt 0.636364 0.472382
vt 0.863636 0.393651
vt 0.818182 0.472382
vt 0.363637 0.157461
vt 0.409092 0.078731
s 0
usemtl マテリアル.006
f 1/1/1 11/2/1 12/3/1
f 1/4/2 12/5/2 10/6/2
f 3/7/3 13/8/3 17/9/3
f 4/10/4 14/11/4 19/12/4
f 2/13/5 16/14/5 18/15/5
f 3/7/6 17/9/6 20/16/6
f 4/10/7 19/12/7 15/17/7
f 5/18/8 21/19/8 26/20/8
f 6/21/9 22/22/9 27/23/9
f 7/24/10 23/25/10 24/26/10
f 24/26/11 27/27/11 8/28/11
f 24/26/12 23/25/12 27/27/12
f 23/25/13 6/21/13 27/27/13
f 27/23/14 26/29/14 8/30/14
f 27/23/15 22/22/15 26/29/15
f 22/22/16 5/18/16 26/29/16
f 26/20/17 25/31/17 8/32/17
f 26/20/18 21/19/18 25/31/18
f 15/17/19 23/25/19 7/24/19
f 15/17/20 19/12/20 23/25/20
f 19/12/21 6/21/21 23/25/21
f 20/16/22 22/22/22 6/21/22
f 20/16/23 17/9/23 22/22/23
f 17/9/24 5/18/24 22/22/24
f 18/15/25 21/19/25 5/18/25
f 18/15/26 16/14/26 21/19/26
f 19/12/27 20/16/27 6/21/27
f 19/12/28 14/11/28 20/16/28
f 14/11/29 3/7/29 20/16/29
f 17/9/30 18/15/30 5/18/30
f 17/9/31 13/8/31 18/15/31
f 13/8/32 2/13/32 18/15/32
f 9/33/33 4/10/33 15/17/33
f 10/6/34 14/11/34 4/10/34
f 10/6/35 12/5/35 14/11/35
f 12/5/36 3/7/36 14/11/36
f 12/3/37 13/8/37 3/7/37
f 12/3/38 11/2/38 13/8/38
f 11/2/39 2/13/39 13/8/39
f 9/33/40 10/34/40 4/10/40
f 28/1/1 38/2/1 39/3/1
f 28/4/2 39/5/2 37/6/2
f 30/7/3 40/8/3 44/9/3
f 31/10/4 41/11/4 46/12/4
f 29/13/5 43/14/5 45/15/5
f 30/7/6 44/9/6 47/16/6
f 31/10/7 46/12/7 42/17/7
f 32/18/8 48/19/8 53/20/8
f 33/21/9 49/22/9 54/23/9
f 34/24/10 50/25/10 51/26/10
f 51/26/11 54/27/11 35/28/11
f 51/26/12 50/25/12 54/27/12
f 50/25/13 33/21/13 54/27/13
f 54/23/14 53/29/14 35/30/14
f 54/23/15 49/22/15 53/29/15
f 49/22/16 32/18/16 53/29/16
f 53/20/17 52/31/17 35/32/17
f 53/20/18 48/19/18 52/31/18
f 42/17/19 50/25/19 34/24/19
f 42/17/20 46/12/20 50/25/20
f 46/12/21 33/21/21 50/25/21
f 47/16/22 49/22/22 33/21/22
f 47/16/23 44/9/23 49/22/23
f 44/9/24 32/18/24 49/22/24
f 45/15/25 48/19/25 32/18/25
f 45/15/26 43/14/26 48/19/26
f 46/12/27 47/16/27 33/21/27
f 46/12/28 41/11/28 47/16/28
f 41/11/29 30/7/29 47/16/29
f 44/9/30 45/15/30 32/18/30
f 44/9/31 40/8/31 45/15/31
f 40/8/32 29/13/32 45/15/32
f 36/33/33 31/10/33 42/17/33
f 37/6/34 41/11/34 31/10/34
f 37/6/35 39/5/35 41/11/35
f 39/5/36 30/7/36 41/11/36
f 39/3/37 40/8/37 30/7/37
f 39/3/38 38/2/38 40/8/38
f 38/2/39 29/13/39 40/8/39
f 36/33/40 37/34/40 31/10/40
