# Blender 4.4.1
# www.blender.org
mtllib RushPower.mtl
o 円柱
v -0.000000 -0.165782 0.385713
v -0.000000 0.323026 0.651781
v -0.075249 -0.165782 0.378302
v -0.127156 0.323026 0.639257
v -0.147606 -0.165782 0.356353
v -0.249426 0.323026 0.602167
v -0.214291 -0.165782 0.320709
v -0.362110 0.323026 0.541936
v -0.272741 -0.165782 0.272741
v -0.460879 0.323026 0.460879
v -0.320709 -0.165782 0.214291
v -0.541936 0.323026 0.362110
v -0.356353 -0.165782 0.147606
v -0.602167 0.323026 0.249426
v -0.378302 -0.165782 0.075249
v -0.639257 0.323026 0.127156
v -0.385713 -0.165782 -0.000000
v -0.651781 0.323026 0.000000
v -0.378302 -0.165782 -0.075249
v -0.639257 0.323026 -0.127156
v -0.356353 -0.165782 -0.147606
v -0.602167 0.323026 -0.249426
v -0.320709 -0.165782 -0.214291
v -0.541936 0.323026 -0.362110
v -0.272741 -0.165782 -0.272741
v -0.460879 0.323026 -0.460879
v -0.214291 -0.165782 -0.320709
v -0.362110 0.323026 -0.541936
v -0.147606 -0.165782 -0.356353
v -0.249426 0.323026 -0.602167
v -0.075249 -0.165782 -0.378302
v -0.127156 0.323026 -0.639257
v -0.000000 -0.165782 -0.385713
v -0.000000 0.323026 -0.651781
v 0.075249 -0.165782 -0.378302
v 0.127156 0.323026 -0.639257
v 0.147606 -0.165782 -0.356353
v 0.249426 0.323026 -0.602167
v 0.214291 -0.165782 -0.320709
v 0.362110 0.323026 -0.541936
v 0.272741 -0.165782 -0.272741
v 0.460879 0.323026 -0.460879
v 0.320709 -0.165782 -0.214291
v 0.541936 0.323026 -0.362110
v 0.356353 -0.165782 -0.147606
v 0.602167 0.323026 -0.249426
v 0.378302 -0.165782 -0.075249
v 0.639257 0.323026 -0.127156
v 0.385713 -0.165782 -0.000000
v 0.651781 0.323026 0.000000
v 0.378302 -0.165782 0.075249
v 0.639257 0.323026 0.127156
v 0.356353 -0.165782 0.147606
v 0.602167 0.323026 0.249426
v 0.320709 -0.165782 0.214291
v 0.541936 0.323026 0.362110
v 0.272741 -0.165782 0.272741
v 0.460879 0.323026 0.460879
v 0.214291 -0.165782 0.320709
v 0.362110 0.323026 0.541936
v 0.147606 -0.165782 0.356353
v 0.249426 0.323026 0.602167
v 0.075249 -0.165782 0.378302
v 0.127156 0.323026 0.639257
vn -0.0862 -0.4763 0.8750
vn -0.2552 -0.4763 0.8414
vn -0.4145 -0.4763 0.7755
vn -0.5578 -0.4763 0.6797
vn -0.6797 -0.4763 0.5578
vn -0.7755 -0.4763 0.4145
vn -0.8414 -0.4763 0.2552
vn -0.8750 -0.4763 0.0862
vn -0.8750 -0.4763 -0.0862
vn -0.8414 -0.4763 -0.2552
vn -0.7755 -0.4763 -0.4145
vn -0.6797 -0.4763 -0.5578
vn -0.5578 -0.4763 -0.6797
vn -0.4145 -0.4763 -0.7755
vn -0.2552 -0.4763 -0.8414
vn -0.0862 -0.4763 -0.8750
vn 0.0862 -0.4763 -0.8750
vn 0.2552 -0.4763 -0.8414
vn 0.4145 -0.4763 -0.7755
vn 0.5578 -0.4763 -0.6797
vn 0.6797 -0.4763 -0.5578
vn 0.7755 -0.4763 -0.4145
vn 0.8414 -0.4763 -0.2552
vn 0.8750 -0.4763 -0.0862
vn 0.8750 -0.4763 0.0862
vn 0.8414 -0.4763 0.2552
vn 0.7755 -0.4763 0.4145
vn 0.6797 -0.4763 0.5578
vn 0.5578 -0.4763 0.6797
vn 0.4145 -0.4763 0.7755
vn 0.2552 -0.4763 0.8414
vn 0.0862 -0.4763 0.8750
vt 1.000000 0.525391
vt 0.968750 0.001953
vt 1.000000 0.001953
vt 0.968750 0.525391
vt 0.937500 0.001953
vt 0.937500 0.525391
vt 0.906250 0.001953
vt 0.906250 0.525391
vt 0.875000 0.001953
vt 0.843750 0.525391
vt 0.843750 0.001953
vt 0.812500 0.001953
vt 0.781250 0.525391
vt 0.781250 0.001953
vt 0.750000 0.001953
vt 0.750000 0.525391
vt 0.718750 0.001953
vt 0.687500 0.525391
vt 0.687500 0.001953
vt 0.656250 0.001953
vt 0.656250 0.525391
vt 0.625000 0.001953
vt 0.593750 0.525391
vt 0.593750 0.001953
vt 0.562500 0.001953
vt 0.531250 0.525391
vt 0.531250 0.001953
vt 0.500000 0.525391
vt 0.500000 0.001953
vt 0.468750 0.001953
vt 0.468750 0.525391
vt 0.437500 0.001953
vt 0.437500 0.525391
vt 0.406250 0.001953
vt 0.406250 0.525391
vt 0.375000 0.001953
vt 0.343750 0.525391
vt 0.343750 0.001953
vt 0.312500 0.001953
vt 0.312500 0.525391
vt 0.281250 0.001953
vt 0.281250 0.525391
vt 0.250000 0.001953
vt 0.250000 0.525391
vt 0.218750 0.001953
vt 0.218750 0.525391
vt 0.187500 0.001953
vt 0.187500 0.525391
vt 0.156250 0.001953
vt 0.156250 0.525391
vt 0.125000 0.001953
vt 0.093750 0.525391
vt 0.093750 0.001953
vt 0.062500 0.001953
vt 0.031250 0.525391
vt 0.031250 0.001953
vt 0.000000 0.525391
vt 0.000000 0.001953
vt 0.875000 0.525391
vt 0.812500 0.525391
vt 0.718750 0.525391
vt 0.625000 0.525391
vt 0.562500 0.525391
vt 0.375000 0.525391
vt 0.125000 0.525391
vt 0.062500 0.525391
s 1
usemtl マテリアル
f 2/1/1 3/2/1 1/3/1
f 4/4/2 5/5/2 3/2/2
f 6/6/3 7/7/3 5/5/3
f 8/8/4 9/9/4 7/7/4
f 9/9/5 12/10/5 11/11/5
f 12/10/6 13/12/6 11/11/6
f 13/12/7 16/13/7 15/14/7
f 16/13/8 17/15/8 15/14/8
f 18/16/9 19/17/9 17/15/9
f 19/17/10 22/18/10 21/19/10
f 22/18/11 23/20/11 21/19/11
f 24/21/12 25/22/12 23/20/12
f 25/22/13 28/23/13 27/24/13
f 28/23/14 29/25/14 27/24/14
f 29/25/15 32/26/15 31/27/15
f 31/27/16 34/28/16 33/29/16
f 34/28/17 35/30/17 33/29/17
f 36/31/18 37/32/18 35/30/18
f 38/33/19 39/34/19 37/32/19
f 40/35/20 41/36/20 39/34/20
f 41/36/21 44/37/21 43/38/21
f 44/37/22 45/39/22 43/38/22
f 46/40/23 47/41/23 45/39/23
f 48/42/24 49/43/24 47/41/24
f 50/44/25 51/45/25 49/43/25
f 52/46/26 53/47/26 51/45/26
f 54/48/27 55/49/27 53/47/27
f 56/50/28 57/51/28 55/49/28
f 57/51/29 60/52/29 59/53/29
f 60/52/30 61/54/30 59/53/30
f 61/54/31 64/55/31 63/56/31
f 63/56/32 2/57/32 1/58/32
f 2/1/1 4/4/1 3/2/1
f 4/4/2 6/6/2 5/5/2
f 6/6/3 8/8/3 7/7/3
f 8/8/4 10/59/4 9/9/4
f 9/9/5 10/59/5 12/10/5
f 12/10/6 14/60/6 13/12/6
f 13/12/7 14/60/7 16/13/7
f 16/13/8 18/16/8 17/15/8
f 18/16/9 20/61/9 19/17/9
f 19/17/10 20/61/10 22/18/10
f 22/18/11 24/21/11 23/20/11
f 24/21/12 26/62/12 25/22/12
f 25/22/13 26/62/13 28/23/13
f 28/23/14 30/63/14 29/25/14
f 29/25/15 30/63/15 32/26/15
f 31/27/16 32/26/16 34/28/16
f 34/28/17 36/31/17 35/30/17
f 36/31/18 38/33/18 37/32/18
f 38/33/19 40/35/19 39/34/19
f 40/35/20 42/64/20 41/36/20
f 41/36/21 42/64/21 44/37/21
f 44/37/22 46/40/22 45/39/22
f 46/40/23 48/42/23 47/41/23
f 48/42/24 50/44/24 49/43/24
f 50/44/25 52/46/25 51/45/25
f 52/46/26 54/48/26 53/47/26
f 54/48/27 56/50/27 55/49/27
f 56/50/28 58/65/28 57/51/28
f 57/51/29 58/65/29 60/52/29
f 60/52/30 62/66/30 61/54/30
f 61/54/31 62/66/31 64/55/31
f 63/56/32 64/55/32 2/57/32
