{
	"asset":{
		"generator":"Khronos glTF Blender I/O v4.4.56",
		"version":"2.0"
	},
	"scene":0,
	"scenes":[
		{
			"name":"Scene",
			"nodes":[
				7
			]
		}
	],
	"nodes":[
		{
			"name":"\u30dc\u30fc\u30f3.005",
			"rotation":[
				-0.24011190235614777,
				0,
				-0.6735791563987732,
				0.6990260481834412
			],
			"scale":[
				1.0000001192092896,
				1.0000001192092896,
				1
			],
			"translation":[
				-3.725290298461914e-09,
				1.3478436470031738,
				-7.916241884231567e-09
			]
		},
		{
			"children":[
				0
			],
			"name":"\u30dc\u30fc\u30f3.001",
			"rotation":[
				0.1784892976284027,
				6.53360316960061e-08,
				0.6842087507247925,
				0.7071067690849304
			],
			"scale":[
				1,
				0.9999999403953552,
				1
			],
			"translation":[
				-3.864209833395033e-16,
				1,
				4.296232702927227e-09
			]
		},
		{
			"name":"\u30dc\u30fc\u30f3.002",
			"rotation":[
				0.5843899846076965,
				-1.0505099012902974e-08,
				0.3943025469779968,
				0.7092347145080566
			],
			"scale":[
				1,
				0.9999998807907104,
				0.9999999403953552
			],
			"translation":[
				-3.864209833395033e-16,
				1,
				4.296232702927227e-09
			]
		},
		{
			"name":"\u30dc\u30fc\u30f3.003",
			"rotation":[
				0.7071067690849304,
				0.6842087507247925,
				-1.6858739115832577e-07,
				0.17848928272724152
			],
			"scale":[
				1,
				1,
				0.9999999403953552
			],
			"translation":[
				0.0008100289851427078,
				1,
				4.173921652750323e-09
			]
		},
		{
			"name":"\u30dc\u30fc\u30f3.004",
			"rotation":[
				0.70496666431427,
				0.3942922055721283,
				-0.0028672644402831793,
				0.5895316004753113
			],
			"scale":[
				0.9999999403953552,
				0.9999998211860657,
				0.9999999403953552
			],
			"translation":[
				0.0008100289851427078,
				1,
				4.173921652750323e-09
			]
		},
		{
			"children":[
				1,
				2,
				3,
				4
			],
			"name":"\u30dc\u30fc\u30f3",
			"rotation":[
				0.7071066498756409,
				-5.338507236274381e-08,
				-5.338507236274381e-08,
				0.70710688829422
			],
			"translation":[
				0,
				0.4889387786388397,
				-0.9759737253189087
			]
		},
		{
			"mesh":0,
			"name":"Spear.001",
			"skin":0
		},
		{
			"children":[
				6,
				5
			],
			"name":"\u30a2\u30fc\u30de\u30c1\u30e5\u30a2"
		}
	],
	"animations":[
		{
			"channels":[
				{
					"sampler":0,
					"target":{
						"node":5,
						"path":"translation"
					}
				},
				{
					"sampler":1,
					"target":{
						"node":5,
						"path":"rotation"
					}
				},
				{
					"sampler":2,
					"target":{
						"node":5,
						"path":"scale"
					}
				},
				{
					"sampler":3,
					"target":{
						"node":1,
						"path":"translation"
					}
				},
				{
					"sampler":4,
					"target":{
						"node":1,
						"path":"rotation"
					}
				},
				{
					"sampler":5,
					"target":{
						"node":1,
						"path":"scale"
					}
				},
				{
					"sampler":6,
					"target":{
						"node":0,
						"path":"translation"
					}
				},
				{
					"sampler":7,
					"target":{
						"node":0,
						"path":"rotation"
					}
				},
				{
					"sampler":8,
					"target":{
						"node":0,
						"path":"scale"
					}
				},
				{
					"sampler":9,
					"target":{
						"node":2,
						"path":"translation"
					}
				},
				{
					"sampler":10,
					"target":{
						"node":2,
						"path":"rotation"
					}
				},
				{
					"sampler":11,
					"target":{
						"node":2,
						"path":"scale"
					}
				},
				{
					"sampler":12,
					"target":{
						"node":3,
						"path":"translation"
					}
				},
				{
					"sampler":13,
					"target":{
						"node":3,
						"path":"rotation"
					}
				},
				{
					"sampler":14,
					"target":{
						"node":3,
						"path":"scale"
					}
				},
				{
					"sampler":15,
					"target":{
						"node":4,
						"path":"translation"
					}
				},
				{
					"sampler":16,
					"target":{
						"node":4,
						"path":"rotation"
					}
				},
				{
					"sampler":17,
					"target":{
						"node":4,
						"path":"scale"
					}
				}
			],
			"name":"AirMove",
			"samplers":[
				{
					"input":7,
					"interpolation":"STEP",
					"output":8
				},
				{
					"input":7,
					"interpolation":"STEP",
					"output":9
				},
				{
					"input":7,
					"interpolation":"STEP",
					"output":10
				},
				{
					"input":7,
					"interpolation":"STEP",
					"output":11
				},
				{
					"input":7,
					"interpolation":"STEP",
					"output":12
				},
				{
					"input":7,
					"interpolation":"STEP",
					"output":13
				},
				{
					"input":7,
					"interpolation":"STEP",
					"output":14
				},
				{
					"input":15,
					"interpolation":"LINEAR",
					"output":16
				},
				{
					"input":7,
					"interpolation":"STEP",
					"output":17
				},
				{
					"input":7,
					"interpolation":"STEP",
					"output":18
				},
				{
					"input":7,
					"interpolation":"STEP",
					"output":19
				},
				{
					"input":7,
					"interpolation":"STEP",
					"output":20
				},
				{
					"input":7,
					"interpolation":"STEP",
					"output":21
				},
				{
					"input":7,
					"interpolation":"STEP",
					"output":22
				},
				{
					"input":7,
					"interpolation":"STEP",
					"output":23
				},
				{
					"input":7,
					"interpolation":"STEP",
					"output":24
				},
				{
					"input":7,
					"interpolation":"STEP",
					"output":25
				},
				{
					"input":7,
					"interpolation":"STEP",
					"output":26
				}
			]
		}
	],
	"materials":[
		{
			"doubleSided":true,
			"name":"\u30de\u30c6\u30ea\u30a2\u30eb.003",
			"pbrMetallicRoughness":{
				"baseColorTexture":{
					"index":0
				},
				"metallicFactor":0,
				"roughnessFactor":0.5
			}
		}
	],
	"meshes":[
		{
			"name":"\u7403.001",
			"primitives":[
				{
					"attributes":{
						"POSITION":0,
						"NORMAL":1,
						"TEXCOORD_0":2,
						"JOINTS_0":3,
						"WEIGHTS_0":4
					},
					"indices":5,
					"material":0
				}
			]
		}
	],
	"textures":[
		{
			"sampler":0,
			"source":0
		}
	],
	"images":[
		{
			"mimeType":"image/png",
			"name":"Player_SpearTex01",
			"uri":"Player_SpearTex01.png"
		}
	],
	"skins":[
		{
			"inverseBindMatrices":6,
			"joints":[
				5,
				1,
				0,
				2,
				3,
				4
			],
			"name":"\u30a2\u30fc\u30de\u30c1\u30e5\u30a2"
		}
	],
	"accessors":[
		{
			"bufferView":0,
			"componentType":5126,
			"count":1790,
			"max":[
				1.6143956184387207,
				1.3557219505310059,
				3.0911171436309814
			],
			"min":[
				-1.6003186702728271,
				-0.7179784178733826,
				-2.261950969696045
			],
			"type":"VEC3"
		},
		{
			"bufferView":1,
			"componentType":5126,
			"count":1790,
			"type":"VEC3"
		},
		{
			"bufferView":2,
			"componentType":5126,
			"count":1790,
			"type":"VEC2"
		},
		{
			"bufferView":3,
			"componentType":5121,
			"count":1790,
			"type":"VEC4"
		},
		{
			"bufferView":4,
			"componentType":5126,
			"count":1790,
			"type":"VEC4"
		},
		{
			"bufferView":5,
			"componentType":5123,
			"count":7419,
			"type":"SCALAR"
		},
		{
			"bufferView":6,
			"componentType":5126,
			"count":6,
			"type":"MAT4"
		},
		{
			"bufferView":7,
			"componentType":5126,
			"count":2,
			"max":[
				0.4583333333333333
			],
			"min":[
				0
			],
			"type":"SCALAR"
		},
		{
			"bufferView":8,
			"componentType":5126,
			"count":2,
			"type":"VEC3"
		},
		{
			"bufferView":9,
			"componentType":5126,
			"count":2,
			"type":"VEC4"
		},
		{
			"bufferView":10,
			"componentType":5126,
			"count":2,
			"type":"VEC3"
		},
		{
			"bufferView":11,
			"componentType":5126,
			"count":2,
			"type":"VEC3"
		},
		{
			"bufferView":12,
			"componentType":5126,
			"count":2,
			"type":"VEC4"
		},
		{
			"bufferView":13,
			"componentType":5126,
			"count":2,
			"type":"VEC3"
		},
		{
			"bufferView":14,
			"componentType":5126,
			"count":2,
			"type":"VEC3"
		},
		{
			"bufferView":15,
			"componentType":5126,
			"count":12,
			"max":[
				0.4583333333333333
			],
			"min":[
				0
			],
			"type":"SCALAR"
		},
		{
			"bufferView":16,
			"componentType":5126,
			"count":12,
			"type":"VEC4"
		},
		{
			"bufferView":17,
			"componentType":5126,
			"count":2,
			"type":"VEC3"
		},
		{
			"bufferView":18,
			"componentType":5126,
			"count":2,
			"type":"VEC3"
		},
		{
			"bufferView":19,
			"componentType":5126,
			"count":2,
			"type":"VEC4"
		},
		{
			"bufferView":20,
			"componentType":5126,
			"count":2,
			"type":"VEC3"
		},
		{
			"bufferView":21,
			"componentType":5126,
			"count":2,
			"type":"VEC3"
		},
		{
			"bufferView":22,
			"componentType":5126,
			"count":2,
			"type":"VEC4"
		},
		{
			"bufferView":23,
			"componentType":5126,
			"count":2,
			"type":"VEC3"
		},
		{
			"bufferView":24,
			"componentType":5126,
			"count":2,
			"type":"VEC3"
		},
		{
			"bufferView":25,
			"componentType":5126,
			"count":2,
			"type":"VEC4"
		},
		{
			"bufferView":26,
			"componentType":5126,
			"count":2,
			"type":"VEC3"
		}
	],
	"bufferViews":[
		{
			"buffer":0,
			"byteLength":21480,
			"byteOffset":0,
			"target":34962
		},
		{
			"buffer":0,
			"byteLength":21480,
			"byteOffset":21480,
			"target":34962
		},
		{
			"buffer":0,
			"byteLength":14320,
			"byteOffset":42960,
			"target":34962
		},
		{
			"buffer":0,
			"byteLength":7160,
			"byteOffset":57280,
			"target":34962
		},
		{
			"buffer":0,
			"byteLength":28640,
			"byteOffset":64440,
			"target":34962
		},
		{
			"buffer":0,
			"byteLength":14838,
			"byteOffset":93080,
			"target":34963
		},
		{
			"buffer":0,
			"byteLength":384,
			"byteOffset":107920
		},
		{
			"buffer":0,
			"byteLength":8,
			"byteOffset":108304
		},
		{
			"buffer":0,
			"byteLength":24,
			"byteOffset":108312
		},
		{
			"buffer":0,
			"byteLength":32,
			"byteOffset":108336
		},
		{
			"buffer":0,
			"byteLength":24,
			"byteOffset":108368
		},
		{
			"buffer":0,
			"byteLength":24,
			"byteOffset":108392
		},
		{
			"buffer":0,
			"byteLength":32,
			"byteOffset":108416
		},
		{
			"buffer":0,
			"byteLength":24,
			"byteOffset":108448
		},
		{
			"buffer":0,
			"byteLength":24,
			"byteOffset":108472
		},
		{
			"buffer":0,
			"byteLength":48,
			"byteOffset":108496
		},
		{
			"buffer":0,
			"byteLength":192,
			"byteOffset":108544
		},
		{
			"buffer":0,
			"byteLength":24,
			"byteOffset":108736
		},
		{
			"buffer":0,
			"byteLength":24,
			"byteOffset":108760
		},
		{
			"buffer":0,
			"byteLength":32,
			"byteOffset":108784
		},
		{
			"buffer":0,
			"byteLength":24,
			"byteOffset":108816
		},
		{
			"buffer":0,
			"byteLength":24,
			"byteOffset":108840
		},
		{
			"buffer":0,
			"byteLength":32,
			"byteOffset":108864
		},
		{
			"buffer":0,
			"byteLength":24,
			"byteOffset":108896
		},
		{
			"buffer":0,
			"byteLength":24,
			"byteOffset":108920
		},
		{
			"buffer":0,
			"byteLength":32,
			"byteOffset":108944
		},
		{
			"buffer":0,
			"byteLength":24,
			"byteOffset":108976
		}
	],
	"samplers":[
		{
			"magFilter":9729,
			"minFilter":9987
		}
	],
	"buffers":[
		{
			"byteLength":109000,
			"uri":"PlayerAirMove.bin"
		}
	]
}
