# Blender 4.4.1
# www.blender.org
mtllib wind.mtl
o 円柱
v -0.126430 0.902120 0.338354
v -0.174321 0.902120 0.043108
v -0.319141 0.866161 0.335554
v -0.340734 0.866161 0.101759
v -0.340449 -0.866161 -0.113833
v -0.307199 -0.866161 -0.351519
v -0.174599 -0.902120 -0.058604
v -0.127445 -0.902120 -0.354475
v -0.004883 -0.884786 -0.019316
v 0.048443 -0.884786 -0.334909
v 0.159229 -0.833450 0.014676
v 0.216652 -0.833450 -0.310746
v 0.312365 -0.750085 0.038221
v 0.369788 -0.750085 -0.277481
v 0.446589 -0.637895 0.058858
v 0.504012 -0.637895 -0.248325
v 0.556743 -0.501191 0.075795
v 0.614166 -0.501191 -0.224396
v 0.638596 -0.345226 0.088379
v 0.696019 -0.345226 -0.206616
v 0.700103 -0.175995 0.107331
v 0.743199 -0.175995 -0.182554
v 0.747052 0.000000 0.129367
v 0.743423 -0.000000 -0.151417
v 0.741416 0.175995 0.171760
v 0.704125 0.175995 -0.119790
v 0.696633 0.345226 0.187704
v 0.638314 0.345226 -0.105827
v 0.614829 0.501191 0.205762
v 0.556510 0.501191 -0.093046
v 0.504739 0.637895 0.230063
v 0.446420 0.637895 -0.075845
v 0.370593 0.750085 0.259675
v 0.312274 0.750085 -0.054886
v 0.217548 0.833450 0.293459
v 0.159229 0.833450 -0.030974
v 0.049404 0.884786 0.318192
v -0.004754 0.884786 0.003413
v -0.150376 1.000000 0.178160
v -0.509815 0.871006 0.248701
v -0.510672 -0.871006 -0.263153
v -0.151022 -1.000000 -0.193697
v 0.040529 -0.980785 -0.156704
v 0.224718 -0.923880 -0.135533
v 0.394469 -0.831470 -0.088350
v 0.543257 -0.707107 -0.059616
v 0.665363 -0.555570 -0.036034
v 0.756097 -0.382683 -0.018512
v 0.816673 -0.195090 0.000601
v 0.841303 0.000000 0.000000
v 0.818039 0.195090 -0.010022
v 0.756211 0.382683 0.000242
v 0.665531 0.555570 0.018038
v 0.543496 0.707107 0.041987
v 0.394795 0.831470 0.071170
v 0.225144 0.923880 0.104464
v 0.041063 0.980785 0.140590
vn -0.3677 0.7968 -0.4795
vn -0.1911 -0.8338 -0.5180
vn 0.1596 -0.8632 -0.4789
vn 0.3148 -0.8395 -0.4429
vn 0.5130 -0.7577 -0.4034
vn 0.6384 -0.6718 -0.3758
vn 0.7544 -0.5484 -0.3607
vn 0.8448 -0.4059 -0.3487
vn 0.9042 -0.2295 -0.3602
vn 0.8893 -0.0220 -0.4567
vn 0.7602 0.1648 -0.6285
vn 0.6195 0.2716 -0.7365
vn 0.5628 0.3642 -0.7421
vn 0.4929 0.4987 -0.7130
vn 0.3985 0.6198 -0.6761
vn 0.2806 0.7213 -0.6332
vn 0.1264 0.7939 -0.5947
vn -0.0397 0.8187 -0.5729
vn 0.1612 0.8625 0.4796
vn 0.3322 0.8410 0.4270
vn 0.5015 0.7707 0.3930
vn 0.6393 0.6712 0.3753
vn 0.7552 0.5479 0.3599
vn 0.8454 0.4055 0.3477
vn 0.8979 0.2412 0.3682
vn 0.8755 0.0261 0.4824
vn 0.7267 -0.1785 0.6633
vn 0.6071 -0.2868 0.7411
vn 0.5665 -0.3649 0.7389
vn 0.4960 -0.4995 0.7102
vn 0.4011 -0.6205 0.6739
vn 0.2726 -0.7455 0.6082
vn 0.1569 -0.8000 0.5791
vn -0.0381 -0.8187 0.5729
vn -0.3642 -0.8000 0.4768
vn -0.1877 0.8384 0.5117
vt 0.992994 0.500000
vt 0.992994 0.999170
vt 0.938546 0.999170
vt 0.938546 0.500000
vt 0.932691 0.500000
vt 0.932691 0.999170
vt 0.878244 0.999170
vt 0.878244 0.500000
vt 0.823796 0.999170
vt 0.823796 0.500000
vt 0.769348 0.999170
vt 0.769348 0.500000
vt 0.714900 0.999170
vt 0.714900 0.500000
vt 0.660452 0.999170
vt 0.660452 0.500000
vt 0.606004 0.999170
vt 0.606004 0.500000
vt 0.551557 0.999170
vt 0.551557 0.500000
vt 0.497109 0.999170
vt 0.497109 0.500000
vt 0.442661 0.999170
vt 0.442661 0.500000
vt 0.388213 0.999170
vt 0.388213 0.500000
vt 0.333765 0.999170
vt 0.333765 0.500000
vt 0.279317 0.999170
vt 0.279317 0.500000
vt 0.224870 0.999170
vt 0.224870 0.500000
vt 0.170422 0.999170
vt 0.170422 0.500000
vt 0.115974 0.999170
vt 0.115974 0.500000
vt 0.061526 0.999170
vt 0.061526 0.500000
vt 0.007078 0.999170
vt 0.007078 0.500000
vt 0.061526 0.000830
vt 0.007078 0.000830
vt 0.115974 0.000830
vt 0.170422 0.000830
vt 0.224870 0.000830
vt 0.279317 0.000830
vt 0.333765 0.000830
vt 0.388213 0.000830
vt 0.442661 0.000830
vt 0.497109 0.000830
vt 0.551557 0.000830
vt 0.606004 0.000830
vt 0.660452 0.000830
vt 0.714900 0.000830
vt 0.769348 0.000830
vt 0.823796 0.000830
vt 0.878244 0.000830
vt 0.932691 0.000830
vt 0.992994 0.000830
vt 0.938546 0.000830
s 1
usemtl マテリアル
f 39/1/1 2/2/1 4/3/1 40/4/1
f 41/5/2 6/6/2 8/7/2 42/8/2
f 42/8/3 8/7/3 10/9/3 43/10/3
f 43/10/4 10/9/4 12/11/4 44/12/4
f 44/12/5 12/11/5 14/13/5 45/14/5
f 45/14/6 14/13/6 16/15/6 46/16/6
f 46/16/7 16/15/7 18/17/7 47/18/7
f 47/18/8 18/17/8 20/19/8 48/20/8
f 48/20/9 20/19/9 22/21/9 49/22/9
f 49/22/10 22/21/10 24/23/10 50/24/10
f 50/24/11 24/23/11 26/25/11 51/26/11
f 51/26/12 26/25/12 28/27/12 52/28/12
f 52/28/13 28/27/13 30/29/13 53/30/13
f 53/30/14 30/29/14 32/31/14 54/32/14
f 54/32/15 32/31/15 34/33/15 55/34/15
f 55/34/16 34/33/16 36/35/16 56/36/16
f 56/36/17 36/35/17 38/37/17 57/38/17
f 57/38/18 38/37/18 2/39/18 39/40/18
f 37/41/19 57/38/19 39/40/19 1/42/19
f 35/43/20 56/36/20 57/38/20 37/41/20
f 33/44/21 55/34/21 56/36/21 35/43/21
f 31/45/22 54/32/22 55/34/22 33/44/22
f 29/46/23 53/30/23 54/32/23 31/45/23
f 27/47/24 52/28/24 53/30/24 29/46/24
f 25/48/25 51/26/25 52/28/25 27/47/25
f 23/49/26 50/24/26 51/26/26 25/48/26
f 21/50/27 49/22/27 50/24/27 23/49/27
f 19/51/28 48/20/28 49/22/28 21/50/28
f 17/52/29 47/18/29 48/20/29 19/51/29
f 15/53/30 46/16/30 47/18/30 17/52/30
f 13/54/31 45/14/31 46/16/31 15/53/31
f 11/55/32 44/12/32 45/14/32 13/54/32
f 9/56/33 43/10/33 44/12/33 11/55/33
f 7/57/34 42/8/34 43/10/34 9/56/34
f 5/58/35 41/5/35 42/8/35 7/57/35
f 1/59/36 39/1/36 40/4/36 3/60/36
