# Blender 4.4.1
# www.blender.org
mtllib wing.mtl
o 平面
v 1.014954 -1.000000 0.007654
v 0.000000 -1.000000 1.000000
v 1.014954 1.000000 0.007655
v 0.000000 1.000000 1.000000
v 0.000000 -1.000000 -0.000000
v -0.000000 1.000000 0.000000
vn -1.0000 -0.0000 -0.0000
vn 0.0075 -0.0000 -1.0000
vt 1.000000 0.000000
vt 0.500000 1.000000
vt 0.500000 0.000000
vt 0.000000 1.000000
vt 0.000000 0.000000
vt 1.000000 1.000000
s 0
usemtl マテリアル
f 2/1/1 6/2/1 5/3/1
f 5/3/2 3/4/2 1/5/2
f 2/1/1 4/6/1 6/2/1
f 5/3/2 6/2/2 3/4/2
