# Blender 4.4.1
# www.blender.org
mtllib triangular.mtl
o 平面
v 0.000022 0.750000 1.206293
v 1.000022 0.750000 -0.793707
v -0.999978 0.750000 -0.793707
v -0.999978 -0.750000 -0.793707
v 0.000022 -0.750000 1.206293
v 1.000022 -0.750000 -0.793707
vn -0.0000 1.0000 -0.0000
vn -0.0000 -1.0000 -0.0000
vn -0.0000 -0.0000 -1.0000
vn 0.8944 -0.0000 0.4472
vn -0.8944 -0.0000 0.4472
vt 0.000000 0.000000
s 0
usemtl マテリアル
f 3/1/1 1/1/1 2/1/1
f 4/1/2 6/1/2 5/1/2
f 3/1/3 2/1/3 6/1/3 4/1/3
f 2/1/4 1/1/4 5/1/4 6/1/4
f 1/1/5 3/1/5 4/1/5 5/1/5
