# Blender 4.4.1
# www.blender.org
mtllib player.mtl
o 立方体.002
v 0.451857 0.083939 0.953717
v 0.451857 0.600885 0.953717
v 0.451857 0.083939 1.086849
v 0.451857 0.600885 1.086849
v 0.283965 0.083939 0.953717
v 0.283965 0.600885 0.953717
v 0.283965 0.083939 1.086849
v 0.283965 0.600885 1.086849
v 1.000000 -1.000000 -1.000000
v 1.000000 1.000000 -1.000000
v 1.000000 -1.000000 1.000000
v 1.000000 1.000000 1.000000
v -1.000000 -1.000000 -1.000000
v -1.000000 1.000000 -1.000000
v -1.000000 -1.000000 1.000000
v -1.000000 1.000000 1.000000
v -0.311716 0.083939 0.953717
v -0.311716 0.600885 0.953717
v -0.311716 0.083939 1.086849
v -0.311716 0.600885 1.086849
v -0.479607 0.083939 0.953717
v -0.479607 0.600885 0.953717
v -0.479607 0.083939 1.086849
v -0.479607 0.600885 1.086849
vn 1.0000 -0.0000 -0.0000
vn -0.0000 -0.0000 1.0000
vn -1.0000 -0.0000 -0.0000
vn -0.0000 -1.0000 -0.0000
vn -0.0000 1.0000 -0.0000
vn -0.0000 -0.0000 -1.0000
vt 0.992366 0.411873
vt 0.591663 0.479973
vt 0.820484 0.319721
vt 0.819667 0.248790
vt 0.696180 0.178241
vt 0.772848 0.195501
vt 0.591663 0.007634
vt 0.932444 0.040463
vt 0.007634 0.386808
vt 0.197221 0.386808
vt 0.197221 0.576395
vt 0.007634 0.576395
vt 0.197221 0.765982
vt 0.386808 0.576395
vt 0.386808 0.765982
vt 0.576395 0.576395
vt 0.386808 0.386808
vt 0.576395 0.386808
vt 0.386808 0.197221
vt 0.197221 0.197221
vt 0.197221 0.007634
vt 0.386808 0.007634
vt 0.992366 0.899480
vt 0.591664 0.967580
vt 0.820484 0.807328
vt 0.819667 0.736397
vt 0.696180 0.665848
vt 0.772848 0.683108
vt 0.591663 0.495241
vt 0.932444 0.528070
s 0
usemtl マテリアル
f 1/1/1 2/2/1 4/3/1 3/4/1
f 3/4/2 4/3/2 8/5/2 7/6/2
f 7/6/3 8/5/3 6/7/3 5/8/3
f 3/4/4 7/6/4 5/8/4 1/1/4
f 8/5/5 4/3/5 2/2/5 6/7/5
f 9/9/1 10/10/1 12/11/1 11/12/1
f 11/13/2 12/11/2 16/14/2 15/15/2
f 15/16/3 16/14/3 14/17/3 13/18/3
f 13/19/6 14/17/6 10/10/6 9/20/6
f 11/21/4 15/22/4 13/19/4 9/20/4
f 16/14/5 12/11/5 10/10/5 14/17/5
f 17/23/1 18/24/1 20/25/1 19/26/1
f 19/26/2 20/25/2 24/27/2 23/28/2
f 23/28/3 24/27/3 22/29/3 21/30/3
f 19/26/4 23/28/4 21/30/4 17/23/4
f 24/27/5 20/25/5 18/24/5 22/29/5
