{
	"asset":{
		"generator":"Khronos glTF Blender I/O v4.4.56",
		"version":"2.0"
	},
	"scene":0,
	"scenes":[
		{
			"name":"Scene",
			"nodes":[
				7
			]
		}
	],
	"nodes":[
		{
			"name":"\u30dc\u30fc\u30f3.001",
			"rotation":[
				0.6905996799468994,
				0.002869158983230591,
				-0.12581570446491241,
				0.7122038006782532
			],
			"scale":[
				0.9999998807907104,
				1,
				0.9999998807907104
			],
			"translation":[
				2.2351741790771484e-08,
				0.8247817158699036,
				1.1213252548714081e-14
			]
		},
		{
			"name":"\u30dc\u30fc\u30f3.002",
			"rotation":[
				-0.7041409015655518,
				8.888118259164912e-07,
				-0.1331065595149994,
				0.6974727511405945
			],
			"scale":[
				0.9999999403953552,
				1,
				1
			],
			"translation":[
				2.2351741790771484e-08,
				0.8247817158699036,
				1.1213252548714081e-14
			]
		},
		{
			"name":"\u30dc\u30fc\u30f3.003",
			"rotation":[
				0.43065088987350464,
				-5.807606839880464e-07,
				-0.5644761323928833,
				0.7042063474655151
			],
			"scale":[
				0.9999998807907104,
				0.9999998807907104,
				1
			],
			"translation":[
				2.2351741790771484e-08,
				0.8247817158699036,
				1.1213252548714081e-14
			]
		},
		{
			"name":"\u30dc\u30fc\u30f3.004",
			"rotation":[
				-0.44042864441871643,
				2.5344663754367502e-06,
				-0.564423143863678,
				0.6981756091117859
			],
			"scale":[
				0.9999999403953552,
				1,
				1
			],
			"translation":[
				2.2351741790771484e-08,
				0.8247817158699036,
				1.1213252548714081e-14
			]
		},
		{
			"children":[
				0,
				1,
				2,
				3
			],
			"name":"\u30dc\u30fc\u30f3",
			"rotation":[
				0.5844133496284485,
				-0.3980717658996582,
				-0.5844130516052246,
				0.39807188510894775
			],
			"scale":[
				1,
				0.9999999403953552,
				0.9999995231628418
			],
			"translation":[
				2.3366341750374886e-08,
				0.7741292715072632,
				-0.5345596075057983
			]
		},
		{
			"mesh":0,
			"name":"RightHand.004",
			"skin":0
		},
		{
			"mesh":1,
			"name":"RightHand.007",
			"skin":0
		},
		{
			"children":[
				5,
				6,
				4
			],
			"name":"\u30a2\u30fc\u30de\u30c1\u30e5\u30a2"
		}
	],
	"animations":[
		{
			"channels":[
				{
					"sampler":0,
					"target":{
						"node":4,
						"path":"translation"
					}
				},
				{
					"sampler":1,
					"target":{
						"node":4,
						"path":"rotation"
					}
				},
				{
					"sampler":2,
					"target":{
						"node":4,
						"path":"scale"
					}
				},
				{
					"sampler":3,
					"target":{
						"node":0,
						"path":"translation"
					}
				},
				{
					"sampler":4,
					"target":{
						"node":0,
						"path":"rotation"
					}
				},
				{
					"sampler":5,
					"target":{
						"node":0,
						"path":"scale"
					}
				},
				{
					"sampler":6,
					"target":{
						"node":1,
						"path":"translation"
					}
				},
				{
					"sampler":7,
					"target":{
						"node":1,
						"path":"rotation"
					}
				},
				{
					"sampler":8,
					"target":{
						"node":1,
						"path":"scale"
					}
				},
				{
					"sampler":9,
					"target":{
						"node":2,
						"path":"translation"
					}
				},
				{
					"sampler":10,
					"target":{
						"node":2,
						"path":"rotation"
					}
				},
				{
					"sampler":11,
					"target":{
						"node":2,
						"path":"scale"
					}
				},
				{
					"sampler":12,
					"target":{
						"node":3,
						"path":"translation"
					}
				},
				{
					"sampler":13,
					"target":{
						"node":3,
						"path":"rotation"
					}
				},
				{
					"sampler":14,
					"target":{
						"node":3,
						"path":"scale"
					}
				}
			],
			"name":"DownAttack_Main",
			"samplers":[
				{
					"input":13,
					"interpolation":"STEP",
					"output":14
				},
				{
					"input":13,
					"interpolation":"STEP",
					"output":15
				},
				{
					"input":13,
					"interpolation":"STEP",
					"output":16
				},
				{
					"input":13,
					"interpolation":"STEP",
					"output":17
				},
				{
					"input":13,
					"interpolation":"STEP",
					"output":18
				},
				{
					"input":13,
					"interpolation":"STEP",
					"output":19
				},
				{
					"input":13,
					"interpolation":"STEP",
					"output":20
				},
				{
					"input":13,
					"interpolation":"STEP",
					"output":21
				},
				{
					"input":13,
					"interpolation":"STEP",
					"output":22
				},
				{
					"input":13,
					"interpolation":"STEP",
					"output":23
				},
				{
					"input":13,
					"interpolation":"STEP",
					"output":24
				},
				{
					"input":13,
					"interpolation":"STEP",
					"output":25
				},
				{
					"input":13,
					"interpolation":"STEP",
					"output":26
				},
				{
					"input":13,
					"interpolation":"STEP",
					"output":27
				},
				{
					"input":13,
					"interpolation":"STEP",
					"output":28
				}
			]
		},
		{
			"channels":[
				{
					"sampler":0,
					"target":{
						"node":4,
						"path":"translation"
					}
				},
				{
					"sampler":1,
					"target":{
						"node":4,
						"path":"rotation"
					}
				},
				{
					"sampler":2,
					"target":{
						"node":4,
						"path":"scale"
					}
				},
				{
					"sampler":3,
					"target":{
						"node":0,
						"path":"translation"
					}
				},
				{
					"sampler":4,
					"target":{
						"node":0,
						"path":"rotation"
					}
				},
				{
					"sampler":5,
					"target":{
						"node":0,
						"path":"scale"
					}
				},
				{
					"sampler":6,
					"target":{
						"node":1,
						"path":"translation"
					}
				},
				{
					"sampler":7,
					"target":{
						"node":1,
						"path":"rotation"
					}
				},
				{
					"sampler":8,
					"target":{
						"node":1,
						"path":"scale"
					}
				},
				{
					"sampler":9,
					"target":{
						"node":2,
						"path":"translation"
					}
				},
				{
					"sampler":10,
					"target":{
						"node":2,
						"path":"rotation"
					}
				},
				{
					"sampler":11,
					"target":{
						"node":2,
						"path":"scale"
					}
				},
				{
					"sampler":12,
					"target":{
						"node":3,
						"path":"translation"
					}
				},
				{
					"sampler":13,
					"target":{
						"node":3,
						"path":"rotation"
					}
				},
				{
					"sampler":14,
					"target":{
						"node":3,
						"path":"scale"
					}
				}
			],
			"name":"DownAttack_Prepare",
			"samplers":[
				{
					"input":29,
					"interpolation":"STEP",
					"output":30
				},
				{
					"input":29,
					"interpolation":"STEP",
					"output":31
				},
				{
					"input":29,
					"interpolation":"STEP",
					"output":32
				},
				{
					"input":29,
					"interpolation":"STEP",
					"output":33
				},
				{
					"input":34,
					"interpolation":"LINEAR",
					"output":35
				},
				{
					"input":29,
					"interpolation":"STEP",
					"output":36
				},
				{
					"input":29,
					"interpolation":"STEP",
					"output":37
				},
				{
					"input":34,
					"interpolation":"LINEAR",
					"output":38
				},
				{
					"input":29,
					"interpolation":"STEP",
					"output":39
				},
				{
					"input":29,
					"interpolation":"STEP",
					"output":40
				},
				{
					"input":29,
					"interpolation":"STEP",
					"output":41
				},
				{
					"input":29,
					"interpolation":"STEP",
					"output":42
				},
				{
					"input":29,
					"interpolation":"STEP",
					"output":43
				},
				{
					"input":29,
					"interpolation":"STEP",
					"output":44
				},
				{
					"input":29,
					"interpolation":"STEP",
					"output":45
				}
			]
		}
	],
	"materials":[
		{
			"doubleSided":true,
			"name":"\u30de\u30c6\u30ea\u30a2\u30eb.001",
			"pbrMetallicRoughness":{
				"baseColorTexture":{
					"index":0
				},
				"metallicFactor":0,
				"roughnessFactor":0.5
			}
		},
		{
			"doubleSided":true,
			"name":"\u30de\u30c6\u30ea\u30a2\u30eb",
			"pbrMetallicRoughness":{
				"baseColorTexture":{
					"index":1
				},
				"metallicFactor":0,
				"roughnessFactor":0.5
			}
		}
	],
	"meshes":[
		{
			"name":"\u7403.003",
			"primitives":[
				{
					"attributes":{
						"POSITION":0,
						"NORMAL":1,
						"TEXCOORD_0":2,
						"JOINTS_0":3,
						"WEIGHTS_0":4
					},
					"indices":5,
					"material":0
				}
			]
		},
		{
			"name":"\u7403.006",
			"primitives":[
				{
					"attributes":{
						"POSITION":7,
						"NORMAL":8,
						"TEXCOORD_0":9,
						"JOINTS_0":10,
						"WEIGHTS_0":11
					},
					"indices":12,
					"material":1
				}
			]
		}
	],
	"textures":[
		{
			"sampler":0,
			"source":0
		},
		{
			"sampler":0,
			"source":0
		}
	],
	"images":[
		{
			"mimeType":"image/png",
			"name":"Player_SpearTex01",
			"uri":"Player_SpearTex01.png"
		}
	],
	"skins":[
		{
			"inverseBindMatrices":6,
			"joints":[
				4,
				0,
				1,
				2,
				3
			],
			"name":"\u30a2\u30fc\u30de\u30c1\u30e5\u30a2"
		}
	],
	"accessors":[
		{
			"bufferView":0,
			"componentType":5126,
			"count":1437,
			"max":[
				1.6143946647644043,
				1.4446934461593628,
				1.1289422512054443
			],
			"min":[
				-1.6003185510635376,
				-0.8431960344314575,
				-0.9387372136116028
			],
			"type":"VEC3"
		},
		{
			"bufferView":1,
			"componentType":5126,
			"count":1437,
			"type":"VEC3"
		},
		{
			"bufferView":2,
			"componentType":5126,
			"count":1437,
			"type":"VEC2"
		},
		{
			"bufferView":3,
			"componentType":5121,
			"count":1437,
			"type":"VEC4"
		},
		{
			"bufferView":4,
			"componentType":5126,
			"count":1437,
			"type":"VEC4"
		},
		{
			"bufferView":5,
			"componentType":5123,
			"count":6138,
			"type":"SCALAR"
		},
		{
			"bufferView":6,
			"componentType":5126,
			"count":5,
			"type":"MAT4"
		},
		{
			"bufferView":7,
			"componentType":5126,
			"count":297,
			"max":[
				0.15258963406085968,
				0.6277446150779724,
				3.607191562652588
			],
			"min":[
				-1.9795043468475342,
				-0.7588064074516296,
				-1.2001135349273682
			],
			"type":"VEC3"
		},
		{
			"bufferView":8,
			"componentType":5126,
			"count":297,
			"type":"VEC3"
		},
		{
			"bufferView":9,
			"componentType":5126,
			"count":297,
			"type":"VEC2"
		},
		{
			"bufferView":10,
			"componentType":5121,
			"count":297,
			"type":"VEC4"
		},
		{
			"bufferView":11,
			"componentType":5126,
			"count":297,
			"type":"VEC4"
		},
		{
			"bufferView":12,
			"componentType":5123,
			"count":804,
			"type":"SCALAR"
		},
		{
			"bufferView":13,
			"componentType":5126,
			"count":2,
			"max":[
				0.7916666666666666
			],
			"min":[
				0.4166666666666667
			],
			"type":"SCALAR"
		},
		{
			"bufferView":14,
			"componentType":5126,
			"count":2,
			"type":"VEC3"
		},
		{
			"bufferView":15,
			"componentType":5126,
			"count":2,
			"type":"VEC4"
		},
		{
			"bufferView":16,
			"componentType":5126,
			"count":2,
			"type":"VEC3"
		},
		{
			"bufferView":17,
			"componentType":5126,
			"count":2,
			"type":"VEC3"
		},
		{
			"bufferView":18,
			"componentType":5126,
			"count":2,
			"type":"VEC4"
		},
		{
			"bufferView":19,
			"componentType":5126,
			"count":2,
			"type":"VEC3"
		},
		{
			"bufferView":20,
			"componentType":5126,
			"count":2,
			"type":"VEC3"
		},
		{
			"bufferView":21,
			"componentType":5126,
			"count":2,
			"type":"VEC4"
		},
		{
			"bufferView":22,
			"componentType":5126,
			"count":2,
			"type":"VEC3"
		},
		{
			"bufferView":23,
			"componentType":5126,
			"count":2,
			"type":"VEC3"
		},
		{
			"bufferView":24,
			"componentType":5126,
			"count":2,
			"type":"VEC4"
		},
		{
			"bufferView":25,
			"componentType":5126,
			"count":2,
			"type":"VEC3"
		},
		{
			"bufferView":26,
			"componentType":5126,
			"count":2,
			"type":"VEC3"
		},
		{
			"bufferView":27,
			"componentType":5126,
			"count":2,
			"type":"VEC4"
		},
		{
			"bufferView":28,
			"componentType":5126,
			"count":2,
			"type":"VEC3"
		},
		{
			"bufferView":29,
			"componentType":5126,
			"count":2,
			"max":[
				0.4166666666666667
			],
			"min":[
				0.041666666666666664
			],
			"type":"SCALAR"
		},
		{
			"bufferView":30,
			"componentType":5126,
			"count":2,
			"type":"VEC3"
		},
		{
			"bufferView":31,
			"componentType":5126,
			"count":2,
			"type":"VEC4"
		},
		{
			"bufferView":32,
			"componentType":5126,
			"count":2,
			"type":"VEC3"
		},
		{
			"bufferView":33,
			"componentType":5126,
			"count":2,
			"type":"VEC3"
		},
		{
			"bufferView":34,
			"componentType":5126,
			"count":10,
			"max":[
				0.4166666666666667
			],
			"min":[
				0.041666666666666664
			],
			"type":"SCALAR"
		},
		{
			"bufferView":35,
			"componentType":5126,
			"count":10,
			"type":"VEC4"
		},
		{
			"bufferView":36,
			"componentType":5126,
			"count":2,
			"type":"VEC3"
		},
		{
			"bufferView":37,
			"componentType":5126,
			"count":2,
			"type":"VEC3"
		},
		{
			"bufferView":38,
			"componentType":5126,
			"count":10,
			"type":"VEC4"
		},
		{
			"bufferView":39,
			"componentType":5126,
			"count":2,
			"type":"VEC3"
		},
		{
			"bufferView":40,
			"componentType":5126,
			"count":2,
			"type":"VEC3"
		},
		{
			"bufferView":41,
			"componentType":5126,
			"count":2,
			"type":"VEC4"
		},
		{
			"bufferView":42,
			"componentType":5126,
			"count":2,
			"type":"VEC3"
		},
		{
			"bufferView":43,
			"componentType":5126,
			"count":2,
			"type":"VEC3"
		},
		{
			"bufferView":44,
			"componentType":5126,
			"count":2,
			"type":"VEC4"
		},
		{
			"bufferView":45,
			"componentType":5126,
			"count":2,
			"type":"VEC3"
		}
	],
	"bufferViews":[
		{
			"buffer":0,
			"byteLength":17244,
			"byteOffset":0,
			"target":34962
		},
		{
			"buffer":0,
			"byteLength":17244,
			"byteOffset":17244,
			"target":34962
		},
		{
			"buffer":0,
			"byteLength":11496,
			"byteOffset":34488,
			"target":34962
		},
		{
			"buffer":0,
			"byteLength":5748,
			"byteOffset":45984,
			"target":34962
		},
		{
			"buffer":0,
			"byteLength":22992,
			"byteOffset":51732,
			"target":34962
		},
		{
			"buffer":0,
			"byteLength":12276,
			"byteOffset":74724,
			"target":34963
		},
		{
			"buffer":0,
			"byteLength":320,
			"byteOffset":87000
		},
		{
			"buffer":0,
			"byteLength":3564,
			"byteOffset":87320,
			"target":34962
		},
		{
			"buffer":0,
			"byteLength":3564,
			"byteOffset":90884,
			"target":34962
		},
		{
			"buffer":0,
			"byteLength":2376,
			"byteOffset":94448,
			"target":34962
		},
		{
			"buffer":0,
			"byteLength":1188,
			"byteOffset":96824,
			"target":34962
		},
		{
			"buffer":0,
			"byteLength":4752,
			"byteOffset":98012,
			"target":34962
		},
		{
			"buffer":0,
			"byteLength":1608,
			"byteOffset":102764,
			"target":34963
		},
		{
			"buffer":0,
			"byteLength":8,
			"byteOffset":104372
		},
		{
			"buffer":0,
			"byteLength":24,
			"byteOffset":104380
		},
		{
			"buffer":0,
			"byteLength":32,
			"byteOffset":104404
		},
		{
			"buffer":0,
			"byteLength":24,
			"byteOffset":104436
		},
		{
			"buffer":0,
			"byteLength":24,
			"byteOffset":104460
		},
		{
			"buffer":0,
			"byteLength":32,
			"byteOffset":104484
		},
		{
			"buffer":0,
			"byteLength":24,
			"byteOffset":104516
		},
		{
			"buffer":0,
			"byteLength":24,
			"byteOffset":104540
		},
		{
			"buffer":0,
			"byteLength":32,
			"byteOffset":104564
		},
		{
			"buffer":0,
			"byteLength":24,
			"byteOffset":104596
		},
		{
			"buffer":0,
			"byteLength":24,
			"byteOffset":104620
		},
		{
			"buffer":0,
			"byteLength":32,
			"byteOffset":104644
		},
		{
			"buffer":0,
			"byteLength":24,
			"byteOffset":104676
		},
		{
			"buffer":0,
			"byteLength":24,
			"byteOffset":104700
		},
		{
			"buffer":0,
			"byteLength":32,
			"byteOffset":104724
		},
		{
			"buffer":0,
			"byteLength":24,
			"byteOffset":104756
		},
		{
			"buffer":0,
			"byteLength":8,
			"byteOffset":104780
		},
		{
			"buffer":0,
			"byteLength":24,
			"byteOffset":104788
		},
		{
			"buffer":0,
			"byteLength":32,
			"byteOffset":104812
		},
		{
			"buffer":0,
			"byteLength":24,
			"byteOffset":104844
		},
		{
			"buffer":0,
			"byteLength":24,
			"byteOffset":104868
		},
		{
			"buffer":0,
			"byteLength":40,
			"byteOffset":104892
		},
		{
			"buffer":0,
			"byteLength":160,
			"byteOffset":104932
		},
		{
			"buffer":0,
			"byteLength":24,
			"byteOffset":105092
		},
		{
			"buffer":0,
			"byteLength":24,
			"byteOffset":105116
		},
		{
			"buffer":0,
			"byteLength":160,
			"byteOffset":105140
		},
		{
			"buffer":0,
			"byteLength":24,
			"byteOffset":105300
		},
		{
			"buffer":0,
			"byteLength":24,
			"byteOffset":105324
		},
		{
			"buffer":0,
			"byteLength":32,
			"byteOffset":105348
		},
		{
			"buffer":0,
			"byteLength":24,
			"byteOffset":105380
		},
		{
			"buffer":0,
			"byteLength":24,
			"byteOffset":105404
		},
		{
			"buffer":0,
			"byteLength":32,
			"byteOffset":105428
		},
		{
			"buffer":0,
			"byteLength":24,
			"byteOffset":105460
		}
	],
	"samplers":[
		{
			"magFilter":9729,
			"minFilter":9987
		}
	],
	"buffers":[
		{
			"byteLength":105484,
			"uri":"PlayerRush.bin"
		}
	]
}
